<?xml version="1.0" standalone="no"?>
<!DOCTYPE svg PUBLIC "-//W3C//DTD SVG 1.1//EN" "http://www.w3.org/Graphics/SVG/1.1/DTD/svg11.dtd" >
<svg xmlns="http://www.w3.org/2000/svg" xmlns:xlink="http://www.w3.org/1999/xlink" version="1.1">
<metadata>
Created by FontForge 20170731 at Fri Mar  5 16:26:06 2021
 By Aleksey,,,
Designed &#38; produced by Jason Smith. Copyright Fontsmith 2002      http://www.fontsmith.com
</metadata>
<defs>
<font id="FSAlbert-Light" horiz-adv-x="634" >
  <font-face 
    font-family="FSAlbert"
    font-weight="300"
    font-stretch="normal"
    units-per-em="2048"
    panose-1="2 0 5 3 4 0 0 2 0 4"
    ascent="1577"
    descent="-471"
    x-height="987"
    cap-height="1407"
    bbox="-395 -451 2048 1881"
    underline-thickness="102"
    underline-position="-307"
    unicode-range="U+0020-FB02"
  />
<missing-glyph horiz-adv-x="2048" 
 />
    <glyph glyph-name=".notdef" horiz-adv-x="2048" 
 />
    <glyph glyph-name=".null" horiz-adv-x="0" 
 />
    <glyph glyph-name="nonmarkingreturn" horiz-adv-x="682" 
 />
    <glyph glyph-name="space" unicode=" " horiz-adv-x="450" 
 />
    <glyph glyph-name="exclam" unicode="!" horiz-adv-x="520" 
d="M369 1374l-17 -1055q0 -19 -8 -26.5t-25 -7.5h-49q-17 0 -24.5 7.5t-7.5 26.5l-17 1051v2q0 35 27 35h88q18 0 25.5 -6.5t7.5 -24.5v-2zM397 76q0 -45 -31.5 -74t-72.5 -29t-75 29t-34 74q0 47 32.5 73.5t76.5 26.5q42 0 73 -27.5t31 -72.5z" />
    <glyph glyph-name="quotedbl" unicode="&#x22;" horiz-adv-x="614" 
d="M498 1106q0 -37 -33 -37h-66q-32 0 -32 37v287q0 37 32 37h66q33 0 33 -37v-287zM244 1106q0 -37 -33 -37h-66q-30 0 -30 37v287q0 37 30 37h66q33 0 33 -37v-287z" />
    <glyph glyph-name="numbersign" unicode="#" horiz-adv-x="1126" 
d="M1161 930q0 -2 -1 -8t-1 -9l-4 -26q-4 -25 -11.5 -33t-23.5 -8h-227l-49 -320h221q17 0 23 -4.5t6 -15.5q0 -2 -1 -8.5t-1 -10.5l-2 -36q-1 -20 -10.5 -26.5t-32.5 -6.5h-224l-59 -381q-3 -21 -14.5 -29t-40.5 -8h-39q-23 0 -32 5t-9 20q0 2 1 7.5t1 8.5l63 377h-332
l-63 -375q-5 -26 -14.5 -34.5t-42.5 -8.5h-41q-21 0 -29 5.5t-8 19.5q0 12 2 20l59 373h-211q-17 0 -23.5 5t-6.5 19q0 2 1 7t1 8l6 39q3 19 13 24.5t40 5.5h205l47 320h-219q-29 0 -29 24q0 2 1 6.5t1 6.5l6 41q3 17 10 22.5t27 5.5h225l64 424q6 31 31 31h71q31 0 31 -23
v-8l-65 -424h325l66 422q3 20 11 26.5t26 6.5h61q35 0 35 -25q0 -2 -1 -7.5t-1 -8.5l-62 -414h224q14 0 20 -4.5t6 -17.5zM762 846h-330l-51 -320h330z" />
    <glyph glyph-name="dollar" unicode="$" horiz-adv-x="1105" 
d="M981 365q0 -158 -98 -253.5t-254 -121.5v-154q0 -19 -1.5 -26t-10 -12t-27.5 -5h-23q-24 0 -30.5 9t-6.5 34v146h-10h-6q-154 0 -311 53q-27 9 -27 28q0 9 2 15l21 67q6 19 22 19q5 0 21 -4q155 -58 280 -58h2h6v580l-143 82q-217 123 -217 319q0 99 51.5 176t131.5 118
t177 50v166q0 33 31 33h33q21 0 28 -7t7 -28v-161q134 -6 254 -56q26 -12 26 -31q0 -8 -2 -14l-20 -57q-6 -19 -25 -19q-6 0 -18 4q-114 47 -215 56v-529l69 -39q67 -38 113 -71.5t87.5 -79t62 -102.5t20.5 -127zM530 842v469q-83 -13 -135 -54q-80 -60 -80 -149
q0 -84 44.5 -141t125.5 -101zM840 356q0 166 -199 265l-12 6v-514q95 22 153 82.5t58 160.5z" />
    <glyph glyph-name="percent" unicode="%" horiz-adv-x="2048" 
d="M872 1116q0 -84 -23.5 -151t-81 -112.5t-142.5 -45.5q-64 0 -114 25t-79.5 68.5t-44 97.5t-14.5 116q0 131 65.5 223.5t190.5 92.5q66 0 114.5 -26.5t75.5 -72t40 -99.5t13 -116zM1690 291q0 -49 -8.5 -93t-27.5 -84t-47.5 -69t-70.5 -46t-94 -17q-64 0 -114 25
t-79.5 68.5t-44 97.5t-14.5 116q0 131 65.5 223t190.5 92q66 0 114.5 -26t76 -71.5t40.5 -99.5t13 -116zM1552 1372q0 -11 -8 -22l-944 -1356q-8 -14 -22 -14q-11 0 -29 12l-39 26q-12 9 -12 23t8 25l942 1351q9 15 22 15q12 0 31 -13l35 -20q16 -10 16 -27zM770 1122
q0 37 -7 75t-22.5 75.5t-45.5 61.5t-70 24q-43 0 -74.5 -25t-46 -65.5t-21 -79.5t-6.5 -80q0 -39 7 -77t23 -75t47 -59.5t73 -22.5t72 25t44.5 66t20.5 79.5t6 77.5zM1587 297q0 37 -7 74.5t-22.5 75.5t-45.5 61.5t-70 23.5q-43 0 -74.5 -25t-46 -65.5t-21 -79t-6.5 -79.5
q0 -39 7 -77t23 -75t47 -59.5t73 -22.5t72 25t44.5 66t20.5 79.5t6 77.5z" />
    <glyph glyph-name="ampersand" unicode="&#x26;" horiz-adv-x="1370" 
d="M1341 66l-20 -54q-6 -17 -15 -20.5t-34 2.5q-70 16 -154 62t-153 114q-205 -188 -476 -188q-172 0 -288.5 109t-116.5 276q0 50 12.5 95.5t40.5 87t55 73t74 69t78 60t86 59.5l-68 82q-58 70 -87 130t-29 132q0 112 85 193.5t214 81.5q132 0 216.5 -76t84.5 -197
q0 -51 -19.5 -99.5t-57 -92.5t-77.5 -79.5t-96 -76.5l385 -461q72 101 114.5 227t53.5 254q2 17 6 23t16 6h72q22 0 19 -27q-9 -153 -62.5 -300t-146.5 -265q105 -103 268 -164q18 -6 21.5 -12.5t-1.5 -23.5zM721 1153q0 75 -47.5 125.5t-124.5 50.5q-72 0 -121 -49.5
t-49 -122.5q0 -42 28 -98.5t72 -108.5l56 -67q90 67 138 130t48 140zM895 250l-401 483q-50 -37 -81.5 -62.5t-70 -62.5t-60.5 -69t-37.5 -72.5t-15.5 -81.5q0 -124 87 -205.5t206 -81.5q214 0 373 152z" />
    <glyph glyph-name="quotesingle" unicode="'" horiz-adv-x="614" 
d="M362 1106q0 -37 -32 -37h-66q-31 0 -31 37v287q0 37 31 37h66q32 0 32 -37v-287z" />
    <glyph glyph-name="parenleft" unicode="(" horiz-adv-x="659" 
d="M530 1419q0 -11 -8 -22q-122 -192 -174 -344q-74 -216 -74 -467q0 -220 58.5 -401.5t181.5 -358.5q8 -11 8 -23q0 -13 -12 -22l-31 -23q-8 -8 -18 -8q-9 0 -23 21q-297 414 -297 841q0 409 310 834q9 12 22 12q10 0 16 -4l31 -18q10 -7 10 -17z" />
    <glyph glyph-name="parenright" unicode=")" horiz-adv-x="659" 
d="M518 600q0 -412 -307 -833q-10 -13 -23 -13q-10 0 -16 4l-33 21q-10 7 -10 16q0 10 8 21q122 192 174 344q76 222 76 467q0 220 -58.5 401t-181.5 358q-8 11 -8 23q0 13 13 23l32 22q16 8 19 8q9 0 22 -20q293 -408 293 -842z" />
    <glyph glyph-name="asterisk" unicode="*" 
d="M582 1202q0 -19 -25 -22l-190 -25l139 -145q8 -8 8 -19q0 -17 -16 -28l-49 -37q-18 -11 -23 -11q-10 0 -20 21l-89 201l-86 -209q-7 -13 -16 -13q-5 0 -18 9l-66 47q-10 7 -10 14q0 6 16 27l142 145l-201 23q-23 3 -23 16q0 8 2 12l29 90q6 17 20 17q10 0 19 -6l174 -105
l-39 207q-2 8 -2 19q0 10 5.5 13t19.5 3h73q27 0 27 -16q0 -13 -2 -19l-39 -207l180 107q8 4 15 4q12 0 20 -25l21 -69q4 -12 4 -19z" />
    <glyph glyph-name="plus" unicode="+" horiz-adv-x="1024" 
d="M934 516q0 -24 -6.5 -31.5t-28.5 -7.5h-328v-342q0 -26 -6 -33.5t-24 -7.5h-54q-18 0 -24 7t-6 28v348h-324q-25 0 -33 6.5t-8 24.5v53q0 19 7 25t28 6h330v344q0 27 6.5 34t28.5 7h40q24 0 31.5 -6.5t7.5 -28.5v-350h322q27 0 34 -6.5t7 -28.5v-41z" />
    <glyph glyph-name="comma" unicode="," horiz-adv-x="393" 
d="M311 53q0 -76 -42 -155t-103 -121q-17 -10 -25 -10q-11 0 -20 12l-10 12q-7 7 -7 16q0 6 11 17q63 63 63 127q0 25 -30.5 63.5t-30.5 65.5q0 40 27 66t67 26q44 0 72 -36t28 -83z" />
    <glyph glyph-name="hyphen" unicode="-" horiz-adv-x="555" 
d="M463 516q0 -24 -6.5 -31.5t-28.5 -7.5h-295q-25 0 -33 6.5t-8 24.5v53q0 19 7 25t28 6h295q27 0 34 -6.5t7 -28.5v-41z" />
    <glyph glyph-name="period" unicode="." horiz-adv-x="399" 
d="M317 76q0 -42 -31.5 -72.5t-74.5 -30.5q-44 0 -76.5 30t-32.5 73q0 45 31.5 72.5t77.5 27.5q44 0 75 -28.5t31 -71.5z" />
    <glyph glyph-name="slash" unicode="/" horiz-adv-x="665" 
d="M614 1413q0 -6 -4 -22l-395 -1368q-7 -26 -18.5 -33.5t-36.5 -7.5h-41q-31 0 -31 16q0 2 4 22l402 1373q5 16 8 22.5t11 10.5t22 4h55q24 0 24 -17z" />
    <glyph glyph-name="zero" unicode="0" horiz-adv-x="1105" 
d="M1032 709q0 -65 -6.5 -131.5t-23 -139t-41 -137t-62.5 -124t-86 -102t-114.5 -68t-143.5 -25.5q-90 0 -164 33t-123.5 90.5t-86.5 129t-57 155t-29 161t-9 154.5q0 76 9.5 153.5t30.5 161.5t58 155.5t87.5 129.5t125 91.5t164.5 33.5q77 0 143 -25t113.5 -67t85 -101
t61.5 -123t39.5 -136t22 -138t6.5 -131zM879 707q0 48 -3.5 98t-13 110.5t-24.5 115t-40.5 106.5t-57.5 90t-79 61t-102 23q-56 0 -102.5 -23t-79 -60.5t-57.5 -90t-39.5 -106.5t-24 -115t-13 -111t-3.5 -98q0 -71 7 -142.5t28 -158t54.5 -151.5t93 -109t136.5 -44
q76 0 135.5 44t93.5 109.5t55.5 151.5t28.5 158t7 142z" />
    <glyph glyph-name="one" unicode="1" horiz-adv-x="1105" 
d="M702 43q0 -43 -36 -43h-62q-39 0 -39 43v1214l-278 -184q-12 -8 -23 -8q-14 0 -26 18l-27 45q-4 6 -4 15q0 18 20 31l328 217q23 16 66 16h45q36 0 36 -43v-1321z" />
    <glyph glyph-name="two" unicode="2" horiz-adv-x="1105" 
d="M973 35q0 -19 -9 -27t-32 -8h-756q-20 0 -26.5 7.5t-6.5 27.5v49q0 16 3.5 24t15.5 21q49 54 153.5 161t153.5 161q174 191 258 331t84 267q0 117 -75 187.5t-193 70.5q-143 0 -291 -84q-12 -4 -14 -4q-18 0 -25 20l-18 45q-7 14 -7 21q0 11 19 24q154 101 358 101
q167 0 283.5 -97t116.5 -266q0 -151 -78 -294t-283 -367q-52 -57 -156 -163.5t-120 -123.5h602q24 0 33.5 -7t9.5 -26v-51z" />
    <glyph glyph-name="three" unicode="3" horiz-adv-x="1105" 
d="M961 408q0 -124 -62 -222t-166 -151t-229 -53q-201 0 -332 67q-16 10 -16 25q0 8 2 12l22 53q10 19 21 19q2 0 14 -4q132 -60 274 -60q141 0 229.5 83t88.5 224q0 144 -94 222.5t-248 78.5h-72q-26 0 -26 25v61q0 23 24 23h55q143 0 226.5 67.5t83.5 202.5q0 118 -75 178
t-198 60q-122 0 -245 -68q-9 -6 -17 -6q-7 0 -14 15l-25 53q-4 8 -4 12q0 12 12 18q147 87 322 87q103 0 192.5 -40t147 -120t57.5 -183q0 -108 -67 -197.5t-170 -121.5q130 -29 209.5 -129t79.5 -231z" />
    <glyph glyph-name="four" unicode="4" horiz-adv-x="1105" 
d="M961 31q0 -17 -6 -24t-21 -7h-80q-17 0 -24 7t-7 26v307h-676q-21 0 -28.5 9t-7.5 30v22v9q0 40 18 79l393 885q14 33 39 33h76q12 0 20.5 -9t8.5 -20q0 -8 -2 -12l-398 -907h557v334q0 20 7 26t26 6h72q20 0 26.5 -5.5t6.5 -24.5v-764z" />
    <glyph glyph-name="five" unicode="5" horiz-adv-x="1105" 
d="M979 420q0 -202 -136.5 -320t-348.5 -118q-151 0 -299 77q-27 13 -27 31q0 2 4 14l25 52q9 18 24 18q9 0 21 -6q73 -36 133 -51t133 -15q135 0 226 81t91 231q0 79 -23 138.5t-61 96.5t-95 60t-118 32t-137 9h-104q-56 0 -56 51v573q0 33 31 33h320h282q21 0 30 -7t9 -28
v-49q0 -20 -6.5 -26.5t-28.5 -6.5h-288h-211v-430h75q110 0 204 -25t169.5 -76t118.5 -138t43 -201z" />
    <glyph glyph-name="six" unicode="6" horiz-adv-x="1105" 
d="M1014 453q0 -203 -114 -337t-302 -134q-119 0 -206.5 47.5t-138 133.5t-74 193t-23.5 238q0 216 56.5 403t170.5 301q62 62 150.5 97t187.5 35q69 0 160 -21q18 -5 18 -23q0 -10 -2 -16l-10 -45q-6 -25 -27 -25q-2 0 -5 1.5t-5 1.5q-65 12 -137 12q-64 0 -124 -24
t-102 -68q-141 -141 -174 -492q129 137 314 137q167 0 277 -113.5t110 -301.5zM860 438q0 61 -14 115t-42.5 100t-79 72.5t-116.5 26.5q-71 0 -152 -37t-147 -111v-16v-33q0 -103 16.5 -185t50.5 -143.5t90.5 -95t133.5 -33.5q71 0 124.5 33t81.5 86t41 108.5t13 112.5z" />
    <glyph glyph-name="seven" unicode="7" horiz-adv-x="1105" 
d="M989 1319q0 -23 -16 -55l-557 -1231q-13 -33 -47 -33h-76q-12 0 -19.5 7t-7.5 18q0 6 4 18l572 1245h-615q-21 0 -29 5.5t-8 23.5v57q0 33 33 33h731q20 0 27.5 -7t7.5 -26v-41v-10v-4z" />
    <glyph glyph-name="eight" unicode="8" horiz-adv-x="1105" 
d="M1001 391q0 -182 -130 -295.5t-320 -113.5q-196 0 -320.5 102t-124.5 287q0 117 88 220.5t238 156.5q-123 53 -194.5 141.5t-71.5 200.5q0 145 114 242.5t279 97.5t272 -91.5t107 -240.5q0 -97 -76 -190t-188 -144q327 -136 327 -373zM784 1100q0 103 -61.5 165
t-171.5 62q-102 0 -167 -64t-65 -163q0 -53 18 -96.5t54.5 -77.5t73 -58t92.5 -53q90 43 158.5 117t68.5 168zM848 373q0 110 -74 184q-72 72 -233 141q-281 -110 -281 -321q0 -133 90 -212t207 -79q75 0 140 31t108 98t43 158z" />
    <glyph glyph-name="nine" unicode="9" horiz-adv-x="1105" 
d="M981 817q0 -222 -59.5 -413.5t-178.5 -303.5q-61 -56 -150 -87t-185 -31q-78 0 -152 20q-18 5 -18 23q0 10 2 16l10 45q6 23 22 23h9q60 -13 122 -13q71 0 138.5 26t111.5 71q137 143 170 487q-129 -137 -315 -137q-166 0 -275.5 113.5t-109.5 301.5q0 132 49.5 239
t144.5 170t220 63q96 0 172 -32t126.5 -87t83.5 -133.5t47.5 -167.5t14.5 -193zM827 807v16v33q0 139 -28.5 238.5t-95.5 159t-168 59.5q-58 0 -104 -22.5t-74.5 -57t-47 -81t-26 -90.5t-7.5 -89q0 -61 13.5 -115t42 -100t78.5 -72.5t116 -26.5q71 0 153 37t148 111z" />
    <glyph glyph-name="colon" unicode=":" horiz-adv-x="419" 
d="M328 903q0 -45 -33 -72.5t-74 -27.5t-74.5 27.5t-33.5 72.5q0 47 32 76t76 29q42 0 74.5 -30t32.5 -75zM328 84q0 -45 -33 -73.5t-74 -28.5t-74.5 28.5t-33.5 73.5q0 47 32 73.5t76 26.5q42 0 74.5 -27.5t32.5 -72.5z" />
    <glyph glyph-name="semicolon" unicode=";" horiz-adv-x="421" 
d="M330 903q0 -45 -33 -72.5t-74 -27.5t-74.5 27.5t-33.5 72.5q0 47 32 76t76 29q42 0 74.5 -30t32.5 -75zM322 18q0 -73 -40 -137t-104 -108q-18 -11 -24 -11q-11 0 -21 13l-14 18q-6 6 -6 17q0 6 10 16q53 49 53 92q0 18 -26.5 58.5t-26.5 66.5q0 41 27.5 66.5t68.5 25.5
q44 0 73.5 -36t29.5 -81z" />
    <glyph glyph-name="less" unicode="&#x3c;" horiz-adv-x="1024" 
d="M815 367q0 -11 -4 -15l-41 -63q-11 -19 -25 -19q-9 0 -28 13l-524 354q-23 17 -23 37v31q0 19 23 36l524 355q18 12 28 12q14 0 25 -18l41 -64q4 -4 4 -14q0 -20 -20 -31l-445 -293l445 -291q20 -11 20 -30z" />
    <glyph glyph-name="equal" unicode="=" horiz-adv-x="1024" 
d="M829 735q0 -24 -6.5 -31.5t-27.5 -7.5h-562q-25 0 -32.5 6.5t-7.5 24.5v53q0 19 7 25t27 6h561q27 0 34 -6.5t7 -28.5v-41zM829 367q0 -24 -6.5 -31.5t-27.5 -7.5h-562q-25 0 -32.5 6t-7.5 24v54q0 19 6.5 24.5t27.5 5.5h561q27 0 34 -6t7 -28v-41z" />
    <glyph glyph-name="greater" unicode="&#x3e;" horiz-adv-x="1024" 
d="M815 674q0 -20 -22 -37l-525 -354q-20 -13 -28 -13q-14 0 -25 19l-41 63q-4 4 -4 15q0 19 20 30l445 293l-445 291q-20 11 -20 31q0 10 4 14l41 64q11 18 25 18q10 0 28 -12l525 -355q22 -17 22 -36v-31z" />
    <glyph glyph-name="question" unicode="?" horiz-adv-x="833" 
d="M741 1116q0 -73 -31 -148t-87 -137l-150 -165q-27 -29 -41 -48t-30.5 -50.5t-23.5 -70.5t-7 -91q0 -22 -4 -29.5t-17 -7.5h-55q-15 0 -20.5 5.5t-8.5 24.5q-6 47 -6 95q0 46 25 103.5t61 96.5l148 160q116 127 116 238q0 65 -21.5 112.5t-58 72.5t-77 36.5t-86.5 11.5
q-95 0 -193 -45q-12 -4 -16 -4q-17 0 -23 18l-14 37q-4 12 -4 15q0 15 14 22q121 62 264 62t244.5 -87t101.5 -227zM442 76q0 -45 -33.5 -74t-74.5 -29t-74 29t-33 74q0 47 31.5 73.5t75.5 26.5q42 0 75 -27.5t33 -72.5z" />
    <glyph glyph-name="at" unicode="@" horiz-adv-x="1658" 
d="M1550 791q0 -83 -24.5 -168.5t-68.5 -159.5t-116 -121t-157 -47q-55 0 -101 17.5t-79 62.5t-33 112q-41 -73 -100.5 -109t-125.5 -36q-107 0 -162 80t-55 196q0 101 39.5 199.5t119.5 168t181 69.5q67 0 120.5 -34.5t70.5 -111.5l24 97q5 20 29 20h41q27 0 27 -16
q0 -1 -1 -5t-1 -6l-93 -405q-14 -57 -14 -129q0 -51 30 -78t87 -27q59 0 107 33t76.5 82t48 110.5t27 115t7.5 98.5q0 237 -157 384.5t-402 147.5q-153 0 -272 -61q-173 -87 -264 -250.5t-91 -362.5q0 -264 162.5 -425.5t425.5 -161.5q79 0 170 23.5t164 62.5q6 4 14 4
q13 0 19 -15l14 -34q4 -12 4 -13q0 -8 -16 -18q-183 -98 -387 -98q-210 0 -375 83t-257.5 235t-92.5 349q0 161 62 305.5t167.5 249t251 165.5t307.5 61q189 0 336.5 -79t230 -224.5t82.5 -335.5zM1020 805q0 39 -10 75t-41 66.5t-78 30.5q-50 0 -91.5 -26t-66.5 -66
t-42.5 -90.5t-24.5 -95.5t-7 -85q0 -182 123 -182q121 0 195 170z" />
    <glyph glyph-name="A" unicode="A" horiz-adv-x="1196" 
d="M1180 16q0 -16 -25 -16h-96q-24 0 -32 5t-15 26l-154 428h-539l-159 -430q-7 -20 -14.5 -24.5t-28.5 -4.5h-88q-15 0 -15 14q0 13 4 21l523 1351q7 21 26 21h74q17 0 25 -18l510 -1356q4 -16 4 -17zM821 565l-225 635l-238 -635h463z" />
    <glyph glyph-name="B" unicode="B" horiz-adv-x="1124" 
d="M1028 399q0 -91 -27 -161t-72.5 -114.5t-112.5 -73t-140.5 -39.5t-163.5 -11h-317q-23 0 -30 6t-7 29v1333q0 23 9.5 31t37.5 8h258q80 0 147.5 -11t126 -36.5t99 -64.5t63.5 -97.5t23 -132.5q0 -118 -67.5 -204.5t-188.5 -110.5v-2q156 -3 259 -98t103 -251zM778 1063
q0 58 -18.5 100.5t-48.5 67.5t-75.5 40t-90.5 20t-103 5h-141v-503h158q48 0 88 5t84.5 22t75.5 45.5t51 79t20 118.5zM881 397q0 285 -385 285h-127h-68v-571h195q88 0 155 13.5t120.5 45t81.5 88.5t28 139z" />
    <glyph glyph-name="C" unicode="C" horiz-adv-x="1185" 
d="M1139 98q0 -14 -25 -26q-179 -90 -387 -90q-125 0 -228.5 38.5t-176 105t-122 158.5t-73 198t-23.5 223q0 142 42 271t120 231t200 162.5t271 60.5q214 0 369 -95q22 -13 22 -26q0 -10 -6 -19l-26 -49q-8 -16 -21 -16q-9 0 -18 6q-139 86 -309 86q-103 0 -194 -43.5
t-155 -120.5q-139 -171 -139 -438q0 -93 16 -180.5t53.5 -168.5t92.5 -141.5t138 -96.5t185 -36q79 0 170.5 21.5t161.5 58.5q12 6 21 6q12 0 18 -16l19 -43q4 -8 4 -21z" />
    <glyph glyph-name="D" unicode="D" horiz-adv-x="1337" 
d="M1237 694q0 -171 -52 -312.5t-151 -234.5q-157 -147 -502 -147h-327q-29 0 -38 9t-9 34v1309q0 30 12.5 42.5t44.5 12.5h229q213 0 321 -20t200 -80q129 -84 200.5 -244t71.5 -369zM1083 696q0 158 -46.5 289.5t-135.5 204.5q-128 106 -385 106h-215v-1185h182
q169 0 269 23.5t170 94.5q161 161 161 467z" />
    <glyph glyph-name="E" unicode="E" horiz-adv-x="1001" 
d="M913 29q0 -16 -6.5 -22.5t-27.5 -6.5h-684q-23 0 -30 7t-7 30v1335q0 20 7.5 27.5t27.5 7.5h686q28 0 28 -25v-8l-6 -51q-1 -18 -11 -22.5t-36 -4.5h-553v-495h487q19 0 27 -7t8 -24v-49q0 -19 -6.5 -25t-25.5 -6h-490v-579h576q21 0 28.5 -6t7.5 -21v-55z" />
    <glyph glyph-name="F" unicode="F" horiz-adv-x="983" 
d="M907 1374l-6 -51q-1 -18 -11 -22.5t-36 -4.5h-553v-495h487q19 0 27 -7t8 -24v-49q0 -19 -6.5 -25t-25.5 -6h-490v-651q0 -26 -6.5 -32.5t-28.5 -6.5h-73q-22 0 -28.5 6.5t-6.5 32.5v1333q0 20 7.5 27.5t27.5 7.5h686q28 0 28 -25v-8z" />
    <glyph glyph-name="G" unicode="G" horiz-adv-x="1314" 
d="M1165 152q0 -37 -6 -49t-35 -29q-69 -40 -172.5 -66t-193.5 -26q-167 0 -294 53.5t-205 151t-116.5 227.5t-38.5 291q0 207 78 369.5t234.5 259t369.5 96.5q72 0 161.5 -17t156.5 -45q22 -8 22 -20q0 -1 -4 -17l-16 -57q-6 -21 -21 -21q-2 0 -18 4q-60 24 -141.5 40
t-139.5 16q-107 0 -195 -32.5t-149 -89.5t-103 -134t-61.5 -165t-19.5 -185q0 -93 15.5 -179.5t52.5 -167.5t91.5 -140.5t139 -95.5t188.5 -36q163 0 279 62v540h-236q-22 0 -27 4.5t-5 28.5v51q0 17 5.5 22t24.5 5h347q21 0 26.5 -6.5t5.5 -28.5v-614z" />
    <glyph glyph-name="H" unicode="H" horiz-adv-x="1308" 
d="M1151 37q0 -37 -31 -37h-78q-32 0 -32 37v653h-709v-653q0 -37 -33 -37h-78q-32 0 -32 37v1333q0 37 32 37h78q33 0 33 -37v-569h709v569q0 37 32 37h78q31 0 31 -37v-1333z" />
    <glyph glyph-name="I" unicode="I" horiz-adv-x="714" 
d="M582 29q0 -18 -4 -23.5t-19 -5.5h-405q-15 0 -20 5t-5 20v57q0 12 4.5 16t20.5 4h131v1205h-138q-15 0 -19.5 3.5t-4.5 18.5v53q0 15 4.5 20t17.5 5h408q18 0 23.5 -5t5.5 -18v-51q0 -11 -0.5 -16t-5 -7.5t-8 -2.5h-15.5h-131v-1205h131q17 0 23 -5t6 -17v-51z" />
    <glyph glyph-name="J" unicode="J" horiz-adv-x="743" 
d="M582 475q0 -158 -20.5 -257.5t-86.5 -158.5q-87 -77 -254 -77q-65 0 -112 14q-19 6 -19 20q0 1 1 5t1 6l12 65q3 19 17 19q2 0 6 -1t6 -1q61 -11 98 -11q58 0 104.5 19t67.5 55q39 69 39 254v881h-227q-23 0 -29 5t-6 23v47q0 14 7.5 19.5t29.5 5.5h332q33 0 33 -35v-897
z" />
    <glyph glyph-name="K" unicode="K" horiz-adv-x="1058" 
d="M1040 14q0 -14 -18 -14h-100q-24 0 -36.5 5.5t-29.5 25.5l-553 643h-2v-637q0 -37 -33 -37h-78q-32 0 -32 37v1333q0 37 32 37h78q33 0 33 -37v-602h2l537 618q18 21 47 21h88q6 0 11 -4t5 -10t-6 -15l-557 -645l600 -694q12 -15 12 -25z" />
    <glyph glyph-name="L" unicode="L" horiz-adv-x="876" 
d="M846 27q0 -16 -5 -21.5t-22 -5.5h-629q-32 0 -32 37v1333q0 37 32 37h78q33 0 33 -37v-1259h512q20 0 26.5 -5t6.5 -20v-59z" />
    <glyph glyph-name="M" unicode="M" horiz-adv-x="1667" 
d="M1509 29q0 -18 -6 -23.5t-24 -5.5h-86q-15 0 -21.5 7t-7.5 28l-41 1087h-2l-424 -1104q-8 -18 -27 -18h-67q-19 0 -29 23l-452 1099l-29 -1095q0 -16 -6 -21.5t-25 -5.5h-78q-26 0 -26 27v4l43 1341q0 22 5 28.5t19 6.5h68q21 0 29.5 -5t13.5 -18l512 -1179h2l475 1177
q6 15 12 20t19 5h80q14 0 19 -6t5 -23l49 -1343v-6z" />
    <glyph glyph-name="N" unicode="N" horiz-adv-x="1376" 
d="M1219 37q0 -21 -6 -29t-21 -8h-66q-27 0 -53 37l-782 1110h-4v-1110q0 -37 -33 -37h-64q-32 0 -32 37v1333q0 37 32 37h52q29 0 45 -27l800 -1138h5v1128q0 22 6.5 29.5t23.5 7.5h64q18 0 25.5 -7t7.5 -28v-1335z" />
    <glyph glyph-name="O" unicode="O" horiz-adv-x="1355" 
d="M1264 713q0 -171 -45 -310.5t-124 -231t-185.5 -140.5t-229.5 -49q-263 0 -413 190t-150 526q0 164 43.5 302t121 232t185 146t233.5 52q266 0 415 -195.5t149 -521.5zM1110 707q0 282 -108 444t-306 162q-126 0 -223.5 -79.5t-150 -217.5t-52.5 -311q0 -281 110.5 -445
t305.5 -164q188 0 306 169t118 442z" />
    <glyph glyph-name="P" unicode="P" horiz-adv-x="1011" 
d="M948 987q0 -108 -40 -192.5t-109.5 -136.5t-159 -78.5t-193.5 -26.5h-145v-516q0 -37 -33 -37h-78q-32 0 -32 37v1333q0 37 32 37h248q109 0 198 -22t161 -70t111.5 -131t39.5 -197zM801 987q0 89 -28.5 151.5t-82.5 96t-119.5 47.5t-152.5 14h-117v-632h137
q168 0 265.5 79t97.5 244z" />
    <glyph glyph-name="Q" unicode="Q" horiz-adv-x="1343" 
d="M1313 -152q0 -4 -13 -69q-7 -23 -26 -23q-2 0 -6 1t-6 1q-75 13 -131 38.5t-119 72.5q-9 7 -38.5 28.5t-40 29t-36 22.5t-43 20.5t-43 11t-51.5 5.5q-16 0 -46 -2t-46 -2q-121 0 -218 40t-160.5 107.5t-106 160.5t-61 194t-18.5 212q0 109 21 212.5t67.5 198.5
t113.5 166.5t165.5 114t216.5 42.5q120 0 217 -41t160.5 -109.5t106 -162.5t61 -195t18.5 -211q0 -100 -17.5 -194.5t-54.5 -185t-102.5 -165t-152.5 -121.5q35 -12 68.5 -30.5t74.5 -46t63 -40.5q54 -32 152 -57q1 0 7.5 -2t9 -3t7 -4t6 -6t1.5 -8zM1098 705q0 70 -8 137
t-25.5 137t-50 128.5t-76.5 105t-109 72.5t-145 26q-90 0 -164 -39t-121.5 -102t-80 -144.5t-46.5 -162.5t-14 -161q0 -84 11.5 -164t41 -162t75 -142.5t120 -99t168.5 -38.5q91 0 165 39t121 101.5t79 144t45.5 162.5t13.5 162z" />
    <glyph glyph-name="R" unicode="R" horiz-adv-x="1085" 
d="M1001 12q0 -12 -20 -12h-92q-36 0 -53 33l-314 571h-221v-567q0 -37 -33 -37h-78q-32 0 -32 37v1333q0 37 32 37h287q484 0 484 -399q0 -145 -86 -245t-216 -136l334 -590q8 -13 8 -25zM811 1008q0 154 -91.5 221t-270.5 67h-148v-581h176q147 0 240.5 76.5t93.5 216.5z
" />
    <glyph glyph-name="S" unicode="S" horiz-adv-x="995" 
d="M911 365q0 -125 -65.5 -213.5t-167.5 -129t-227 -40.5q-157 0 -318 53q-27 9 -27 28q0 6 3 15l20 67q6 19 23 19q4 0 20 -4q158 -58 283 -58q84 0 152.5 24.5t115.5 83.5t47 146q0 88 -52 149.5t-147 115.5l-254 143q-217 123 -217 319q0 82 35 149.5t93.5 109.5
t131.5 65t152 23q167 0 301 -56q27 -12 27 -31q0 -8 -2 -14l-21 -57q-6 -19 -24 -19q-7 0 -19 4q-144 58 -254 58q-118 0 -194 -58q-80 -60 -80 -149q0 -83 44 -139.5t126 -102.5l213 -121q53 -30 91.5 -56t76.5 -61t61.5 -72t38 -86t14.5 -105z" />
    <glyph glyph-name="T" unicode="T" horiz-adv-x="1087" 
d="M1053 1384l-11 -61q-2 -13 -8 -19t-13 -7t-22 -1h-395v-1259q0 -37 -33 -37h-75q-33 0 -33 37v1259h-402q-16 0 -21 4t-5 19v63q0 15 4.5 20t17.5 5h967q29 0 29 -16v-7z" />
    <glyph glyph-name="U" unicode="U" horiz-adv-x="1394" 
d="M1237 608q0 -302 -127 -461q-133 -165 -408 -165q-328 0 -450 190q-94 145 -94 455v743q0 37 32 37h78q33 0 33 -37v-727q0 -229 43 -336q39 -100 123.5 -152.5t232.5 -52.5q138 0 224.5 53.5t124.5 145.5q47 116 47 344v725q0 37 32 37h76q33 0 33 -37v-762z" />
    <glyph glyph-name="V" unicode="V" horiz-adv-x="1191" 
d="M1155 1386q0 -4 -4 -16l-467 -1335q-7 -20 -17.5 -27.5t-29.5 -7.5h-74q-19 0 -27.5 7.5t-17.5 31.5l-477 1323q-6 15 -6 27q0 18 26 18h86q28 0 39.5 -7t18.5 -30l405 -1159h2l394 1157q9 26 18.5 32.5t34.5 6.5h63q33 0 33 -21z" />
    <glyph glyph-name="W" unicode="W" horiz-adv-x="1767" 
d="M1729 1386q0 -7 -3 -16l-397 -1335q-6 -20 -16 -27.5t-29 -7.5h-74q-20 0 -29.5 7t-15.5 32l-284 1137h-2l-289 -1141q-7 -35 -47 -35h-72q-20 0 -29 7t-16 32l-385 1323q-4 10 -4 27q0 18 24 18h86q29 0 40.5 -7t17.5 -30l311 -1159h2l285 1157q6 25 16.5 32t36.5 7h62
q34 0 43 -37l296 -1159h3l319 1157q7 25 17 32t36 7h64q33 0 33 -21z" />
    <glyph glyph-name="X" unicode="X" horiz-adv-x="1091" 
d="M1051 20q0 -20 -29 -20h-76q-45 0 -67 37l-336 579l-336 -575q-14 -25 -26.5 -33t-39.5 -8h-71q-29 0 -29 14q0 10 10 27l424 690l-385 643q-4 6 -4 15q0 18 20 18h95q18 0 26 -5.5t19 -23.5l307 -518l299 518q10 18 18.5 23.5t26.5 5.5h90q21 0 21 -14q0 -9 -7 -19
l-380 -626l417 -695q13 -23 13 -33z" />
    <glyph glyph-name="Y" unicode="Y" horiz-adv-x="1069" 
d="M1034 1393q0 -8 -10 -31l-410 -821v-510q0 -19 -5.5 -25t-20.5 -6h-88q-15 0 -21 7t-6 26v506l-434 831q-6 12 -6 19q0 18 30 18h68q26 0 39.5 -7t22.5 -26l360 -712h2l344 706q12 27 21 33t36 6h50q28 0 28 -14z" />
    <glyph glyph-name="Z" unicode="Z" horiz-adv-x="1046" 
d="M999 27q0 -16 -5 -21.5t-23 -5.5h-908q-24 0 -24 23v34q0 22 14 45l758 1194h-657q-27 0 -33 4.5t-6 20.5v61q0 16 4 20.5t22 4.5h815q19 0 26 -5t7 -20v-26q0 -28 -14 -51l-762 -1194h756q18 0 24 -4.5t6 -18.5v-61z" />
    <glyph glyph-name="bracketleft" unicode="[" horiz-adv-x="589" 
d="M559 -262q0 -33 -35 -33h-317q-33 0 -33 37v1649q0 39 37 39h313q35 0 35 -33v-45q0 -33 -35 -33h-219v-1503h219q35 0 35 -33v-45z" />
    <glyph glyph-name="backslash" unicode="\" horiz-adv-x="710" 
d="M623 -10q0 -17 -25 -17h-55q-21 0 -29 7.5t-14 29.5l-400 1391q-4 20 -4 22q0 17 31 17h41q25 0 36.5 -7.5t18.5 -33.5l395 -1387q1 -4 3 -11.5t2 -10.5z" />
    <glyph glyph-name="bracketright" unicode="]" horiz-adv-x="589" 
d="M416 -256q0 -39 -37 -39h-311q-37 0 -37 33v45q0 33 37 33h219v1503h-219q-37 0 -37 33v45q0 33 37 33h315q33 0 33 -37v-1649z" />
    <glyph glyph-name="asciicircum" unicode="^" horiz-adv-x="1095" 
d="M956 831q0 -8 -16 -18l-51 -27q-13 -8 -25 -8t-26 21l-291 448l-295 -440q-15 -21 -27 -21q-7 0 -18 7l-51 36q-17 14 -17 23q0 7 11 25l350 497q22 33 41 33h22q23 0 39 -25l346 -532q8 -16 8 -19z" />
    <glyph glyph-name="underscore" unicode="_" horiz-adv-x="1044" 
d="M1034 -246q0 -24 -6.5 -31.5t-28.5 -7.5h-948q-25 0 -33 6.5t-8 24.5v53q0 19 7 25t28 6h948q27 0 34 -6.5t7 -28.5v-41z" />
    <glyph glyph-name="grave" unicode="`" 
d="M520 1223q0 -7 -6 -19l-18 -28q-9 -15 -25 -15q-4 0 -16 4l-324 152q-18 9 -18 24q0 11 6 23l35 55q13 19 26 19q14 0 25 -8l301 -185q14 -8 14 -22z" />
    <glyph glyph-name="a" unicode="a" horiz-adv-x="1062" 
d="M1008 20q0 -12 -5.5 -16t-19.5 -4h-78q-57 0 -85.5 41.5t-28.5 105.5v27q-31 -77 -124 -134.5t-192 -57.5q-81 0 -148 27t-113 74t-77.5 110.5t-46 134.5t-14.5 149q0 123 34 224t93 168t137.5 103t167.5 36q78 0 154.5 -33t125.5 -96l3 75q0 33 36 33h62q31 0 31 -37
v-719q0 -96 8 -112q11 -25 43 -25h14q13 0 18 -4.5t5 -17.5v-52zM788 340v393q-39 81 -113.5 126.5t-158.5 45.5q-135 0 -220 -113.5t-85 -306.5q0 -186 79 -289.5t195 -103.5q106 0 188 73t115 175z" />
    <glyph glyph-name="b" unicode="b" horiz-adv-x="1075" 
d="M991 498q0 -107 -27.5 -199t-80.5 -163.5t-140 -112.5t-198 -41q-82 0 -158.5 37.5t-124.5 95.5l-2 -78q0 -21 -8.5 -29t-30.5 -8h-51q-18 0 -25.5 6.5t-7.5 24.5v1374q0 19 5 26.5t22 10.5l72 10h2h6q24 0 24 -33v-540q50 54 132.5 91.5t177.5 37.5q85 0 154.5 -27
t117 -73.5t79.5 -111.5t47 -139.5t15 -158.5zM856 487q0 195 -74.5 305.5t-224.5 110.5q-76 0 -156 -40.5t-133 -100.5v-520q46 -71 118 -114.5t153 -43.5q157 0 237 113.5t80 289.5z" />
    <glyph glyph-name="c" unicode="c" horiz-adv-x="864" 
d="M838 61q0 -13 -21 -22q-120 -57 -264 -57q-157 0 -264.5 67.5t-156 181.5t-48.5 267q0 146 55.5 261t165 182t256.5 67q64 0 136 -17.5t120 -44.5q19 -10 19 -22q0 -2 -5 -17l-12 -37q-9 -22 -20 -22q-3 0 -15 4q-117 55 -225 55q-154 0 -247 -110t-93 -295
q0 -67 11 -126.5t36 -114.5t63 -94.5t95 -63t129 -23.5q127 0 238 49q12 4 14 4q16 0 20 -18l11 -37q2 -6 2 -17z" />
    <glyph glyph-name="d" unicode="d" horiz-adv-x="1077" 
d="M940 37q0 -17 -7 -27t-18 -10h-59q-22 0 -30.5 8t-8.5 29l-2 86q-54 -65 -138.5 -103t-176.5 -38q-86 0 -156.5 27.5t-118 75t-80 113t-47 139t-14.5 155.5q0 231 124.5 373.5t321.5 142.5q76 0 155.5 -33.5t123.5 -91.5v80v442q0 20 5 28t22 9l73 10h2h7q22 0 22 -33
v-452v-930zM809 240v497q-35 71 -110 119.5t-158 48.5q-148 0 -235 -108.5t-87 -300.5q0 -187 81 -299.5t220 -112.5q81 0 163.5 45.5t125.5 110.5z" />
    <glyph glyph-name="e" unicode="e" horiz-adv-x="997" 
d="M926 545q0 -35 -10.5 -45.5t-47.5 -10.5h-180h-469q0 -83 21 -154t62 -126t108 -86t153 -31q66 0 138 13.5t118 33.5q12 4 15 4q16 0 20 -18l10 -47q2 -6 2 -17q0 -13 -20 -22q-58 -27 -141 -42t-154 -15q-228 0 -347.5 139.5t-119.5 374.5q0 143 54.5 258.5t160.5 184.5
t246 69q177 0 279 -119.5t102 -304.5v-39zM795 623q0 124 -65.5 204t-188.5 80q-137 0 -220 -94t-98 -231h570q2 14 2 41z" />
    <glyph glyph-name="f" unicode="f" horiz-adv-x="698" 
d="M688 1413q0 -1 -1 -3.5t-1 -4.5l-14 -55q-4 -13 -15 -13l-16 4q-60 25 -133 25q-109 0 -152 -67.5t-43 -213.5v-98h267q14 0 19 -4t5 -16v-54q0 -13 -5 -17.5t-17 -4.5h-269v-854q0 -37 -32 -37h-66q-33 0 -33 37v854h-125q-11 0 -14.5 3.5t-3.5 16.5v56q0 12 4.5 16
t17.5 4h121v29q0 112 6 162q14 137 95 213.5t215 76.5q84 0 168 -30q22 -9 22 -25z" />
    <glyph glyph-name="g" unicode="g" horiz-adv-x="1077" 
d="M942 45q0 -279 -135 -397q-117 -99 -311 -99q-65 0 -143.5 20.5t-141.5 51.5q-21 11 -21 25q0 6 3 12l20 53q8 19 20 19q13 0 19 -4q147 -66 244 -66q158 0 231 76q84 87 84 295v100q-51 -61 -136.5 -96t-170.5 -35q-107 0 -189 40t-131 110t-73.5 157.5t-24.5 190.5
q0 104 29 195.5t83.5 162t140 111.5t191.5 41q82 0 157.5 -32t123.5 -93l2 71q0 19 9 26t28 7h61q31 0 31 -37v-694v-211zM811 254v483q-36 72 -113 120t-161 48q-150 0 -233 -109.5t-83 -289.5q0 -59 9 -114t30.5 -108t54 -91.5t84.5 -62.5t117 -24q83 0 168 42t127 106z
" />
    <glyph glyph-name="h" unicode="h" horiz-adv-x="1071" 
d="M934 37q0 -37 -33 -37h-65q-33 0 -33 37v584q0 136 -48.5 210t-176.5 74q-75 0 -162.5 -38t-147.5 -93v-737q0 -37 -32 -37h-66q-33 0 -33 37v1368q0 19 5 26.5t22 10.5l72 10h2h6q24 0 24 -33v-538q69 61 160 94t182 33q172 0 248 -96t76 -273v-602z" />
    <glyph glyph-name="i" unicode="i" horiz-adv-x="450" 
d="M309 1217q0 -35 -25 -57.5t-61 -22.5t-60 22.5t-24 57.5t24 57t60 22t61 -22t25 -57zM289 37q0 -37 -33 -37h-66q-32 0 -32 37v913q0 37 32 37h66q33 0 33 -37v-913z" />
    <glyph glyph-name="j" unicode="j" horiz-adv-x="503" 
d="M367 1217q0 -35 -24 -57.5t-60 -22.5t-60 22.5t-24 57.5t24 57t60 22t60 -22t24 -57zM346 53q0 -142 -21 -240t-73 -159q-44 -54 -102 -79.5t-154 -25.5q-37 0 -100 13q-19 3 -19 22v8l8 52q2 14 17 14h6q49 -8 96 -8q95 0 148 65q36 44 49.5 121t13.5 195v919
q0 37 33 37h67q31 0 31 -37v-897z" />
    <glyph glyph-name="k" unicode="k" horiz-adv-x="849" 
d="M819 16q0 -16 -28 -16h-76q-38 0 -58 29l-329 477l-60 -62v-407q0 -37 -32 -37h-66q-33 0 -33 37v1368q0 19 5 26.5t22 10.5l72 10h2h6q24 0 24 -33v-827h4l346 375q17 20 37 20h103q14 0 14 -10q0 -2 -8 -14l-342 -369l387 -551q10 -13 10 -27z" />
    <glyph glyph-name="l" unicode="l" horiz-adv-x="407" 
d="M268 37q0 -37 -32 -37h-66q-33 0 -33 37v1368q0 19 5 26.5t22 10.5l72 10h2h6q24 0 24 -33v-1382z" />
    <glyph glyph-name="m" unicode="m" horiz-adv-x="1665" 
d="M1528 37q0 -37 -33 -37h-65q-33 0 -33 37v584q0 139 -51.5 211.5t-184.5 72.5q-64 0 -136.5 -28t-133.5 -72q20 -70 20 -166v-602q0 -37 -32 -37h-66q-33 0 -33 37v584q0 65 -9.5 112.5t-33 88.5t-68.5 62t-112 21q-73 0 -149.5 -36t-139.5 -95v-737q0 -37 -32 -37h-66
q-33 0 -33 37v913q0 37 33 37h63q33 0 33 -37l2 -69q65 61 148.5 94t169.5 33q85 0 157.5 -30t112.5 -95q69 60 158.5 92.5t179.5 32.5q334 0 334 -369v-602z" />
    <glyph glyph-name="n" unicode="n" horiz-adv-x="1071" 
d="M934 37q0 -37 -33 -37h-65q-33 0 -33 37v584q0 66 -9.5 114t-33.5 88.5t-70.5 61t-114.5 20.5q-75 0 -161 -37.5t-146 -93.5v-737q0 -37 -32 -37h-66q-33 0 -33 37v913q0 37 33 37h63q33 0 33 -37l2 -69q69 61 160 94t182 33q172 0 248 -96t76 -273v-602z" />
    <glyph glyph-name="o" unicode="o" horiz-adv-x="1069" 
d="M985 496q0 -146 -52 -261t-157.5 -184t-249.5 -69q-112 0 -198 39.5t-138.5 109.5t-79 162t-26.5 203q0 108 30 200.5t86.5 162t143.5 109.5t195 40q221 0 333.5 -140t112.5 -372zM850 492q0 64 -9.5 121.5t-33 112t-58 94t-88.5 63.5t-122 24q-71 0 -127 -24.5
t-91.5 -64t-59 -93.5t-33 -109.5t-9.5 -115.5q0 -64 9 -121.5t31 -113t56 -96t89 -65t124 -24.5t124.5 23.5t92 62.5t60.5 92.5t34.5 111.5t10.5 122z" />
    <glyph glyph-name="p" unicode="p" horiz-adv-x="1075" 
d="M991 500q0 -105 -28.5 -197.5t-82.5 -164.5t-139.5 -114t-191.5 -42q-81 0 -158 33t-125 94v-517q0 -32 -39 -32h-59q-33 0 -33 37v1163v196q0 18 7.5 24.5t25.5 6.5h51q22 0 31.5 -8t9.5 -29v-80q52 63 138.5 100.5t176.5 37.5q187 0 301.5 -131t114.5 -377zM856 500
q0 201 -82 303t-219 102q-82 0 -164 -43t-125 -108v-502q36 -71 113.5 -119.5t161.5 -48.5q150 0 232.5 113.5t82.5 302.5z" />
    <glyph glyph-name="q" unicode="q" horiz-adv-x="1077" 
d="M940 -403q0 -21 -4.5 -29t-20.5 -8h-73q-19 0 -26 6.5t-7 25.5v531q-56 -66 -139.5 -103.5t-175.5 -37.5q-86 0 -155.5 27.5t-116.5 75t-78.5 113t-45.5 139t-14 155.5q0 104 29 196.5t83.5 164t140 113.5t191.5 42q82 0 157.5 -32t123.5 -93l2 71q0 19 9 26t28 7h61
q31 0 31 -37v-1194v-159zM809 246v489q-36 72 -112.5 121t-159.5 49q-84 0 -147.5 -34t-99.5 -93t-53.5 -129.5t-17.5 -152.5q0 -188 78 -299t217 -111q83 0 167 47t128 113z" />
    <glyph glyph-name="r" unicode="r" horiz-adv-x="600" 
d="M573 979l-10 -68q-3 -16 -16 -16h-4q-40 8 -66 8q-55 0 -112 -37.5t-97 -99.5v-729q0 -37 -32 -37h-66q-33 0 -33 37v913q0 37 33 37h63q33 0 33 -37l2 -71q35 52 97 90.5t133 38.5q24 0 59 -7q16 -3 16 -18v-4z" />
    <glyph glyph-name="s" unicode="s" horiz-adv-x="770" 
d="M709 281q0 -131 -99 -215t-264 -84q-70 0 -142 18.5t-118 42.5q-18 9 -18 18q0 7 2 11l24 63q5 12 12 12t11 -2q54 -27 118.5 -44t116.5 -17q104 0 166 48t62 132q0 66 -44 108.5t-128 76.5l-123 49q-211 83 -211 247q0 121 94 192t233 71q131 0 248 -56q17 -7 17 -16
q0 -1 -1 -3t-1 -3l-21 -58q-5 -16 -16 -16q-3 0 -15 4q-40 20 -101 34.5t-110 14.5q-89 0 -140.5 -41t-51.5 -106q0 -61 33.5 -95.5t109.5 -66.5l146 -61q211 -88 211 -258z" />
    <glyph glyph-name="t" unicode="t" horiz-adv-x="669" 
d="M639 35q0 -14 -21 -23q-84 -30 -167 -30q-64 0 -121.5 17.5t-89.5 51.5q-39 40 -50.5 98.5t-11.5 157.5v584h-121q-13 0 -17.5 4t-4.5 16v56q0 13 3.5 16.5t14.5 3.5h125v240q0 19 5 26.5t22 10.5l71 10h3h6q24 0 24 -33v-254h248q13 0 18 -4.5t5 -17.5v-54
q0 -12 -5.5 -16t-19.5 -4h-246v-604q0 -123 41 -164q39 -39 121 -39q47 0 127 22q9 3 16 3q6 0 9 -2.5t4 -4.5t2 -8l10 -51v-8z" />
    <glyph glyph-name="u" unicode="u" horiz-adv-x="1050" 
d="M913 37q0 -37 -32 -37h-64q-33 0 -33 37l-2 72q-142 -127 -321 -127q-148 0 -232 81q-92 92 -92 291v596q0 37 33 37h66q32 0 32 -37v-577q0 -158 60 -226q52 -59 166 -59q70 0 152 40.5t136 94.5v727q0 37 33 37h66q32 0 32 -37v-913z" />
    <glyph glyph-name="v" unicode="v" horiz-adv-x="886" 
d="M852 967q0 -7 -2 -11l-330 -927q-12 -29 -39 -29h-80q-33 0 -43 29l-325 925q-2 4 -2 11q0 22 28 22h72q21 0 29.5 -4.5t13.5 -17.5l275 -811h4l268 804q9 29 43 29h61q27 0 27 -20z" />
    <glyph glyph-name="w" unicode="w" horiz-adv-x="1374" 
d="M1339 969q0 -9 -2 -13l-276 -927q-8 -29 -41 -29h-84q-35 0 -41 29l-211 749l-209 -749q-8 -29 -41 -29h-82q-33 0 -43 29l-276 925q0 2 -1 6t-1 5q0 22 28 22h72q21 0 30.5 -5t12.5 -17l225 -809h4l228 807q8 24 33 24h65q20 0 25 -20l235 -811h4l217 802q9 29 43 29h62
q24 0 24 -18z" />
    <glyph glyph-name="x" unicode="x" horiz-adv-x="899" 
d="M864 8q0 -8 -12 -8h-121q-23 0 -37 20l-252 392l-264 -394q-12 -18 -39 -18h-94q-14 0 -14 8q0 4 4 12l344 488l-299 455q-6 9 -6 14q0 10 14 10h113q22 0 32 -16l226 -348l233 342q16 22 37 22h94q15 0 15 -10q0 -3 -7 -14l-309 -437l332 -493q10 -17 10 -25z" />
    <glyph glyph-name="y" unicode="y" horiz-adv-x="952" 
d="M932 971q0 -5 -4 -17l-400 -1077q-68 -183 -152.5 -255.5t-236.5 -72.5q-21 0 -82 9q-20 3 -20 22v6l10 66q2 22 23 22h6q60 -6 76 -6q160 0 223 158l63 156l-362 976q-2 4 -2 13q0 16 18 16h96q26 0 33 -22l289 -820l285 820q8 22 32 22h80q25 0 25 -16z" />
    <glyph glyph-name="z" unicode="z" horiz-adv-x="782" 
d="M743 25q0 -25 -20 -25h-651q-13 0 -21 9t-8 20v30q0 26 18 56l508 776h-460q-27 0 -27 24v48q0 24 27 24h581q31 0 31 -26v-33q0 -18 -16 -45l-521 -787h535q24 0 24 -24v-47z" />
    <glyph glyph-name="braceleft" unicode="{" horiz-adv-x="632" 
d="M602 -256q0 -18 -37 -18h-106q-125 0 -200.5 75.5t-78.5 212.5l-6 310q-1 55 -4 88t-12.5 64t-28 46t-47.5 19q-23 3 -29 8t-6 20v25q0 18 6.5 25t24.5 8q29 3 48.5 19t29 45t13.5 61t5 77l6 324q3 136 80.5 212.5t198.5 76.5h119q24 0 24 -15q0 -1 -1 -4.5t-1 -5.5
l-10 -43q-5 -24 -29 -24h-117q-41 0 -71.5 -22.5t-45.5 -57.5t-22 -65t-8 -56l-6 -272q-3 -146 -28 -216.5t-87 -74.5v-2q63 -4 86.5 -70t28.5 -235l6 -261q1 -26 8 -56t22 -64.5t45.5 -57t71.5 -22.5h109q28 0 33 -19l14 -47q0 -1 1 -4t1 -4z" />
    <glyph glyph-name="bar" unicode="|" horiz-adv-x="387" 
d="M256 -2q0 -37 -33 -37h-59q-33 0 -33 37v1415q0 20 5.5 28.5t21.5 8.5h65q19 0 26 -6.5t7 -26.5v-1419z" />
    <glyph glyph-name="braceright" unicode="}" horiz-adv-x="632" 
d="M586 573q0 -18 -5.5 -24.5t-23.5 -7.5q-55 -6 -75.5 -57.5t-22.5 -145.5l-6 -324q-3 -136 -80.5 -212t-198.5 -76h-119q-24 0 -24 14q0 1 1 4.5t1 5.5l10 43q6 25 29 25h116q41 0 71.5 22.5t46 57t22.5 64.5t8 56l6 275q3 146 28 215.5t87 73.5v2q-63 4 -86.5 71
t-28.5 236l-6 258q-1 26 -8 56t-22.5 65t-46 57.5t-71.5 22.5h-108q-28 0 -33 18l-14 47q0 1 -1 4t-1 4q0 19 37 19h106q125 0 200.5 -76t78.5 -213l6 -309q2 -108 20 -159t74 -58q15 -2 23 -7.5t9 -9.5t1 -10v-27z" />
    <glyph glyph-name="asciitilde" unicode="~" horiz-adv-x="1095" 
d="M963 621q0 -16 -15 -25q-8 -6 -37 -28.5t-39.5 -30t-36 -23.5t-42 -22t-41.5 -11.5t-50 -5.5q-70 0 -147 43q-96 53 -158 53q-45 0 -172 -67q-26 -15 -28 -15q-8 0 -17 15l-39 55q-8 11 -8 21q0 11 27 28q48 32 72 46t68.5 31t82.5 17q73 0 164 -43q3 -1 34.5 -16t45 -20
t38 -12t42.5 -7q16 0 41 9.5t41.5 18t46 26t34.5 20.5q21 12 29 12q7 0 23 -16l32 -35q9 -9 9 -18z" />
    <glyph glyph-name="nbspace" unicode="&#xa0;" horiz-adv-x="450" 
 />
    <glyph glyph-name="exclamdown" unicode="&#xa1;" horiz-adv-x="540" 
d="M408 905q0 -47 -32.5 -73.5t-76.5 -26.5q-42 0 -73 27.5t-31 72.5t31.5 74t72.5 29t75 -29t34 -74zM371 -391q0 -35 -27 -35h-88q-18 0 -25.5 6.5t-7.5 24.5v2l17 1055q0 19 7.5 26.5t24.5 7.5h50q17 0 24.5 -7.5t7.5 -26.5l17 -1051v-2z" />
    <glyph glyph-name="cent" unicode="&#xa2;" horiz-adv-x="1105" 
d="M938 61q0 -13 -20 -22q-110 -54 -250 -57v-136q0 -19 -1.5 -26.5t-10 -12t-27.5 -4.5h-23q-18 0 -26 5.5t-9.5 12.5t-1.5 25v142q-129 17 -216.5 87.5t-128 177t-40.5 245.5q0 198 102.5 334.5t282.5 166.5v170q0 33 31 33h33q21 0 28 -7t7 -28v-159q63 -2 133 -19
t117 -43q18 -9 18 -22q0 -5 -4 -17l-12 -37q-9 -22 -21 -22q-2 0 -14 4q-106 52 -217 55v-827q122 3 223 49q12 4 14 4q17 0 21 -18l10 -37q2 -6 2 -17zM569 88v809q-116 -31 -183 -135t-67 -260q0 -73 14 -138.5t42.5 -122.5t78 -97t115.5 -56z" />
    <glyph glyph-name="sterling" unicode="&#xa3;" horiz-adv-x="1105" 
d="M1004 29q0 -16 -7 -22.5t-28 -6.5h-783q-22 0 -29 6t-7 25v37q0 17 6 26.5t28 20.5q146 79 146 301v76h-109q-21 0 -26 5t-5 27v43q0 21 7.5 28t27.5 7h105v98h-109q-20 0 -25.5 5.5t-5.5 27.5v43q0 21 7.5 28t27.5 7h105v180q0 204 94.5 321.5t284.5 117.5
q133 0 237 -44q25 -11 25 -30q0 -9 -2 -13l-11 -45q-6 -22 -24 -22q-10 0 -14 2q-106 41 -209 41q-238 0 -238 -318v-190h340q17 0 23 -7t6 -26v-49q0 -20 -6 -24.5t-27 -4.5h-338v-98h342q17 0 23 -7t6 -26v-49q0 -19 -6 -23.5t-27 -4.5h-338v-121q0 -169 -115 -254v-6h611
q21 0 29 -6t8 -21v-55z" />
    <glyph glyph-name="yen" unicode="&#xa5;" horiz-adv-x="1105" 
d="M1042 1391q0 -8 -10 -31l-358 -707h196q17 0 23 -6.5t6 -25.5v-50q0 -20 -6 -25t-27 -5h-229v-97h233q17 0 23 -6.5t6 -25.5v-50q0 -20 -6 -25t-27 -5h-229v-301q0 -19 -5 -25t-20 -6h-90q-15 0 -20.5 7t-5.5 26v299h-217q-20 0 -25.5 6.5t-5.5 28.5v43q0 21 7.5 27.5
t27.5 6.5h213v97h-217q-20 0 -25.5 6t-5.5 28v43q0 21 7.5 28t27.5 7h174l-373 715q-6 12 -6 21q0 16 28 16h78q26 0 39.5 -7t22.5 -26l334 -663h2l317 657q12 27 21 33t36 6h58q28 0 28 -14z" />
    <glyph glyph-name="brokenbar" unicode="&#xa6;" horiz-adv-x="387" 
d="M256 944q0 -37 -33 -37h-59q-33 0 -33 37v469q0 20 5.5 28.5t21.5 8.5h65q19 0 26 -6.5t7 -26.5v-473zM256 -2q0 -37 -33 -37h-59q-33 0 -33 37v469q0 20 5.5 28.5t21.5 8.5h65q19 0 26 -6.5t7 -26.5v-473z" />
    <glyph glyph-name="section" unicode="&#xa7;" horiz-adv-x="950" 
d="M817 696q0 -144 -110 -225q98 -81 98 -192q0 -130 -98.5 -213.5t-262.5 -83.5q-63 0 -137.5 14.5t-124.5 36.5q-18 6 -18 18q0 6 2 10l20 62q5 12 15 12q6 0 10 -2q49 -20 118.5 -35.5t119.5 -15.5q100 0 164.5 49t64.5 131q0 64 -44.5 107.5t-127.5 79.5l-125 53
q-211 89 -211 250q0 71 35.5 126.5t97.5 88.5q-121 80 -121 202q0 121 96.5 191t237.5 70q118 0 240 -46q16 -6 16 -16q0 -1 -1 -3t-1 -3l-18 -55q-6 -17 -17 -17q-2 0 -14 4q-112 39 -203 39q-89 0 -145 -42t-56 -105q0 -57 36 -95t110 -71l143 -64q211 -94 211 -260z
M690 680q0 64 -44 107t-128 79l-92 39q-55 -17 -87 -54t-32 -83q0 -57 34.5 -93t109.5 -71l143 -65l10 -4q86 50 86 145z" />
    <glyph glyph-name="dieresis" unicode="&#xa8;" 
d="M590 1337q0 -40 -29 -65t-65 -25q-37 0 -68 25t-31 65q0 42 30 67.5t69 25.5q38 0 66 -26t28 -67zM238 1337q0 -40 -29 -65t-66 -25t-67.5 25t-30.5 65q0 42 29.5 67.5t68.5 25.5q38 0 66.5 -26t28.5 -67z" />
    <glyph glyph-name="copyright" unicode="&#xa9;" horiz-adv-x="1701" 
d="M1587 709q0 -150 -57.5 -285.5t-155 -234t-234 -156.5t-288.5 -58q-151 0 -287.5 58t-235 156.5t-156.5 234t-58 285.5t57.5 285t156 232.5t235 154.5t288.5 57t288.5 -57t234 -154t155 -232.5t57.5 -285.5zM1483 707q0 171 -83.5 315.5t-229 228.5t-318.5 84t-319 -84
t-230 -228.5t-84 -315.5q0 -128 50 -244.5t134.5 -201t201.5 -134t247 -49.5t247 49.5t201 134t133.5 201t49.5 244.5zM1137 342q0 -2 -0.5 -4.5t-2 -4.5t-2.5 -3t-3.5 -3t-3.5 -2.5t-4.5 -3t-4.5 -2.5q-111 -57 -233 -57q-94 0 -168 36t-118.5 98.5t-67.5 140.5t-23 168
q0 116 42.5 215.5t131.5 165t209 65.5q127 0 225 -59q14 -8 14 -23q0 -4 -4 -16l-14 -29q-5 -12 -20 -12q-11 0 -15 4q-82 51 -178 51q-121 0 -201 -96q-82 -104 -82 -258q0 -70 16 -133.5t48.5 -117t88.5 -85t128 -31.5q103 0 192 47q9 6 17 6q12 0 18 -16l11 -27
q4 -12 4 -14z" />
    <glyph glyph-name="ordfeminine" unicode="&#xaa;" horiz-adv-x="628" 
d="M537 850q0 -15 -4.5 -20t-18.5 -5h-43q-21 0 -24 2.5t-5 20.5l-6 43q-103 -80 -184 -80q-79 0 -126.5 44t-47.5 122q0 51 23 90.5t58.5 62.5t84.5 37.5t95 19.5t97 5q0 21 -4 53q-6 56 -32.5 81.5t-90.5 25.5q-70 0 -155 -45q-15 -9 -21 -9q-7 0 -16 19l-11 20
q-4 12 -4 15t1 5t4 4.5t5 4t7.5 4.5t7.5 4q41 25 94.5 40.5t93.5 15.5q109 0 165.5 -58t56.5 -166v-356zM434 965v159q-100 0 -155 -18q-93 -30 -93 -121q0 -92 99 -92q37 0 77.5 20.5t71.5 51.5z" />
    <glyph glyph-name="guillemotleft" unicode="&#xab;" horiz-adv-x="944" 
d="M786 766q0 -8 -4 -14l-174 -285l172 -295q4 -6 4 -16q0 -12 -12 -19l-35 -20q-9 -6 -14 -6q-11 0 -23 18l-229 311q-10 12 -10 25q0 14 12 29l227 301q11 14 23 14q8 0 14 -4l41 -23q8 -4 8 -16zM438 764q0 -4 -4 -12l-174 -285l172 -295q4 -8 4 -14q0 -13 -14 -21
l-35 -20q-9 -6 -14 -6q-11 0 -23 18l-229 311q-8 10 -8 25q0 17 10 29l227 301q11 14 23 14q8 0 14 -4l41 -23q10 -3 10 -18z" />
    <glyph glyph-name="logicalnot" unicode="&#xac;" horiz-adv-x="1044" 
d="M930 469q0 -27 -6.5 -34t-28.5 -7h-41q-24 0 -31.5 6.5t-7.5 28.5v266h-661q-25 0 -33 6.5t-8 24.5v53q0 19 7 25t27 6h742q27 0 34 -6.5t7 -28.5v-340z" />
    <glyph glyph-name="registered" unicode="&#xae;" horiz-adv-x="1701" 
d="M1587 709q0 -150 -57.5 -285.5t-155 -234t-234 -156.5t-288.5 -58q-151 0 -287.5 58t-235 156.5t-156.5 234t-58 285.5t57.5 285t156 232.5t235 154.5t288.5 57t288.5 -57t234 -154t155 -232.5t57.5 -285.5zM1483 707q0 171 -83.5 315.5t-229 228.5t-318.5 84t-319 -84
t-230 -228.5t-84 -315.5q0 -128 50 -244.5t134.5 -201t201.5 -134t247 -49.5t247 49.5t201 134t133.5 201t49.5 244.5zM1169 293q0 -17 -22 -17h-62q-24 0 -38 25l-211 334h-109v-328q0 -31 -27 -31h-47q-26 0 -26 31v793q0 30 26 30h170q297 0 297 -245q0 -86 -50 -146.5
t-126 -85.5l219 -342q6 -12 6 -18zM1014 885q0 87 -51.5 124.5t-155.5 37.5h-80v-328h96q85 0 138 43.5t53 122.5z" />
    <glyph glyph-name="macron" unicode="&#xaf;" 
d="M578 1341q0 -26 -11.5 -34.5t-48.5 -8.5h-409q-32 0 -43 9t-11 34v48q0 23 10 32t44 9h409q38 0 49 -8t11 -33v-48z" />
    <glyph glyph-name="degree" unicode="&#xb0;" horiz-adv-x="585" 
d="M483 1239q0 -78 -56 -134t-134 -56t-134.5 56t-56.5 134t56.5 134.5t134.5 56.5t134 -56.5t56 -134.5zM383 1239q0 37 -26.5 63.5t-63.5 26.5t-64.5 -26.5t-27.5 -63.5t27.5 -63.5t64.5 -26.5t63.5 26.5t26.5 63.5z" />
    <glyph glyph-name="plusminus" unicode="&#xb1;" horiz-adv-x="1024" 
d="M934 694q0 -24 -6.5 -31.5t-28.5 -7.5h-328v-295q0 -26 -6 -33.5t-24 -7.5h-54q-18 0 -24 7t-6 28v301h-324q-25 0 -33 6.5t-8 24.5v53q0 19 7 25t28 6h330v297q0 27 6.5 34t28.5 7h40q24 0 31.5 -6.5t7.5 -28.5v-303h322q27 0 34 -6.5t7 -28.5v-41zM872 78
q0 -24 -6.5 -31.5t-27.5 -7.5h-643q-25 0 -33 6.5t-8 24.5v53q0 19 7 25t27 6h643q27 0 34 -6.5t7 -28.5v-41z" />
    <glyph glyph-name="twosuperior" unicode="&#xb2;" horiz-adv-x="675" 
d="M590 719q0 -23 -27 -23h-395q-13 0 -18 5.5t-5 19.5v33q0 17 13 30q19 21 70 73t87.5 92.5t77.5 92.5t63.5 101t22.5 92q0 52 -32.5 83.5t-86.5 31.5q-68 0 -139 -41q-6 -4 -16 -4q-12 0 -19 14l-16 35q-4 8 -4 12q0 8 18 20q85 54 187 54q89 0 152 -51.5t63 -143.5
q0 -79 -41 -154t-144 -188q-46 -51 -114 -119h274q19 0 24 -3.5t5 -18.5v-43z" />
    <glyph glyph-name="threesuperior" unicode="&#xb3;" horiz-adv-x="675" 
d="M563 920q0 -101 -70 -164.5t-171 -63.5q-26 0 -79 8t-83 23q-25 13 -25 25q0 8 2 12l15 39q3 10 16 10q2 0 14 -4q66 -29 131 -29t105.5 37.5t40.5 101.5q0 65 -43 101.5t-115 36.5h-35q-28 0 -28 26v31q0 25 26 25h29q66 0 102.5 30t36.5 90q0 53 -32 79t-89 26
q-52 0 -116 -33q-6 -4 -15 -4q-12 0 -18 12l-17 35q-2 4 -2 8q0 12 15 21q74 45 168 45q85 0 149 -49.5t64 -134.5q0 -48 -26.5 -91.5t-68.5 -68.5q54 -23 86.5 -71.5t32.5 -108.5z" />
    <glyph glyph-name="acute" unicode="&#xb4;" 
d="M522 1333q0 -15 -18 -24l-324 -152q-12 -4 -16 -4q-17 0 -25 14l-18 29q-6 12 -6 18q0 15 14 23l301 184q12 9 25 9t26 -19l35 -55q6 -12 6 -23z" />
    <glyph glyph-name="mu" unicode="&#xb5;" horiz-adv-x="1050" 
d="M913 37q0 -37 -32 -37h-64q-33 0 -33 37l-2 63q-129 -129 -301 -129q-156 0 -213 70v-346q0 -35 -32 -35h-66q-33 0 -33 35v1255q0 37 33 37h66q32 0 32 -37v-588q0 -157 60 -225q54 -61 168 -61q73 0 148.5 36t137.5 93v745q0 37 33 37h66q32 0 32 -37v-913z" />
    <glyph glyph-name="paragraph" unicode="&#xb6;" horiz-adv-x="1044" 
d="M866 -252q0 -37 -32 -37h-60q-33 0 -33 37v1561h-184v-1561q0 -37 -33 -37h-57q-33 0 -33 37v1022q-141 1 -235.5 93.5t-94.5 226.5q0 131 91.5 224t224.5 93h414q19 0 25.5 -6.5t6.5 -26.5v-1626z" />
    <glyph glyph-name="periodcentered" unicode="&#xb7;" horiz-adv-x="419" 
d="M328 590q0 -45 -33 -73t-74 -28t-74.5 28t-33.5 73q0 47 32 74.5t76 27.5q42 0 74.5 -28.5t32.5 -73.5z" />
    <glyph glyph-name="cedilla" unicode="&#xb8;" 
d="M512 -248q0 -67 -47 -112.5t-141 -45.5q-58 0 -125 25q-29 12 -29 25q0 6 2 10l8 24q6 17 17 17q2 0 18 -4q58 -21 109 -21q35 0 62 18.5t30 53.5v8q0 74 -109 74h-33q-29 0 -40 11.5t-11 35.5q0 19 2 29l11 100h88l-7 -102h17q46 0 84 -12t66 -46.5t28 -87.5z" />
    <glyph glyph-name="onesuperior" unicode="&#xb9;" horiz-adv-x="675" 
d="M406 741q0 -11 -1 -15.5t-6.5 -8.5t-17.5 -4h-47q-16 0 -20.5 6.5t-4.5 21.5v586l-121 -76q-11 -8 -18 -8t-12 8l-27 37q-6 9 -6 15q0 12 16 20l168 111q17 10 41 10h29q17 0 22 -6.5t5 -22.5v-674z" />
    <glyph glyph-name="ordmasculine" unicode="&#xba;" horiz-adv-x="684" 
d="M612 1116q0 -133 -72.5 -222t-201.5 -89q-133 0 -199.5 86.5t-66.5 224.5q0 134 73 224t201 90q133 0 199.5 -87.5t66.5 -226.5zM520 1114q0 46 -9.5 87.5t-29 78t-55 58.5t-82.5 22q-49 0 -85.5 -21.5t-56 -58t-29 -77t-9.5 -85.5q0 -66 14.5 -118t55 -90t104.5 -38
q48 0 84.5 20.5t57 55.5t30.5 77t10 89z" />
    <glyph glyph-name="guillemotright" unicode="&#xbb;" horiz-adv-x="944" 
d="M831 457q0 -17 -10 -29l-227 -301q-11 -14 -23 -14q-8 0 -14 4l-41 22q-10 3 -10 19q0 4 4 12l176 287l-172 293q-4 6 -4 16q0 11 12 18l35 21q9 6 14 6q11 0 23 -18l229 -312q8 -10 8 -24zM483 457q0 -17 -10 -29l-229 -301q-11 -14 -21 -14q-8 0 -14 4l-41 22
q-10 3 -10 19q0 4 4 12l174 287l-172 293q-4 8 -4 14q0 12 14 20l35 21q9 6 14 6q9 0 21 -18l229 -312q10 -13 10 -24z" />
    <glyph glyph-name="onequarter" unicode="&#xbc;" horiz-adv-x="1536" 
d="M1393 10q0 -15 -3 -19.5t-16 -4.5h-57q-13 0 -17 4.5t-4 19.5v146h-331q-16 0 -20.5 5t-4.5 21v19q0 24 10 49l197 442q1 4 4.5 9.5t11.5 11.5t17 6h43q28 0 28 -17q0 -8 -6 -20l-192 -438h243v153q0 18 4 24.5t17 6.5h53q14 0 18.5 -5t4.5 -22v-391zM1251 1450
q0 -15 -12 -33l-877 -1442q-11 -20 -19 -26t-28 -6h-67q-9 0 -16 6.5t-7 15.5q0 10 6 19l879 1443q14 24 26.5 32.5t39.5 8.5h49q26 0 26 -18zM397 741q0 -12 -0.5 -16t-6 -8t-17.5 -4h-47q-16 0 -20.5 6.5t-4.5 21.5v586l-121 -76q-11 -8 -18 -8t-12 8l-27 37q-6 9 -6 15
q0 12 16 20l168 111q17 10 41 10h29q17 0 21.5 -6.5t4.5 -22.5v-674z" />
    <glyph glyph-name="onehalf" unicode="&#xbd;" horiz-adv-x="1536" 
d="M1384 8q0 -22 -26 -22h-395q-13 0 -18 5t-5 19v33q0 17 14 31q19 21 70 73t87.5 92t77.5 92t63 101t22 92q0 52 -32.5 83.5t-86.5 31.5q-68 0 -139 -41q-6 -4 -17 -4t-18 14l-16 35q-2 4 -2 12q0 10 16 21q83 53 186 53q89 0 152 -51t63 -143q0 -79 -40.5 -154
t-143.5 -188q-37 -41 -115 -119h275q19 0 23.5 -4t4.5 -19v-43zM1225 1450q0 -14 -13 -33l-876 -1442q-11 -20 -19 -26t-28 -6h-68q-9 0 -15.5 6.5t-6.5 15.5q0 10 6 19l878 1443q14 24 26.5 32.5t39.5 8.5h49q27 0 27 -18zM371 741q0 -11 -1 -15.5t-6.5 -8.5t-17.5 -4h-47
q-16 0 -20.5 6.5t-4.5 21.5v586l-120 -76q-11 -8 -19 -8q-7 0 -12 8l-27 37q-6 9 -6 15q0 12 16 20l168 111q17 10 41 10h29q17 0 22 -6.5t5 -22.5v-674z" />
    <glyph glyph-name="threequarters" unicode="&#xbe;" horiz-adv-x="1536" 
d="M1411 10q0 -15 -2.5 -19.5t-15.5 -4.5h-58q-13 0 -16.5 4.5t-3.5 19.5v146h-332q-16 0 -20.5 5t-4.5 21v19q0 21 11 49l196 442q1 4 4.5 9.5t11.5 11.5t17 6h43q29 0 29 -17q0 -8 -6 -20l-193 -438h244v153q0 18 3.5 24.5t16.5 6.5h54q14 0 18 -5t4 -22v-391zM1270 1450
q0 -14 -13 -33l-876 -1442q-11 -20 -19 -26t-28 -6h-68q-9 0 -15.5 6.5t-6.5 15.5q0 10 6 19l878 1443q14 24 26.5 32.5t39.5 8.5h49q27 0 27 -18zM545 920q0 -100 -70.5 -164t-171.5 -64q-26 0 -79 8t-83 23q-24 12 -24 25q0 8 2 12l14 39q3 10 17 10q2 0 14 -4
q66 -29 131 -29t105 37.5t40 101.5q0 65 -42.5 101.5t-114.5 36.5h-35q-29 0 -29 26v31q0 25 27 25h28q66 0 103 30t37 90q0 53 -32 79t-89 26q-53 0 -117 -33q-6 -4 -14 -4q-13 0 -19 12l-16 35q-2 4 -2 8q0 13 14 21q74 45 168 45q85 0 149 -49.5t64 -134.5q0 -49 -26 -92
t-68 -68q54 -23 86.5 -71.5t32.5 -108.5z" />
    <glyph glyph-name="questiondown" unicode="&#xbf;" horiz-adv-x="833" 
d="M631 905q0 -47 -31.5 -73.5t-75.5 -26.5q-42 0 -75 27.5t-33 72.5t33.5 74t74.5 29t74 -29t33 -74zM741 -365q0 -15 -14 -22q-121 -62 -264 -62t-244.5 87t-101.5 227q0 73 31.5 148t87.5 137l149 165q27 29 41 48t30.5 50.5t23.5 70.5t7 91q0 22 4 29.5t17 7.5h55
q15 0 20.5 -5.5t8.5 -24.5q6 -46 6 -95q0 -46 -25 -103.5t-61 -96.5l-147 -160q-117 -128 -117 -238q0 -65 21.5 -112.5t58.5 -72.5t77.5 -36.5t86.5 -11.5q94 0 192 45q12 4 16 4q17 0 23 -18l14 -37q4 -12 4 -15z" />
    <glyph glyph-name="Agrave" unicode="&#xc0;" horiz-adv-x="1196" 
d="M1180 16q0 -16 -25 -16h-96q-24 0 -32 5t-15 26l-154 428h-539l-159 -430q-7 -20 -14.5 -24.5t-28.5 -4.5h-88q-15 0 -15 14q0 13 4 21l523 1351q7 21 26 21h74q17 0 25 -18l510 -1356q4 -16 4 -17zM821 565l-225 635l-238 -635h463zM745 1602q0 -7 -6 -19l-18 -28
q-9 -15 -25 -15q-4 0 -16 4l-324 152q-18 9 -18 24q0 11 6 23l35 55q13 19 26 19q14 0 25 -8l301 -185q14 -8 14 -22z" />
    <glyph glyph-name="Aacute" unicode="&#xc1;" horiz-adv-x="1196" 
d="M1180 16q0 -16 -25 -16h-96q-24 0 -32 5t-15 26l-154 428h-539l-159 -430q-7 -20 -14.5 -24.5t-28.5 -4.5h-88q-15 0 -15 14q0 13 4 21l523 1351q7 21 26 21h74q17 0 25 -18l510 -1356q4 -16 4 -17zM821 565l-225 635l-238 -635h463zM833 1720q0 -15 -18 -24l-324 -152
q-12 -4 -16 -4q-17 0 -25 14l-18 29q-6 12 -6 18q0 15 14 23l301 184q12 9 25 9t26 -19l35 -55q6 -12 6 -23z" />
    <glyph glyph-name="Acircumflex" unicode="&#xc2;" horiz-adv-x="1196" 
d="M1180 16q0 -16 -25 -16h-96q-24 0 -32 5t-15 26l-154 428h-539l-159 -430q-7 -20 -14.5 -24.5t-28.5 -4.5h-88q-15 0 -15 14q0 13 4 21l523 1351q7 21 26 21h74q17 0 25 -18l510 -1356q4 -16 4 -17zM821 565l-225 635l-238 -635h463zM884 1584q0 -11 -8 -19l-18 -20
q-13 -13 -21 -13q-9 0 -20 8l-228 170l-227 -170q-11 -8 -20 -8q-11 0 -21 13l-16 20q-10 13 -10 23q0 8 12 20l242 219q17 13 28 13h25q11 0 28 -13l242 -219q12 -9 12 -24z" />
    <glyph glyph-name="Atilde" unicode="&#xc3;" horiz-adv-x="1196" 
d="M1180 16q0 -16 -25 -16h-96q-24 0 -32 5t-15 26l-154 428h-539l-159 -430q-7 -20 -14.5 -24.5t-28.5 -4.5h-88q-15 0 -15 14q0 13 4 21l523 1351q7 21 26 21h74q17 0 25 -18l510 -1356q4 -16 4 -17zM821 565l-225 635l-238 -635h463zM936 1675q0 -15 -16 -28
q-114 -88 -213 -88q-41 0 -108.5 35.5t-102.5 35.5q-34 0 -133 -51q-21 -12 -33 -12q-17 0 -23 20l-16 54q-8 20 -8 22q0 14 29 33q106 66 184 66q44 0 121 -37t102 -37q24 0 127 57q17 10 31 10q18 0 28 -18l21 -37q10 -17 10 -25z" />
    <glyph glyph-name="Adieresis" unicode="&#xc4;" horiz-adv-x="1196" 
d="M1180 16q0 -16 -25 -16h-96q-24 0 -32 5t-15 26l-154 428h-539l-159 -430q-7 -20 -14.5 -24.5t-28.5 -4.5h-88q-15 0 -15 14q0 13 4 21l523 1351q7 21 26 21h74q17 0 25 -18l510 -1356q4 -16 4 -17zM821 565l-225 635l-238 -635h463zM860 1665q0 -40 -29 -65t-65 -25
q-37 0 -68 25t-31 65q0 42 30 67.5t69 25.5q38 0 66 -26t28 -67zM508 1665q0 -40 -29 -65t-66 -25t-67.5 25t-30.5 65q0 42 29.5 67.5t68.5 25.5q38 0 66.5 -26t28.5 -67z" />
    <glyph glyph-name="Aring" unicode="&#xc5;" horiz-adv-x="1196" 
d="M1180 16q0 -16 -25 -16h-96q-24 0 -32 5t-15 26l-154 428h-539l-159 -430q-7 -20 -14.5 -24.5t-28.5 -4.5h-88q-15 0 -15 14q0 13 4 21l523 1351q7 21 26 21h74q17 0 25 -18l510 -1356q4 -16 4 -17zM821 565l-225 635l-238 -635h463zM766 1717q0 -66 -48.5 -114
t-115.5 -48q-66 0 -115.5 48t-49.5 114t49.5 115t115.5 49q67 0 115.5 -49t48.5 -115zM668 1717q0 28 -19 46.5t-47 18.5t-47.5 -18.5t-19.5 -46.5t19.5 -47t47.5 -19t47 19t19 47z" />
    <glyph glyph-name="AE" unicode="&#xc6;" horiz-adv-x="1740" 
d="M1653 29q0 -16 -7 -22.5t-28 -6.5h-682q-23 0 -30 7t-7 30v424h-461l-282 -432q-14 -23 -22 -26q-7 -3 -21 -3h-84q-6 0 -11.5 4.5t-5.5 11.5t6 19l883 1343q20 29 55 29h664q29 0 29 -25v-8l-7 -51q-1 -18 -11 -22.5t-36 -4.5h-555v-495h490q19 0 27 -7t8 -24v-49
q0 -18 -7 -24.5t-26 -6.5h-492v-579h578q21 0 28 -5.5t7 -21.5v-55zM899 567v613l-399 -613h399z" />
    <glyph glyph-name="Ccedilla" unicode="&#xc7;" horiz-adv-x="1185" 
d="M1139 98q0 -14 -25 -26q-184 -93 -387 -90h-18l-4 -84h16q46 0 84 -12t66 -46.5t28 -87.5q0 -67 -47 -112.5t-141 -45.5q-58 0 -125 25q-29 12 -29 25q0 6 2 10l8 24q6 17 17 17q2 0 18 -4q58 -21 109 -21q35 0 62 18.5t30 53.5v8q0 74 -109 74h-32q-29 0 -40.5 12
t-11.5 35q0 19 2 29l9 90q-128 19 -228.5 83.5t-162.5 161.5t-94 216.5t-32 253.5q0 142 42 271t120 231t200 162.5t271 60.5q214 0 369 -95q22 -13 22 -26q0 -10 -6 -19l-26 -49q-8 -16 -21 -16q-9 0 -18 6q-139 86 -309 86q-103 0 -194 -43.5t-155 -120.5
q-139 -171 -139 -438q0 -93 16 -180.5t53.5 -168.5t92.5 -141.5t138 -96.5t185 -36q79 0 170.5 21.5t161.5 58.5q12 6 21 6q12 0 18 -16l19 -43q4 -8 4 -21z" />
    <glyph glyph-name="Egrave" unicode="&#xc8;" horiz-adv-x="1001" 
d="M913 29q0 -16 -6.5 -22.5t-27.5 -6.5h-684q-23 0 -30 7t-7 30v1335q0 20 7.5 27.5t27.5 7.5h686q28 0 28 -25v-8l-6 -51q-1 -18 -11 -22.5t-36 -4.5h-553v-495h487q19 0 27 -7t8 -24v-49q0 -19 -6.5 -25t-25.5 -6h-490v-579h576q21 0 28.5 -6t7.5 -21v-55zM706 1610
q0 -7 -6 -19l-18 -28q-9 -15 -25 -15q-4 0 -16 4l-324 152q-18 9 -18 24q0 11 6 23l35 55q13 19 26 19q14 0 25 -8l301 -185q14 -8 14 -22z" />
    <glyph glyph-name="Eacute" unicode="&#xc9;" horiz-adv-x="1001" 
d="M913 29q0 -16 -6.5 -22.5t-27.5 -6.5h-684q-23 0 -30 7t-7 30v1335q0 20 7.5 27.5t27.5 7.5h686q28 0 28 -25v-8l-6 -51q-1 -18 -11 -22.5t-36 -4.5h-553v-495h487q19 0 27 -7t8 -24v-49q0 -19 -6.5 -25t-25.5 -6h-490v-579h576q21 0 28.5 -6t7.5 -21v-55zM766 1724
q0 -15 -18 -24l-324 -152q-12 -4 -16 -4q-17 0 -25 14l-18 29q-6 12 -6 18q0 15 14 23l301 184q12 9 25 9t26 -19l35 -55q6 -12 6 -23z" />
    <glyph glyph-name="Ecircumflex" unicode="&#xca;" horiz-adv-x="1001" 
d="M913 29q0 -16 -6.5 -22.5t-27.5 -6.5h-684q-23 0 -30 7t-7 30v1335q0 20 7.5 27.5t27.5 7.5h686q28 0 28 -25v-8l-6 -51q-1 -18 -11 -22.5t-36 -4.5h-553v-495h487q19 0 27 -7t8 -24v-49q0 -19 -6.5 -25t-25.5 -6h-490v-579h576q21 0 28.5 -6t7.5 -21v-55zM798 1614
q0 -11 -8 -19l-18 -20q-13 -13 -21 -13q-9 0 -20 8l-228 170l-227 -170q-11 -8 -20 -8q-11 0 -21 13l-16 20q-10 13 -10 23q0 8 12 20l242 219q17 13 28 13h25q11 0 28 -13l242 -219q12 -9 12 -24z" />
    <glyph glyph-name="Edieresis" unicode="&#xcb;" horiz-adv-x="1001" 
d="M913 29q0 -16 -6.5 -22.5t-27.5 -6.5h-684q-23 0 -30 7t-7 30v1335q0 20 7.5 27.5t27.5 7.5h686q28 0 28 -25v-8l-6 -51q-1 -18 -11 -22.5t-36 -4.5h-553v-495h487q19 0 27 -7t8 -24v-49q0 -19 -6.5 -25t-25.5 -6h-490v-579h576q21 0 28.5 -6t7.5 -21v-55zM772 1663
q0 -40 -29 -65t-65 -25q-37 0 -68 25t-31 65q0 42 30 67.5t69 25.5q38 0 66 -26t28 -67zM420 1663q0 -40 -29 -65t-66 -25t-67.5 25t-30.5 65q0 42 29.5 67.5t68.5 25.5q38 0 66.5 -26t28.5 -67z" />
    <glyph glyph-name="Igrave" unicode="&#xcc;" horiz-adv-x="714" 
d="M582 29q0 -18 -4 -23.5t-19 -5.5h-405q-15 0 -20 5t-5 20v57q0 12 4.5 16t20.5 4h131v1205h-138q-15 0 -19.5 3.5t-4.5 18.5v53q0 15 4.5 20t17.5 5h408q18 0 23.5 -5t5.5 -18v-51q0 -11 -0.5 -16t-5 -7.5t-8 -2.5h-15.5h-131v-1205h131q17 0 23 -5t6 -17v-51zM549 1614
q0 -7 -6 -19l-18 -28q-9 -15 -25 -15q-4 0 -16 4l-324 152q-18 9 -18 24q0 11 6 23l35 55q13 19 26 19q14 0 25 -8l301 -185q14 -8 14 -22z" />
    <glyph glyph-name="Iacute" unicode="&#xcd;" horiz-adv-x="714" 
d="M582 29q0 -18 -4 -23.5t-19 -5.5h-405q-15 0 -20 5t-5 20v57q0 12 4.5 16t20.5 4h131v1205h-138q-15 0 -19.5 3.5t-4.5 18.5v53q0 15 4.5 20t17.5 5h408q18 0 23.5 -5t5.5 -18v-51q0 -11 -0.5 -16t-5 -7.5t-8 -2.5h-15.5h-131v-1205h131q17 0 23 -5t6 -17v-51zM588 1728
q0 -15 -18 -24l-324 -152q-12 -4 -16 -4q-17 0 -25 14l-18 29q-6 12 -6 18q0 15 14 23l301 184q12 9 25 9t26 -19l35 -55q6 -12 6 -23z" />
    <glyph glyph-name="Icircumflex" unicode="&#xce;" horiz-adv-x="714" 
d="M582 29q0 -18 -4 -23.5t-19 -5.5h-405q-15 0 -20 5t-5 20v57q0 12 4.5 16t20.5 4h131v1205h-138q-15 0 -19.5 3.5t-4.5 18.5v53q0 15 4.5 20t17.5 5h408q18 0 23.5 -5t5.5 -18v-51q0 -11 -0.5 -16t-5 -7.5t-8 -2.5h-15.5h-131v-1205h131q17 0 23 -5t6 -17v-51zM643 1618
q0 -11 -8 -19l-18 -20q-13 -13 -21 -13q-9 0 -20 8l-228 170l-227 -170q-11 -8 -20 -8q-11 0 -21 13l-16 20q-10 13 -10 23q0 8 12 20l242 219q17 13 28 13h25q11 0 28 -13l242 -219q12 -9 12 -24z" />
    <glyph glyph-name="Idieresis" unicode="&#xcf;" horiz-adv-x="714" 
d="M582 29q0 -18 -4 -23.5t-19 -5.5h-405q-15 0 -20 5t-5 20v57q0 12 4.5 16t20.5 4h131v1205h-138q-15 0 -19.5 3.5t-4.5 18.5v53q0 15 4.5 20t17.5 5h408q18 0 23.5 -5t5.5 -18v-51q0 -11 -0.5 -16t-5 -7.5t-8 -2.5h-15.5h-131v-1205h131q17 0 23 -5t6 -17v-51zM625 1661
q0 -40 -29 -65t-65 -25q-37 0 -68 25t-31 65q0 42 30 67.5t69 25.5q38 0 66 -26t28 -67zM273 1661q0 -40 -29 -65t-66 -25t-67.5 25t-30.5 65q0 42 29.5 67.5t68.5 25.5q38 0 66.5 -26t28.5 -67z" />
    <glyph glyph-name="Eth" unicode="&#xd0;" horiz-adv-x="1337" 
d="M1237 694q0 -171 -52 -312.5t-151 -234.5q-157 -147 -502 -147h-327q-29 0 -38 9t-9 34v582h-121q-26 0 -33.5 6t-7.5 24v54q0 18 7 24t28 6h127v613q0 30 12.5 42.5t44.5 12.5h229q213 0 321 -20t200 -80q129 -84 200.5 -244t71.5 -369zM1083 696q0 158 -46.5 289.5
t-135.5 204.5q-128 106 -385 106h-215v-557h229q27 0 34 -6t7 -28v-41q0 -24 -6.5 -31.5t-27.5 -7.5h-236v-514h182q169 0 269 23.5t170 94.5q161 161 161 467z" />
    <glyph glyph-name="Ntilde" unicode="&#xd1;" horiz-adv-x="1376" 
d="M1219 37q0 -21 -6 -29t-21 -8h-66q-27 0 -53 37l-782 1110h-4v-1110q0 -37 -33 -37h-64q-32 0 -32 37v1333q0 37 32 37h52q29 0 45 -27l800 -1138h5v1128q0 22 6.5 29.5t23.5 7.5h64q18 0 25.5 -7t7.5 -28v-1335zM1024 1675q0 -15 -16 -28q-114 -88 -213 -88
q-41 0 -108.5 35.5t-102.5 35.5q-34 0 -133 -51q-21 -12 -33 -12q-17 0 -23 20l-16 54q-8 20 -8 22q0 14 29 33q106 66 184 66q44 0 121 -37t102 -37q24 0 127 57q17 10 31 10q18 0 28 -18l21 -37q10 -17 10 -25z" />
    <glyph glyph-name="Ograve" unicode="&#xd2;" horiz-adv-x="1355" 
d="M1264 713q0 -171 -45 -310.5t-124 -231t-185.5 -140.5t-229.5 -49q-263 0 -413 190t-150 526q0 164 43.5 302t121 232t185 146t233.5 52q266 0 415 -195.5t149 -521.5zM1110 707q0 282 -108 444t-306 162q-126 0 -223.5 -79.5t-150 -217.5t-52.5 -311q0 -281 110.5 -445
t305.5 -164q188 0 306 169t118 442zM885 1608q0 -7 -6 -19l-18 -28q-9 -15 -25 -15q-4 0 -16 4l-324 152q-18 9 -18 24q0 11 6 23l35 55q13 19 26 19q14 0 25 -8l301 -185q14 -8 14 -22z" />
    <glyph glyph-name="Oacute" unicode="&#xd3;" horiz-adv-x="1355" 
d="M1264 713q0 -171 -45 -310.5t-124 -231t-185.5 -140.5t-229.5 -49q-263 0 -413 190t-150 526q0 164 43.5 302t121 232t185 146t233.5 52q266 0 415 -195.5t149 -521.5zM1110 707q0 282 -108 444t-306 162q-126 0 -223.5 -79.5t-150 -217.5t-52.5 -311q0 -281 110.5 -445
t305.5 -164q188 0 306 169t118 442zM962 1726q0 -15 -18 -24l-324 -152q-12 -4 -16 -4q-17 0 -25 14l-18 29q-6 12 -6 18q0 15 14 23l301 184q12 9 25 9t26 -19l35 -55q6 -12 6 -23z" />
    <glyph glyph-name="Ocircumflex" unicode="&#xd4;" horiz-adv-x="1355" 
d="M1264 713q0 -171 -45 -310.5t-124 -231t-185.5 -140.5t-229.5 -49q-263 0 -413 190t-150 526q0 164 43.5 302t121 232t185 146t233.5 52q266 0 415 -195.5t149 -521.5zM1110 707q0 282 -108 444t-306 162q-126 0 -223.5 -79.5t-150 -217.5t-52.5 -311q0 -281 110.5 -445
t305.5 -164q188 0 306 169t118 442zM983 1610q0 -11 -8 -19l-18 -20q-13 -13 -21 -13q-9 0 -20 8l-228 170l-227 -170q-11 -8 -20 -8q-11 0 -21 13l-16 20q-10 13 -10 23q0 8 12 20l242 219q17 13 28 13h25q11 0 28 -13l242 -219q12 -9 12 -24z" />
    <glyph glyph-name="Otilde" unicode="&#xd5;" horiz-adv-x="1355" 
d="M1264 713q0 -171 -45 -310.5t-124 -231t-185.5 -140.5t-229.5 -49q-263 0 -413 190t-150 526q0 164 43.5 302t121 232t185 146t233.5 52q266 0 415 -195.5t149 -521.5zM1110 707q0 282 -108 444t-306 162q-126 0 -223.5 -79.5t-150 -217.5t-52.5 -311q0 -281 110.5 -445
t305.5 -164q188 0 306 169t118 442zM1026 1669q0 -15 -16 -28q-114 -88 -213 -88q-41 0 -108.5 35.5t-102.5 35.5q-34 0 -133 -51q-21 -12 -33 -12q-17 0 -23 20l-16 54q-8 20 -8 22q0 14 29 33q106 66 184 66q44 0 121 -37t102 -37q24 0 127 57q17 10 31 10q18 0 28 -18
l21 -37q10 -17 10 -25z" />
    <glyph glyph-name="Odieresis" unicode="&#xd6;" horiz-adv-x="1355" 
d="M1264 713q0 -171 -45 -310.5t-124 -231t-185.5 -140.5t-229.5 -49q-263 0 -413 190t-150 526q0 164 43.5 302t121 232t185 146t233.5 52q266 0 415 -195.5t149 -521.5zM1110 707q0 282 -108 444t-306 162q-126 0 -223.5 -79.5t-150 -217.5t-52.5 -311q0 -281 110.5 -445
t305.5 -164q188 0 306 169t118 442zM963 1665q0 -40 -29 -65t-65 -25q-37 0 -68 25t-31 65q0 42 30 67.5t69 25.5q38 0 66 -26t28 -67zM611 1665q0 -40 -29 -65t-66 -25t-67.5 25t-30.5 65q0 42 29.5 67.5t68.5 25.5q38 0 66.5 -26t28.5 -67z" />
    <glyph glyph-name="multiply" unicode="&#xd7;" horiz-adv-x="1024" 
d="M842 279q0 -4 -13 -21l-36 -39q-12 -12 -23 -12q-9 0 -25 16l-231 232l-229 -230q-18 -18 -31 -18q-9 0 -21 12l-36 37q-13 13 -13 20q0 12 15 27l233 232l-229 229q-19 19 -19 31q0 7 15 22l28 31q13 16 29 16q11 0 25 -14l233 -234l227 228q20 20 29 20t25 -16l28 -29
q11 -11 11 -24q0 -6 -2 -13t-4 -10l-1 -4l-233 -233l227 -228q21 -21 21 -28z" />
    <glyph glyph-name="Oslash" unicode="&#xd8;" horiz-adv-x="1363" 
d="M1255 713q0 -171 -45 -310.5t-123.5 -231t-185 -140.5t-229.5 -49q-178 0 -305 86l-74 -121q-18 -33 -35 -33q-4 0 -9 3t-7 3l-37 19q-23 11 -23 24q0 4 4 12l101 162q-178 190 -178 561q0 330 163 529.5t420 199.5q194 0 330 -108l84 135q22 37 35 37q4 0 12 -4l37 -23
q24 -13 24 -24q0 -5 -4 -13l-112 -184q157 -195 157 -530zM952 1206q-107 113 -264 113q-125 0 -223 -81t-150.5 -220.5t-52.5 -312.5q0 -277 105 -441zM1102 707q0 244 -86 407l-580 -934q98 -92 242 -92q124 0 220.5 78t150 219.5t53.5 321.5z" />
    <glyph glyph-name="Ugrave" unicode="&#xd9;" horiz-adv-x="1394" 
d="M1237 608q0 -302 -127 -461q-133 -165 -408 -165q-328 0 -450 190q-94 145 -94 455v743q0 37 32 37h78q33 0 33 -37v-727q0 -229 43 -336q39 -100 123.5 -152.5t232.5 -52.5q138 0 224.5 53.5t124.5 145.5q47 116 47 344v725q0 37 32 37h76q33 0 33 -37v-762zM846 1590
q0 -7 -6 -19l-18 -28q-9 -15 -25 -15q-4 0 -16 4l-324 152q-18 9 -18 24q0 11 6 23l35 55q13 19 26 19q14 0 25 -8l301 -185q14 -8 14 -22z" />
    <glyph glyph-name="Uacute" unicode="&#xda;" horiz-adv-x="1394" 
d="M1237 608q0 -302 -127 -461q-133 -165 -408 -165q-328 0 -450 190q-94 145 -94 455v743q0 37 32 37h78q33 0 33 -37v-727q0 -229 43 -336q39 -100 123.5 -152.5t232.5 -52.5q138 0 224.5 53.5t124.5 145.5q47 116 47 344v725q0 37 32 37h76q33 0 33 -37v-762zM989 1712
q0 -15 -18 -24l-324 -152q-12 -4 -16 -4q-17 0 -25 14l-18 29q-6 12 -6 18q0 15 14 23l301 184q12 9 25 9t26 -19l35 -55q6 -12 6 -23z" />
    <glyph glyph-name="Ucircumflex" unicode="&#xdb;" horiz-adv-x="1394" 
d="M1237 608q0 -302 -127 -461q-133 -165 -408 -165q-328 0 -450 190q-94 145 -94 455v743q0 37 32 37h78q33 0 33 -37v-727q0 -229 43 -336q39 -100 123.5 -152.5t232.5 -52.5q138 0 224.5 53.5t124.5 145.5q47 116 47 344v725q0 37 32 37h76q33 0 33 -37v-762zM976 1604
q0 -11 -8 -19l-18 -20q-13 -13 -21 -13q-9 0 -20 8l-228 170l-227 -170q-11 -8 -20 -8q-11 0 -21 13l-16 20q-10 13 -10 23q0 8 12 20l242 219q17 13 28 13h25q11 0 28 -13l242 -219q12 -9 12 -24z" />
    <glyph glyph-name="Udieresis" unicode="&#xdc;" horiz-adv-x="1394" 
d="M1237 608q0 -302 -127 -461q-133 -165 -408 -165q-328 0 -450 190q-94 145 -94 455v743q0 37 32 37h78q33 0 33 -37v-727q0 -229 43 -336q39 -100 123.5 -152.5t232.5 -52.5q138 0 224.5 53.5t124.5 145.5q47 116 47 344v725q0 37 32 37h76q33 0 33 -37v-762zM950 1659
q0 -40 -29 -65t-65 -25q-37 0 -68 25t-31 65q0 42 30 67.5t69 25.5q38 0 66 -26t28 -67zM598 1659q0 -40 -29 -65t-66 -25t-67.5 25t-30.5 65q0 42 29.5 67.5t68.5 25.5q38 0 66.5 -26t28.5 -67z" />
    <glyph glyph-name="Yacute" unicode="&#xdd;" horiz-adv-x="1069" 
d="M1034 1393q0 -8 -10 -31l-410 -821v-510q0 -19 -5.5 -25t-20.5 -6h-88q-15 0 -21 7t-6 26v506l-434 831q-6 12 -6 19q0 18 30 18h68q26 0 39.5 -7t22.5 -26l360 -712h2l344 706q12 27 21 33t36 6h50q28 0 28 -14zM805 1726q0 -15 -18 -24l-324 -152q-12 -4 -16 -4
q-17 0 -25 14l-18 29q-6 12 -6 18q0 15 14 23l301 184q12 9 25 9t26 -19l35 -55q6 -12 6 -23z" />
    <glyph glyph-name="Thorn" unicode="&#xde;" horiz-adv-x="1056" 
d="M971 629q0 -211 -112 -338t-324 -127q-81 0 -159 33t-126 94v-258q0 -33 -39 -33h-59q-33 0 -33 37v723v514q0 17 6.5 22.5t26.5 8.5l51 8h10q31 0 31 -37v-320q52 63 138.5 100.5t176.5 37.5q191 0 301.5 -113t110.5 -352zM836 629q0 189 -79 275.5t-218 86.5
q-82 0 -164 -43t-125 -108v-406q36 -71 114 -119.5t162 -48.5q310 0 310 363z" />
    <glyph glyph-name="germandbls" unicode="&#xdf;" horiz-adv-x="1107" 
d="M1024 414q0 -106 -38 -190.5t-101.5 -136t-142 -78.5t-164.5 -27h-15q-70 0 -86 2q-30 3 -37.5 8.5t-7.5 21.5v33q0 22 8 28.5t31 6.5h4q13 0 45 -1t45 -1q85 0 149 28t101 76.5t54.5 107t17.5 126.5q0 76 -31.5 137t-82 96t-109 53.5t-117.5 18.5h-74q-28 0 -34.5 4.5
t-6.5 22.5v45q0 19 5.5 23.5t25.5 4.5h33q48 0 99 19t96 53t73.5 89.5t28.5 121.5q0 262 -271 262q-117 0 -185.5 -81t-68.5 -230v-269v-946q0 -37 -32 -37h-66q-33 0 -33 37v946v250q0 209 105 319.5t290 110.5q112 0 200.5 -37.5t143 -118.5t54.5 -196q0 -108 -67.5 -202
t-174.5 -121v-2q144 -17 240 -122.5t96 -254.5z" />
    <glyph glyph-name="agrave" unicode="&#xe0;" horiz-adv-x="1062" 
d="M1008 20q0 -12 -5.5 -16t-19.5 -4h-78q-57 0 -85.5 41.5t-28.5 105.5v27q-31 -77 -124 -134.5t-192 -57.5q-81 0 -148 27t-113 74t-77.5 110.5t-46 134.5t-14.5 149q0 123 34 224t93 168t137.5 103t167.5 36q78 0 154.5 -33t125.5 -96l3 75q0 33 36 33h62q31 0 31 -37
v-719q0 -96 8 -112q11 -25 43 -25h14q13 0 18 -4.5t5 -17.5v-52zM788 340v393q-39 81 -113.5 126.5t-158.5 45.5q-135 0 -220 -113.5t-85 -306.5q0 -186 79 -289.5t195 -103.5q106 0 188 73t115 175zM698 1223q0 -7 -6 -19l-18 -28q-9 -15 -25 -15q-4 0 -16 4l-324 152
q-18 9 -18 24q0 11 6 23l35 55q13 19 26 19q14 0 25 -8l301 -185q14 -8 14 -22z" />
    <glyph glyph-name="aacute" unicode="&#xe1;" horiz-adv-x="1062" 
d="M1008 20q0 -12 -5.5 -16t-19.5 -4h-78q-57 0 -85.5 41.5t-28.5 105.5v27q-31 -77 -124 -134.5t-192 -57.5q-81 0 -148 27t-113 74t-77.5 110.5t-46 134.5t-14.5 149q0 123 34 224t93 168t137.5 103t167.5 36q78 0 154.5 -33t125.5 -96l3 75q0 33 36 33h62q31 0 31 -37
v-719q0 -96 8 -112q11 -25 43 -25h14q13 0 18 -4.5t5 -17.5v-52zM788 340v393q-39 81 -113.5 126.5t-158.5 45.5q-135 0 -220 -113.5t-85 -306.5q0 -186 79 -289.5t195 -103.5q106 0 188 73t115 175zM710 1333q0 -15 -18 -24l-324 -152q-12 -4 -16 -4q-17 0 -25 14l-18 29
q-6 12 -6 18q0 15 14 23l301 184q12 9 25 9t26 -19l35 -55q6 -12 6 -23z" />
    <glyph glyph-name="acircumflex" unicode="&#xe2;" horiz-adv-x="1062" 
d="M1008 20q0 -12 -5.5 -16t-19.5 -4h-78q-57 0 -85.5 41.5t-28.5 105.5v27q-31 -77 -124 -134.5t-192 -57.5q-81 0 -148 27t-113 74t-77.5 110.5t-46 134.5t-14.5 149q0 123 34 224t93 168t137.5 103t167.5 36q78 0 154.5 -33t125.5 -96l3 75q0 33 36 33h62q31 0 31 -37
v-719q0 -96 8 -112q11 -25 43 -25h14q13 0 18 -4.5t5 -17.5v-52zM788 340v393q-39 81 -113.5 126.5t-158.5 45.5q-135 0 -220 -113.5t-85 -306.5q0 -186 79 -289.5t195 -103.5q106 0 188 73t115 175zM819 1174q0 -11 -8 -19l-18 -20q-13 -13 -21 -13q-9 0 -20 8l-228 170
l-227 -170q-11 -8 -20 -8q-11 0 -21 13l-16 20q-10 13 -10 23q0 8 12 20l242 219q17 13 28 13h25q11 0 28 -13l242 -219q12 -9 12 -24z" />
    <glyph glyph-name="atilde" unicode="&#xe3;" horiz-adv-x="1062" 
d="M1008 20q0 -12 -5.5 -16t-19.5 -4h-78q-57 0 -85.5 41.5t-28.5 105.5v27q-31 -77 -124 -134.5t-192 -57.5q-81 0 -148 27t-113 74t-77.5 110.5t-46 134.5t-14.5 149q0 123 34 224t93 168t137.5 103t167.5 36q78 0 154.5 -33t125.5 -96l3 75q0 33 36 33h62q31 0 31 -37
v-719q0 -96 8 -112q11 -25 43 -25h14q13 0 18 -4.5t5 -17.5v-52zM788 340v393q-39 81 -113.5 126.5t-158.5 45.5q-135 0 -220 -113.5t-85 -306.5q0 -186 79 -289.5t195 -103.5q106 0 188 73t115 175zM856 1343q0 -15 -16 -28q-114 -88 -213 -88q-41 0 -108.5 35.5
t-102.5 35.5q-34 0 -133 -51q-21 -12 -33 -12q-17 0 -23 20l-16 54q-8 20 -8 22q0 14 29 33q106 66 184 66q44 0 121 -37t102 -37q24 0 127 57q17 10 31 10q18 0 28 -18l21 -37q10 -17 10 -25z" />
    <glyph glyph-name="adieresis" unicode="&#xe4;" horiz-adv-x="1062" 
d="M1008 20q0 -12 -5.5 -16t-19.5 -4h-78q-57 0 -85.5 41.5t-28.5 105.5v27q-31 -77 -124 -134.5t-192 -57.5q-81 0 -148 27t-113 74t-77.5 110.5t-46 134.5t-14.5 149q0 123 34 224t93 168t137.5 103t167.5 36q78 0 154.5 -33t125.5 -96l3 75q0 33 36 33h62q31 0 31 -37
v-719q0 -96 8 -112q11 -25 43 -25h14q13 0 18 -4.5t5 -17.5v-52zM788 340v393q-39 81 -113.5 126.5t-158.5 45.5q-135 0 -220 -113.5t-85 -306.5q0 -186 79 -289.5t195 -103.5q106 0 188 73t115 175zM803 1337q0 -40 -29 -65t-65 -25q-37 0 -68 25t-31 65q0 42 30 67.5
t69 25.5q38 0 66 -26t28 -67zM451 1337q0 -40 -29 -65t-66 -25t-67.5 25t-30.5 65q0 42 29.5 67.5t68.5 25.5q38 0 66.5 -26t28.5 -67z" />
    <glyph glyph-name="aring" unicode="&#xe5;" horiz-adv-x="1062" 
d="M1008 20q0 -12 -5.5 -16t-19.5 -4h-78q-57 0 -85.5 41.5t-28.5 105.5v27q-31 -77 -124 -134.5t-192 -57.5q-81 0 -148 27t-113 74t-77.5 110.5t-46 134.5t-14.5 149q0 123 34 224t93 168t137.5 103t167.5 36q78 0 154.5 -33t125.5 -96l3 75q0 33 36 33h62q31 0 31 -37
v-719q0 -96 8 -112q11 -25 43 -25h14q13 0 18 -4.5t5 -17.5v-52zM788 340v393q-39 81 -113.5 126.5t-158.5 45.5q-135 0 -220 -113.5t-85 -306.5q0 -186 79 -289.5t195 -103.5q106 0 188 73t115 175zM671 1266q0 -66 -48.5 -114t-115.5 -48q-66 0 -115.5 48t-49.5 114
t49.5 115t115.5 49q67 0 115.5 -49t48.5 -115zM573 1266q0 28 -19 46.5t-47 18.5t-47.5 -18.5t-19.5 -46.5t19.5 -47t47.5 -19t47 19t19 47z" />
    <glyph glyph-name="ae" unicode="&#xe6;" horiz-adv-x="1552" 
d="M1481 524q-1 -22 -14 -28.5t-44 -6.5h-180h-469q0 -83 21 -154t62 -126t108 -86t153 -31q66 0 138 13.5t118 33.5q12 4 15 4q16 0 20 -18l10 -47q2 -6 2 -17q0 -13 -20 -22q-58 -27 -141 -42t-154 -15q-154 0 -258 69q-40 25 -66 53q-5 6 -16 19.5t-16 19.5
q-52 -70 -150 -116.5t-227 -46.5q-124 0 -212.5 74.5t-88.5 209.5q0 122 90 205q141 131 444 131h60v70q0 123 -48 183t-161 60q-131 0 -275 -82q-9 -6 -16 -6q-8 0 -14 13l-19 41q-4 8 -4 12q0 12 16 22q79 47 165 71t157 24q148 0 229 -72q45 -39 68 -90q120 162 336 162
q177 0 279 -119.5t102 -304.5v-39v-21zM1350 623q0 124 -65.5 204t-188.5 80q-137 0 -220 -94t-98 -231h570q2 14 2 41zM709 219q-50 117 -50 277v14v6h-53q-54 0 -104.5 -6t-105.5 -23t-95 -43.5t-66 -72t-26 -103.5q0 -93 56.5 -140.5t135.5 -47.5q90 0 175 43.5t133 95.5
z" />
    <glyph glyph-name="ccedilla" unicode="&#xe7;" horiz-adv-x="864" 
d="M838 61q0 -13 -21 -22q-117 -57 -262 -57l-4 -84h16q46 0 84 -12t66 -46.5t28 -87.5q0 -67 -47 -112.5t-141 -45.5q-58 0 -125 25q-29 12 -29 25q0 4 3 10l8 24q6 17 16 17q3 0 19 -4q58 -21 108 -21q35 0 62 18.5t30 53.5v8q0 74 -108 74h-33q-29 0 -40 11.5t-11 35.5
q0 19 2 29l8 88q-191 25 -287 161.5t-96 348.5q0 146 55.5 261t165 182t256.5 67q64 0 136 -17.5t120 -44.5q19 -10 19 -22q0 -2 -5 -17l-12 -37q-9 -22 -20 -22q-3 0 -15 4q-117 55 -225 55q-154 0 -247 -110t-93 -295q0 -67 11 -126.5t36 -114.5t63 -94.5t95 -63
t129 -23.5q127 0 238 49q12 4 14 4q16 0 20 -18l11 -37q2 -6 2 -17z" />
    <glyph glyph-name="egrave" unicode="&#xe8;" horiz-adv-x="997" 
d="M926 545q0 -35 -10.5 -45.5t-47.5 -10.5h-180h-469q0 -83 21 -154t62 -126t108 -86t153 -31q66 0 138 13.5t118 33.5q12 4 15 4q16 0 20 -18l10 -47q2 -6 2 -17q0 -13 -20 -22q-58 -27 -141 -42t-154 -15q-228 0 -347.5 139.5t-119.5 374.5q0 143 54.5 258.5t160.5 184.5
t246 69q177 0 279 -119.5t102 -304.5v-39zM795 623q0 124 -65.5 204t-188.5 80q-137 0 -220 -94t-98 -231h570q2 14 2 41zM698 1223q0 -7 -6 -19l-18 -28q-9 -15 -25 -15q-4 0 -16 4l-324 152q-18 9 -18 24q0 11 6 23l35 55q13 19 26 19q14 0 25 -8l301 -185q14 -8 14 -22z
" />
    <glyph glyph-name="eacute" unicode="&#xe9;" horiz-adv-x="997" 
d="M926 545q0 -35 -10.5 -45.5t-47.5 -10.5h-180h-469q0 -83 21 -154t62 -126t108 -86t153 -31q66 0 138 13.5t118 33.5q12 4 15 4q16 0 20 -18l10 -47q2 -6 2 -17q0 -13 -20 -22q-58 -27 -141 -42t-154 -15q-228 0 -347.5 139.5t-119.5 374.5q0 143 54.5 258.5t160.5 184.5
t246 69q177 0 279 -119.5t102 -304.5v-39zM795 623q0 124 -65.5 204t-188.5 80q-137 0 -220 -94t-98 -231h570q2 14 2 41zM706 1333q0 -15 -18 -24l-324 -152q-12 -4 -16 -4q-17 0 -25 14l-18 29q-6 12 -6 18q0 15 14 23l301 184q12 9 25 9t26 -19l35 -55q6 -12 6 -23z" />
    <glyph glyph-name="ecircumflex" unicode="&#xea;" horiz-adv-x="997" 
d="M926 545q0 -35 -10.5 -45.5t-47.5 -10.5h-180h-469q0 -83 21 -154t62 -126t108 -86t153 -31q66 0 138 13.5t118 33.5q12 4 15 4q16 0 20 -18l10 -47q2 -6 2 -17q0 -13 -20 -22q-58 -27 -141 -42t-154 -15q-228 0 -347.5 139.5t-119.5 374.5q0 143 54.5 258.5t160.5 184.5
t246 69q177 0 279 -119.5t102 -304.5v-39zM795 623q0 124 -65.5 204t-188.5 80q-137 0 -220 -94t-98 -231h570q2 14 2 41zM825 1174q0 -11 -8 -19l-18 -20q-13 -13 -21 -13q-9 0 -20 8l-228 170l-227 -170q-11 -8 -20 -8q-11 0 -21 13l-16 20q-10 13 -10 23q0 8 12 20
l242 219q17 13 28 13h25q11 0 28 -13l242 -219q12 -9 12 -24z" />
    <glyph glyph-name="edieresis" unicode="&#xeb;" horiz-adv-x="997" 
d="M926 545q0 -35 -10.5 -45.5t-47.5 -10.5h-180h-469q0 -83 21 -154t62 -126t108 -86t153 -31q66 0 138 13.5t118 33.5q12 4 15 4q16 0 20 -18l10 -47q2 -6 2 -17q0 -13 -20 -22q-58 -27 -141 -42t-154 -15q-228 0 -347.5 139.5t-119.5 374.5q0 143 54.5 258.5t160.5 184.5
t246 69q177 0 279 -119.5t102 -304.5v-39zM795 623q0 124 -65.5 204t-188.5 80q-137 0 -220 -94t-98 -231h570q2 14 2 41zM799 1337q0 -40 -29 -65t-65 -25q-37 0 -68 25t-31 65q0 42 30 67.5t69 25.5q38 0 66 -26t28 -67zM447 1337q0 -40 -29 -65t-66 -25t-67.5 25
t-30.5 65q0 42 29.5 67.5t68.5 25.5q38 0 66.5 -26t28.5 -67z" />
    <glyph glyph-name="igrave" unicode="&#xec;" horiz-adv-x="450" 
d="M289 37q0 -37 -33 -37h-66q-32 0 -32 37v913q0 37 32 37h66q33 0 33 -37v-913zM428 1223q0 -7 -6 -19l-18 -28q-9 -15 -25 -15q-4 0 -16 4l-324 152q-18 9 -18 24q0 11 6 23l35 55q13 19 26 19q14 0 25 -8l301 -185q14 -8 14 -22z" />
    <glyph glyph-name="iacute" unicode="&#xed;" horiz-adv-x="450" 
d="M289 37q0 -37 -33 -37h-66q-32 0 -32 37v913q0 37 32 37h66q33 0 33 -37v-913zM454 1333q0 -15 -18 -24l-324 -152q-12 -4 -16 -4q-17 0 -25 14l-18 29q-6 12 -6 18q0 15 14 23l301 184q12 9 25 9t26 -19l35 -55q6 -12 6 -23z" />
    <glyph glyph-name="icircumflex" unicode="&#xee;" horiz-adv-x="450" 
d="M289 37q0 -37 -33 -37h-66q-32 0 -32 37v913q0 37 32 37h66q33 0 33 -37v-913zM530 1174q0 -11 -8 -19l-18 -20q-13 -13 -21 -13q-9 0 -20 8l-228 170l-227 -170q-11 -8 -20 -8q-11 0 -21 13l-16 20q-10 13 -10 23q0 8 12 20l242 219q17 13 28 13h25q11 0 28 -13
l242 -219q12 -9 12 -24z" />
    <glyph glyph-name="idieresis" unicode="&#xef;" horiz-adv-x="450" 
d="M289 37q0 -37 -33 -37h-66q-32 0 -32 37v913q0 37 32 37h66q33 0 33 -37v-913zM500 1337q0 -40 -29 -65t-65 -25q-37 0 -68 25t-31 65q0 42 30 67.5t69 25.5q38 0 66 -26t28 -67zM148 1337q0 -40 -29 -65t-66 -25t-67.5 25t-30.5 65q0 42 29.5 67.5t68.5 25.5
q38 0 66.5 -26t28.5 -67z" />
    <glyph glyph-name="eth" unicode="&#xf0;" horiz-adv-x="1067" 
d="M987 500q0 -105 -29 -197.5t-85 -164.5t-145.5 -114t-201.5 -42t-198 39.5t-138.5 109.5t-79 162t-26.5 203q0 108 30 200.5t86.5 162t143.5 109.5t195 40q82 0 159 -23q-36 98 -114 173.5t-168 117.5l-76 -158q-8 -14 -14 -14q-7 0 -19 6l-37 18q-14 8 -14 17q0 7 6 16
l78 150q-99 33 -178 45q-25 3 -25 22v8l6 35q3 19 9.5 23t23.5 4h17q87 -8 204 -37l70 135q10 17 16 17q5 0 15 -7l37 -20q14 -8 14 -16q0 -9 -4 -15l-66 -129q97 -45 181 -122t143 -168t101.5 -193.5t62.5 -202t20 -190.5zM850 492q0 64 -9.5 121.5t-33 112t-58 94
t-88.5 63.5t-122 24q-71 0 -127 -24.5t-91.5 -64t-59 -93.5t-33 -109.5t-9.5 -115.5q0 -64 9 -121.5t31 -113t56 -96t89 -65t124 -24.5t124.5 23.5t92 62.5t60.5 92.5t34.5 111.5t10.5 122z" />
    <glyph glyph-name="ntilde" unicode="&#xf1;" horiz-adv-x="1071" 
d="M934 37q0 -37 -33 -37h-65q-33 0 -33 37v584q0 66 -9.5 114t-33.5 88.5t-70.5 61t-114.5 20.5q-75 0 -161 -37.5t-146 -93.5v-737q0 -37 -32 -37h-66q-33 0 -33 37v913q0 37 33 37h63q33 0 33 -37l2 -69q69 61 160 94t182 33q172 0 248 -96t76 -273v-602zM868 1343
q0 -15 -16 -28q-114 -88 -213 -88q-41 0 -108.5 35.5t-102.5 35.5q-34 0 -133 -51q-21 -12 -33 -12q-17 0 -23 20l-16 54q-8 20 -8 22q0 14 29 33q106 66 184 66q44 0 121 -37t102 -37q24 0 127 57q17 10 31 10q18 0 28 -18l21 -37q10 -17 10 -25z" />
    <glyph glyph-name="ograve" unicode="&#xf2;" horiz-adv-x="1069" 
d="M985 496q0 -146 -52 -261t-157.5 -184t-249.5 -69q-112 0 -198 39.5t-138.5 109.5t-79 162t-26.5 203q0 108 30 200.5t86.5 162t143.5 109.5t195 40q221 0 333.5 -140t112.5 -372zM850 492q0 64 -9.5 121.5t-33 112t-58 94t-88.5 63.5t-122 24q-71 0 -127 -24.5
t-91.5 -64t-59 -93.5t-33 -109.5t-9.5 -115.5q0 -64 9 -121.5t31 -113t56 -96t89 -65t124 -24.5t124.5 23.5t92 62.5t60.5 92.5t34.5 111.5t10.5 122zM725 1223q0 -7 -6 -19l-18 -28q-9 -15 -25 -15q-4 0 -16 4l-324 152q-18 9 -18 24q0 11 6 23l35 55q13 19 26 19
q14 0 25 -8l301 -185q14 -8 14 -22z" />
    <glyph glyph-name="oacute" unicode="&#xf3;" horiz-adv-x="1069" 
d="M985 496q0 -146 -52 -261t-157.5 -184t-249.5 -69q-112 0 -198 39.5t-138.5 109.5t-79 162t-26.5 203q0 108 30 200.5t86.5 162t143.5 109.5t195 40q221 0 333.5 -140t112.5 -372zM850 492q0 64 -9.5 121.5t-33 112t-58 94t-88.5 63.5t-122 24q-71 0 -127 -24.5
t-91.5 -64t-59 -93.5t-33 -109.5t-9.5 -115.5q0 -64 9 -121.5t31 -113t56 -96t89 -65t124 -24.5t124.5 23.5t92 62.5t60.5 92.5t34.5 111.5t10.5 122zM751 1333q0 -15 -18 -24l-324 -152q-12 -4 -16 -4q-17 0 -25 14l-18 29q-6 12 -6 18q0 15 14 23l301 184q12 9 25 9
t26 -19l35 -55q6 -12 6 -23z" />
    <glyph glyph-name="ocircumflex" unicode="&#xf4;" horiz-adv-x="1069" 
d="M985 496q0 -146 -52 -261t-157.5 -184t-249.5 -69q-112 0 -198 39.5t-138.5 109.5t-79 162t-26.5 203q0 108 30 200.5t86.5 162t143.5 109.5t195 40q221 0 333.5 -140t112.5 -372zM850 492q0 64 -9.5 121.5t-33 112t-58 94t-88.5 63.5t-122 24q-71 0 -127 -24.5
t-91.5 -64t-59 -93.5t-33 -109.5t-9.5 -115.5q0 -64 9 -121.5t31 -113t56 -96t89 -65t124 -24.5t124.5 23.5t92 62.5t60.5 92.5t34.5 111.5t10.5 122zM831 1174q0 -11 -8 -19l-18 -20q-13 -13 -21 -13q-9 0 -20 8l-228 170l-227 -170q-11 -8 -20 -8q-11 0 -21 13l-16 20
q-10 13 -10 23q0 8 12 20l242 219q17 13 28 13h25q11 0 28 -13l242 -219q12 -9 12 -24z" />
    <glyph glyph-name="otilde" unicode="&#xf5;" horiz-adv-x="1069" 
d="M985 496q0 -146 -52 -261t-157.5 -184t-249.5 -69q-112 0 -198 39.5t-138.5 109.5t-79 162t-26.5 203q0 108 30 200.5t86.5 162t143.5 109.5t195 40q221 0 333.5 -140t112.5 -372zM850 492q0 64 -9.5 121.5t-33 112t-58 94t-88.5 63.5t-122 24q-71 0 -127 -24.5
t-91.5 -64t-59 -93.5t-33 -109.5t-9.5 -115.5q0 -64 9 -121.5t31 -113t56 -96t89 -65t124 -24.5t124.5 23.5t92 62.5t60.5 92.5t34.5 111.5t10.5 122zM864 1343q0 -15 -16 -28q-114 -88 -213 -88q-41 0 -108.5 35.5t-102.5 35.5q-34 0 -133 -51q-21 -12 -33 -12
q-17 0 -23 20l-16 54q-8 20 -8 22q0 14 29 33q106 66 184 66q44 0 121 -37t102 -37q24 0 127 57q17 10 31 10q18 0 28 -18l21 -37q10 -17 10 -25z" />
    <glyph glyph-name="odieresis" unicode="&#xf6;" horiz-adv-x="1069" 
d="M985 496q0 -146 -52 -261t-157.5 -184t-249.5 -69q-112 0 -198 39.5t-138.5 109.5t-79 162t-26.5 203q0 108 30 200.5t86.5 162t143.5 109.5t195 40q221 0 333.5 -140t112.5 -372zM850 492q0 64 -9.5 121.5t-33 112t-58 94t-88.5 63.5t-122 24q-71 0 -127 -24.5
t-91.5 -64t-59 -93.5t-33 -109.5t-9.5 -115.5q0 -64 9 -121.5t31 -113t56 -96t89 -65t124 -24.5t124.5 23.5t92 62.5t60.5 92.5t34.5 111.5t10.5 122zM811 1337q0 -40 -29 -65t-65 -25q-37 0 -68 25t-31 65q0 42 30 67.5t69 25.5q38 0 66 -26t28 -67zM459 1337
q0 -40 -29 -65t-66 -25t-67.5 25t-30.5 65q0 42 29.5 67.5t68.5 25.5q38 0 66.5 -26t28.5 -67z" />
    <glyph glyph-name="divide" unicode="&#xf7;" horiz-adv-x="1024" 
d="M612 897q0 -45 -31.5 -73.5t-72.5 -28.5t-75 28.5t-34 73.5q0 47 32.5 74.5t76.5 27.5q42 0 73 -28.5t31 -73.5zM924 516q0 -24 -6.5 -31.5t-28.5 -7.5h-756q-25 0 -33 6.5t-8 24.5v53q0 19 7 25t28 6h756q27 0 34 -6.5t7 -28.5v-41zM612 182q0 -45 -31.5 -72.5
t-72.5 -27.5t-75 27.5t-34 72.5q0 47 32.5 75t76.5 28q42 0 73 -29t31 -74z" />
    <glyph glyph-name="oslash" unicode="&#xf8;" horiz-adv-x="1077" 
d="M989 498q0 -107 -30.5 -200t-87 -164t-145 -111.5t-196.5 -40.5q-115 0 -202 41l-25 -41q-18 -33 -35 -33q-3 0 -5.5 1t-5.5 2.5l-5 2.5l-37 18q-22 11 -22 23q0 4 4 12l45 72q-76 69 -115 178t-39 240q0 106 30.5 198.5t87 162t144 109.5t195.5 40q143 0 237 -58l35 54
q24 36 37 36q4 0 12 -4l37 -20q25 -14 25 -25q0 -4 -4 -12l-60 -96q125 -137 125 -385zM854 494q0 160 -63 272l-406 -651q64 -39 147 -39q69 0 124.5 24t92 64.5t60.5 95t34.5 113t10.5 121.5zM721 850q-70 61 -178 61q-70 0 -126.5 -24.5t-92 -65t-59 -95t-33 -110
t-9.5 -114.5q0 -200 84 -316z" />
    <glyph glyph-name="ugrave" unicode="&#xf9;" horiz-adv-x="1050" 
d="M913 37q0 -37 -32 -37h-64q-33 0 -33 37l-2 72q-142 -127 -321 -127q-148 0 -232 81q-92 92 -92 291v596q0 37 33 37h66q32 0 32 -37v-577q0 -158 60 -226q52 -59 166 -59q70 0 152 40.5t136 94.5v727q0 37 33 37h66q32 0 32 -37v-913zM727 1223q0 -7 -6 -19l-18 -28
q-9 -15 -25 -15q-4 0 -16 4l-324 152q-18 9 -18 24q0 11 6 23l35 55q13 19 26 19q14 0 25 -8l301 -185q14 -8 14 -22z" />
    <glyph glyph-name="uacute" unicode="&#xfa;" horiz-adv-x="1050" 
d="M913 37q0 -37 -32 -37h-64q-33 0 -33 37l-2 72q-142 -127 -321 -127q-148 0 -232 81q-92 92 -92 291v596q0 37 33 37h66q32 0 32 -37v-577q0 -158 60 -226q52 -59 166 -59q70 0 152 40.5t136 94.5v727q0 37 33 37h66q32 0 32 -37v-913zM747 1333q0 -15 -18 -24l-324 -152
q-12 -4 -16 -4q-17 0 -25 14l-18 29q-6 12 -6 18q0 15 14 23l301 184q12 9 25 9t26 -19l35 -55q6 -12 6 -23z" />
    <glyph glyph-name="ucircumflex" unicode="&#xfb;" horiz-adv-x="1050" 
d="M913 37q0 -37 -32 -37h-64q-33 0 -33 37l-2 72q-142 -127 -321 -127q-148 0 -232 81q-92 92 -92 291v596q0 37 33 37h66q32 0 32 -37v-577q0 -158 60 -226q52 -59 166 -59q70 0 152 40.5t136 94.5v727q0 37 33 37h66q32 0 32 -37v-913zM811 1174q0 -11 -8 -19l-18 -20
q-13 -13 -21 -13q-9 0 -20 8l-228 170l-227 -170q-11 -8 -20 -8q-11 0 -21 13l-16 20q-10 13 -10 23q0 8 12 20l242 219q17 13 28 13h25q11 0 28 -13l242 -219q12 -9 12 -24z" />
    <glyph glyph-name="udieresis" unicode="&#xfc;" horiz-adv-x="1050" 
d="M913 37q0 -37 -32 -37h-64q-33 0 -33 37l-2 72q-142 -127 -321 -127q-148 0 -232 81q-92 92 -92 291v596q0 37 33 37h66q32 0 32 -37v-577q0 -158 60 -226q52 -59 166 -59q70 0 152 40.5t136 94.5v727q0 37 33 37h66q32 0 32 -37v-913zM805 1337q0 -40 -29 -65t-65 -25
q-37 0 -68 25t-31 65q0 42 30 67.5t69 25.5q38 0 66 -26t28 -67zM453 1337q0 -40 -29 -65t-66 -25t-67.5 25t-30.5 65q0 42 29.5 67.5t68.5 25.5q38 0 66.5 -26t28.5 -67z" />
    <glyph glyph-name="yacute" unicode="&#xfd;" horiz-adv-x="952" 
d="M932 971q0 -5 -4 -17l-400 -1077q-68 -183 -152.5 -255.5t-236.5 -72.5q-21 0 -82 9q-20 3 -20 22v6l10 66q2 22 23 22h6q60 -6 76 -6q160 0 223 158l63 156l-362 976q-2 4 -2 13q0 16 18 16h96q26 0 33 -22l289 -820l285 820q8 22 32 22h80q25 0 25 -16zM741 1333
q0 -15 -18 -24l-324 -152q-12 -4 -16 -4q-17 0 -25 14l-18 29q-6 12 -6 18q0 15 14 23l301 184q12 9 25 9t26 -19l35 -55q6 -12 6 -23z" />
    <glyph glyph-name="thorn" unicode="&#xfe;" horiz-adv-x="1056" 
d="M975 500q0 -105 -29 -197.5t-83 -164.5t-139.5 -114t-191.5 -42q-81 0 -157.5 33t-124.5 94v-517q0 -32 -39 -32h-59q-33 0 -33 37v1163v647q0 17 6.5 22.5t26.5 8.5l51 8h10q31 0 31 -37v-539q52 63 138.5 100.5t176.5 37.5q187 0 301.5 -131t114.5 -377zM840 500
q0 201 -82 303t-219 102q-82 0 -164 -43t-125 -108v-502q36 -72 113 -120t161 -48q151 0 233.5 113.5t82.5 302.5z" />
    <glyph glyph-name="ydieresis" unicode="&#xff;" horiz-adv-x="952" 
d="M932 971q0 -5 -4 -17l-400 -1077q-68 -183 -152.5 -255.5t-236.5 -72.5q-21 0 -82 9q-20 3 -20 22v6l10 66q2 22 23 22h6q60 -6 76 -6q160 0 223 158l63 156l-362 976q-2 4 -2 13q0 16 18 16h96q26 0 33 -22l289 -820l285 820q8 22 32 22h80q25 0 25 -16zM772 1337
q0 -40 -29 -65t-65 -25q-37 0 -68 25t-31 65q0 42 30 67.5t69 25.5q38 0 66 -26t28 -67zM420 1337q0 -40 -29 -65t-66 -25t-67.5 25t-30.5 65q0 42 29.5 67.5t68.5 25.5q38 0 66.5 -26t28.5 -67z" />
    <glyph glyph-name="Cacute" unicode="&#x106;" horiz-adv-x="1185" 
d="M1139 98q0 -14 -25 -26q-179 -90 -387 -90q-125 0 -228.5 38.5t-176 105t-122 158.5t-73 198t-23.5 223q0 142 42 271t120 231t200 162.5t271 60.5q214 0 369 -95q22 -13 22 -26q0 -10 -6 -19l-26 -49q-8 -16 -21 -16q-9 0 -18 6q-139 86 -309 86q-103 0 -194 -43.5
t-155 -120.5q-139 -171 -139 -438q0 -93 16 -180.5t53.5 -168.5t92.5 -141.5t138 -96.5t185 -36q79 0 170.5 21.5t161.5 58.5q12 6 21 6q12 0 18 -16l19 -43q4 -8 4 -21zM1057 1731q0 -15 -19 -25l-323 -152q-12 -4 -17 -4q-15 0 -24 15l-19 28q-6 12 -6 19q0 13 15 22
l301 185q11 8 24 8q14 0 27 -19l35 -55q6 -12 6 -22z" />
    <glyph glyph-name="cacute" unicode="&#x107;" horiz-adv-x="864" 
d="M838 61q0 -13 -21 -22q-120 -57 -264 -57q-157 0 -264.5 67.5t-156 181.5t-48.5 267q0 146 55.5 261t165 182t256.5 67q64 0 136 -17.5t120 -44.5q19 -10 19 -22q0 -2 -5 -17l-12 -37q-9 -22 -20 -22q-3 0 -15 4q-117 55 -225 55q-154 0 -247 -110t-93 -295
q0 -67 11 -126.5t36 -114.5t63 -94.5t95 -63t129 -23.5q127 0 238 49q12 4 14 4q16 0 20 -18l11 -37q2 -6 2 -17zM870 1333q0 -15 -18 -24l-324 -152q-12 -4 -16 -4q-17 0 -25 14l-18 29q-6 12 -6 18q0 15 14 23l301 184q12 9 25 9t26 -19l35 -55q6 -12 6 -23z" />
    <glyph glyph-name="Ccaron" unicode="&#x10c;" horiz-adv-x="1185" 
d="M1139 98q0 -14 -25 -26q-179 -90 -387 -90q-125 0 -228.5 38.5t-176 105t-122 158.5t-73 198t-23.5 223q0 142 42 271t120 231t200 162.5t271 60.5q214 0 369 -95q22 -13 22 -26q0 -10 -6 -19l-26 -49q-8 -16 -21 -16q-9 0 -18 6q-139 86 -309 86q-103 0 -194 -43.5
t-155 -120.5q-139 -171 -139 -438q0 -93 16 -180.5t53.5 -168.5t92.5 -141.5t138 -96.5t185 -36q79 0 170.5 21.5t161.5 58.5q12 6 21 6q12 0 18 -16l19 -43q4 -8 4 -21zM1010 1821q0 -11 -13 -21l-241 -219q-12 -12 -29 -12h-25q-16 0 -28 12l-242 219q-12 9 -12 23
q0 12 8 20l18 21q12 12 23 12q6 0 18 -8l228 -170l227 170q11 8 21 8q11 0 20 -12l16 -21q11 -15 11 -22z" />
    <glyph glyph-name="ccaron" unicode="&#x10d;" horiz-adv-x="864" 
d="M838 61q0 -13 -21 -22q-120 -57 -264 -57q-157 0 -264.5 67.5t-156 181.5t-48.5 267q0 146 55.5 261t165 182t256.5 67q64 0 136 -17.5t120 -44.5q19 -10 19 -22q0 -2 -5 -17l-12 -37q-9 -22 -20 -22q-3 0 -15 4q-117 55 -225 55q-154 0 -247 -110t-93 -295
q0 -67 11 -126.5t36 -114.5t63 -94.5t95 -63t129 -23.5q127 0 238 49q12 4 14 4q16 0 20 -18l11 -37q2 -6 2 -17zM840 1374q0 -10 -13 -20l-241 -219q-13 -13 -29 -13h-25q-15 0 -28 13l-242 219q-12 9 -12 22t8 21l18 20q13 13 23 13q5 0 18 -9l228 -170l227 170q12 9 21 9
q10 0 20 -13l16 -20q11 -15 11 -23z" />
    <glyph glyph-name="Dcroat" unicode="&#x110;" horiz-adv-x="1337" 
d="M1237 694q0 -171 -52 -312.5t-151 -234.5q-157 -147 -502 -147h-327q-29 0 -38 9t-9 34v578h-97q-26 0 -33.5 6t-7.5 24v54q0 18 7 24t28 6h103v617q0 30 12.5 42.5t44.5 12.5h229q213 0 321 -20t200 -80q129 -84 200.5 -244t71.5 -369zM453 659q0 -23 -6.5 -30.5
t-28.5 -7.5h-117v-510h182q169 0 269 23.5t170 94.5q161 161 161 467q0 158 -46.5 289.5t-135.5 204.5q-128 106 -385 106h-215v-561h111q27 0 34 -6.5t7 -28.5v-41z" />
    <glyph glyph-name="dcroat" unicode="&#x111;" horiz-adv-x="1077" 
d="M1063 1214q0 -26 -11 -34.5t-48 -8.5h-64v-1134q0 -17 -7 -27t-18 -10h-59q-22 0 -30.5 8t-8.5 29l-2 86q-54 -65 -138.5 -103t-176.5 -38q-86 0 -156.5 27.5t-118 75t-80 113t-47 139t-14.5 155.5q0 231 124.5 373.5t321.5 142.5q76 0 155.5 -33.5t123.5 -91.5v288h-92
q-32 0 -42.5 9t-10.5 34v48q0 23 10 32t43 9h92v102q0 20 5 28t22 9l73 10h9q22 0 22 -33v-116h64q38 0 48.5 -8t10.5 -33v-48zM809 240v497q-35 71 -110 119.5t-158 48.5q-148 0 -235 -108.5t-87 -300.5q0 -187 81 -299.5t220 -112.5q81 0 163.5 45.5t125.5 110.5z" />
    <glyph glyph-name="dotlessi" unicode="&#x131;" horiz-adv-x="450" 
d="M289 37q0 -37 -33 -37h-66q-32 0 -32 37v913q0 37 32 37h66q33 0 33 -37v-913z" />
    <glyph glyph-name="Lslash" unicode="&#x141;" horiz-adv-x="876" 
d="M846 27q0 -16 -5 -21.5t-22 -5.5h-629q-32 0 -32 37v518l-109 -106q-19 -18 -30 -15t-11 21v53q0 6 1.5 11.5t3.5 9.5t6 9.5t6.5 8t8.5 8t9 8.5l115 115v692q0 37 32 37h78q33 0 33 -37v-551l133 133q20 19 30.5 15t10.5 -27v-43q0 -8 -1.5 -14.5t-3 -10.5t-6 -10l-6 -8
t-9 -9t-9.5 -9l-139 -138v-587h512q20 0 26.5 -5t6.5 -20v-59z" />
    <glyph glyph-name="lslash" unicode="&#x142;" horiz-adv-x="407" 
d="M446 897q0 -7 -0.5 -12t-3 -10.5t-3.5 -8t-5.5 -8t-5.5 -7t-8 -8t-8 -7.5l-144 -142v-657q0 -37 -32 -37h-66q-33 0 -33 37v526l-117 -114q-19 -18 -29.5 -15t-10.5 21v53q0 6 1.5 12t3 9.5t6 9t6.5 7.5l9 9l8 8l123 123v719q0 19 5 26.5t22 10.5l72 10h2h6q24 0 24 -33
v-604l138 137q20 19 30 15t10 -27v-43z" />
    <glyph glyph-name="OE" unicode="&#x152;" horiz-adv-x="1871" 
d="M1780 29q0 -16 -6 -22.5t-27 -6.5h-684q-23 0 -30 7t-7 30v86q-70 -68 -169.5 -104.5t-201.5 -36.5q-262 0 -404 187t-142 529q0 221 75.5 388.5t207 255.5t300.5 88q226 0 334 -142v84q0 20 7.5 27.5t27.5 7.5h686q29 0 29 -25v-8l-7 -49q-1 -18 -11 -22.5t-36 -4.5
h-555v-497h490q19 0 27 -7t8 -24v-49q0 -18 -7 -24.5t-26 -6.5h-492v-579h578q21 0 28 -5.5t7 -21.5v-55zM1026 260v881q-45 74 -131 124t-207 50q-126 0 -223.5 -79t-150 -217.5t-52.5 -313.5q0 -277 107.5 -443t300.5 -166q99 0 196.5 44t159.5 120z" />
    <glyph glyph-name="oe" unicode="&#x153;" horiz-adv-x="1761" 
d="M1686 582q0 -33 -3 -60q-1 -22 -14 -28.5t-43 -6.5h-180h-467q0 -176 78 -292q38 -57 108 -89t154 -32q65 0 138 14t120 35q12 4 14 4q17 0 21 -18l10 -35q2 -6 2 -17q0 -13 -20 -22q-57 -27 -139 -41t-154 -14q-103 0 -191.5 32.5t-142.5 89.5q-43 46 -74 109
q-113 -231 -371 -231q-112 0 -198.5 40t-139.5 110.5t-79.5 162.5t-26.5 201q0 106 30.5 199t87 163.5t144 111t195.5 40.5q269 0 366 -232q58 108 158.5 170t235.5 62q176 0 278.5 -121t102.5 -305zM1552 618q0 124 -66 209.5t-188 85.5q-70 0 -127.5 -27.5t-96 -74.5
t-61.5 -106t-30 -125h567q2 14 2 38zM854 489q0 61 -9.5 119t-33 113.5t-58 97t-89 67t-121.5 25.5q-70 0 -126.5 -25t-92 -66t-59 -96t-33 -110.5t-9.5 -115.5q0 -63 9 -121t32 -114t57.5 -97t89.5 -66.5t124 -25.5t124.5 24t91 63.5t59.5 94t34 112.5t10 121z" />
    <glyph glyph-name="Scaron" unicode="&#x160;" horiz-adv-x="995" 
d="M911 365q0 -125 -65.5 -213.5t-167.5 -129t-227 -40.5q-157 0 -318 53q-27 9 -27 28q0 6 3 15l20 67q6 19 23 19q4 0 20 -4q158 -58 283 -58q84 0 152.5 24.5t115.5 83.5t47 146q0 88 -52 149.5t-147 115.5l-254 143q-217 123 -217 319q0 82 35 149.5t93.5 109.5
t131.5 65t152 23q167 0 301 -56q27 -12 27 -31q0 -8 -2 -14l-21 -57q-6 -19 -24 -19q-7 0 -19 4q-144 58 -254 58q-118 0 -194 -58q-80 -60 -80 -149q0 -83 44 -139.5t126 -102.5l213 -121q53 -30 91.5 -56t76.5 -61t61.5 -72t38 -86t14.5 -105zM790 1816q0 -11 -12 -20
l-242 -219q-13 -13 -28 -13h-25q-15 0 -28 13l-242 219q-12 9 -12 22t8 21l18 20q13 13 23 13q4 0 18 -9l227 -170l228 170q12 9 20 9q11 0 21 -13l16 -20q10 -13 10 -23z" />
    <glyph glyph-name="scaron" unicode="&#x161;" horiz-adv-x="770" 
d="M709 281q0 -131 -99 -215t-264 -84q-70 0 -142 18.5t-118 42.5q-18 9 -18 18q0 7 2 11l24 63q5 12 12 12t11 -2q54 -27 118.5 -44t116.5 -17q104 0 166 48t62 132q0 66 -44 108.5t-128 76.5l-123 49q-211 83 -211 247q0 121 94 192t233 71q131 0 248 -56q17 -7 17 -16
q0 -1 -1 -3t-1 -3l-21 -58q-5 -16 -16 -16q-3 0 -15 4q-40 20 -101 34.5t-110 14.5q-89 0 -140.5 -41t-51.5 -106q0 -61 33.5 -95.5t109.5 -66.5l146 -61q211 -88 211 -258zM675 1374q0 -11 -12 -20l-242 -219q-13 -13 -28 -13h-25q-15 0 -28 13l-242 219q-12 9 -12 22t8 21
l18 20q13 13 23 13q4 0 18 -9l227 -170l228 170q12 9 20 9q11 0 21 -13l16 -20q10 -13 10 -23z" />
    <glyph glyph-name="Ydieresis" unicode="&#x178;" horiz-adv-x="1069" 
d="M1034 1393q0 -8 -10 -31l-410 -821v-510q0 -19 -5.5 -25t-20.5 -6h-88q-15 0 -21 7t-6 26v506l-434 831q-6 12 -6 19q0 18 30 18h68q26 0 39.5 -7t22.5 -26l360 -712h2l344 706q12 27 21 33t36 6h50q28 0 28 -14zM809 1667q0 -40 -29 -65t-65 -25q-37 0 -68 25t-31 65
q0 42 30 67.5t69 25.5q38 0 66 -26t28 -67zM457 1667q0 -40 -29 -65t-66 -25t-67.5 25t-30.5 65q0 42 29.5 67.5t68.5 25.5q38 0 66.5 -26t28.5 -67z" />
    <glyph glyph-name="Zcaron" unicode="&#x17d;" horiz-adv-x="1046" 
d="M999 27q0 -16 -5 -21.5t-23 -5.5h-908q-24 0 -24 23v34q0 22 14 45l758 1194h-657q-27 0 -33 4.5t-6 20.5v61q0 16 4 20.5t22 4.5h815q19 0 26 -5t7 -20v-26q0 -28 -14 -51l-762 -1194h756q18 0 24 -4.5t6 -18.5v-61zM870 1808q0 -11 -12 -20l-242 -219q-13 -13 -28 -13
h-25q-15 0 -28 13l-242 219q-12 9 -12 22t8 21l18 20q13 13 23 13q4 0 18 -9l227 -170l228 170q12 9 20 9q11 0 21 -13l16 -20q10 -13 10 -23z" />
    <glyph glyph-name="zcaron" unicode="&#x17e;" horiz-adv-x="782" 
d="M743 25q0 -25 -20 -25h-651q-13 0 -21 9t-8 20v30q0 26 18 56l508 776h-460q-27 0 -27 24v48q0 24 27 24h581q31 0 31 -26v-33q0 -18 -16 -45l-521 -787h535q24 0 24 -24v-47zM702 1374q0 -11 -12 -20l-242 -219q-13 -13 -28 -13h-25q-15 0 -28 13l-242 219q-12 9 -12 22
t8 21l18 20q13 13 23 13q4 0 18 -9l227 -170l228 170q12 9 20 9q11 0 21 -13l16 -20q10 -13 10 -23z" />
    <glyph glyph-name="florin" unicode="&#x192;" horiz-adv-x="1105" 
d="M1143 1386q0 -8 -2 -12l-21 -53q-3 -10 -12 -10q-10 0 -18 4q-56 24 -127 24q-135 0 -197 -112q-30 -54 -57 -199l-50 -260h267q22 0 22 -12q0 -1 -1 -4t-1 -4l-12 -54q-3 -13 -9 -17.5t-18 -4.5h-266l-117 -602q-15 -84 -39 -164q-40 -137 -135.5 -213t-230.5 -76
q-79 0 -156 31q-16 5 -16 20q0 9 2 13l16 51q4 12 17 12q4 0 16 -4q62 -27 125 -27q136 0 199 115q30 54 57 199l125 645h-125q-17 0 -17 10q0 1 1.5 4.5t1.5 5.5l10 56q1 12 6.5 16t19.5 4h123l39 217q14 79 39 162q40 137 137 214t232 77q77 0 155 -31q17 -6 17 -21z" />
    <glyph glyph-name="circumflex" unicode="&#x2c6;" 
d="M614 1174q0 -11 -8 -19l-18 -20q-13 -13 -21 -13q-9 0 -20 8l-228 170l-227 -170q-11 -8 -20 -8q-11 0 -21 13l-16 20q-10 13 -10 23q0 8 12 20l242 219q17 13 28 13h25q11 0 28 -13l242 -219q12 -9 12 -24z" />
    <glyph glyph-name="caron" unicode="&#x2c7;" 
d="M614 1374q0 -11 -12 -20l-242 -219q-13 -13 -28 -13h-25q-15 0 -28 13l-242 219q-12 9 -12 22t8 21l18 20q13 13 23 13q4 0 18 -9l227 -170l228 170q12 9 20 9q11 0 21 -13l16 -20q10 -13 10 -23z" />
    <glyph glyph-name="breve" unicode="&#x2d8;" 
d="M578 1405q0 -50 -33 -96t-80 -72q-62 -35 -143 -35q-89 0 -156 39q-45 27 -77 71.5t-32 92.5q0 16 7 20.5t24 4.5h49q21 0 28.5 -5t16.5 -24q45 -88 135 -88q93 0 136 88q9 19 16.5 24t28.5 5h49q17 0 24 -4.5t7 -20.5z" />
    <glyph glyph-name="dotaccent" unicode="&#x2d9;" 
d="M442 1307q0 -55 -40 -90t-89 -35q-50 0 -91.5 34t-41.5 89q0 57 40 91t93 34q52 0 90.5 -33.5t38.5 -89.5z" />
    <glyph glyph-name="ring" unicode="&#x2da;" 
d="M481 1266q0 -66 -48.5 -114t-115.5 -48q-66 0 -115.5 48t-49.5 114t49.5 115t115.5 49q67 0 115.5 -49t48.5 -115zM383 1266q0 28 -19 46.5t-47 18.5t-47.5 -18.5t-19.5 -46.5t19.5 -47t47.5 -19t47 19t19 47z" />
    <glyph glyph-name="ogonek" unicode="&#x2db;" 
d="M526 -348q0 -23 -24 -31q-83 -31 -166 -31q-95 0 -145 47t-50 113q0 149 197 250h111q-98 -74 -140.5 -125.5t-42.5 -101.5q0 -86 113 -86q54 0 110 18q1 0 3.5 1t3.5 1q17 0 20 -14l8 -29q2 -4 2 -12z" />
    <glyph glyph-name="tilde" unicode="&#x2dc;" 
d="M649 1343q0 -15 -16 -28q-114 -88 -213 -88q-41 0 -108.5 35.5t-102.5 35.5q-34 0 -133 -51q-21 -12 -33 -12q-17 0 -23 20l-16 54q-8 20 -8 22q0 14 29 33q106 66 184 66q44 0 121 -37t102 -37q24 0 127 57q17 10 31 10q18 0 28 -18l21 -37q10 -17 10 -25z" />
    <glyph glyph-name="hungarumlaut" unicode="&#x2dd;" 
d="M793 1331q0 -15 -19 -24l-323 -152q-12 -4 -17 -4q-16 0 -24 14l-19 29q-6 12 -6 18q0 15 14 23l301 184q11 8 23 8q17 0 29 -18l34 -55q7 -14 7 -23zM332 1331q0 -15 -19 -24l-323 -152q-12 -4 -19 -4q-14 0 -22 14l-19 29q-8 16 -8 18q0 13 17 23l301 184q11 8 22 8
q15 0 27 -18l35 -55q8 -16 8 -23z" />
    <glyph glyph-name="endash" unicode="&#x2013;" horiz-adv-x="1024" 
d="M1024 516q0 -24 -6.5 -31.5t-28.5 -7.5h-948q-25 0 -33 6.5t-8 24.5v53q0 19 7 25t28 6h948q27 0 34 -6.5t7 -28.5v-41z" />
    <glyph glyph-name="emdash" unicode="&#x2014;" horiz-adv-x="2048" 
d="M2048 516q0 -24 -6.5 -31.5t-28.5 -7.5h-1972q-25 0 -33 6.5t-8 24.5v53q0 19 7 25t28 6h1972q27 0 34 -6.5t7 -28.5v-41z" />
    <glyph glyph-name="quoteleft" unicode="&#x2018;" 
d="M399 1397q0 -7 -10 -17q-63 -63 -63 -127q0 -25 30.5 -63.5t30.5 -65.5q0 -40 -27 -66t-67 -26q-44 0 -72 36t-28 83q0 76 42 155t103 121q18 11 24 11q11 0 21 -13l10 -12q6 -6 6 -16z" />
    <glyph glyph-name="quoteright" unicode="&#x2019;" 
d="M434 1319q0 -76 -42 -155.5t-103 -121.5q-17 -10 -25 -10q-11 0 -20 12l-11 13q-6 6 -6 16q0 6 11 17q63 63 63 127q0 25 -30.5 63.5t-30.5 65.5q0 40 27 66t67 26q44 0 72 -36t28 -83z" />
    <glyph glyph-name="quotesinglbase" unicode="&#x201a;" 
d="M434 16q0 -76 -42 -155t-103 -121q-17 -10 -25 -10q-11 0 -20 12l-11 12q-6 6 -6 17q0 5 11 16q63 63 63 127q0 25 -30.5 63.5t-30.5 65.5q0 40 27 66t67 26q44 0 72 -36t28 -83z" />
    <glyph glyph-name="quotedblleft" unicode="&#x201c;" horiz-adv-x="655" 
d="M594 1397q0 -7 -10 -17q-64 -64 -64 -127q0 -25 31 -63.5t31 -65.5q0 -39 -27.5 -65.5t-67.5 -26.5q-44 0 -72 36t-28 83q0 76 42 155t103 121q18 11 25 11q11 0 21 -13l10 -12q6 -6 6 -16zM252 1397q0 -7 -10 -17q-64 -64 -64 -127q0 -25 31 -63.5t31 -65.5
q0 -39 -27.5 -65.5t-67.5 -26.5q-44 0 -72 36t-28 83q0 76 42 155t103 121q18 11 25 11q11 0 21 -13l10 -12q6 -6 6 -16z" />
    <glyph glyph-name="quotedblright" unicode="&#x201d;" horiz-adv-x="655" 
d="M612 1319q0 -76 -42 -155.5t-103 -121.5q-17 -10 -25 -10q-11 0 -20 12l-10 13q-6 6 -6 16q0 7 10 17q63 63 63 127q0 25 -30.5 63.5t-30.5 65.5q0 40 27 66t67 26q44 0 72 -36t28 -83zM270 1319q0 -76 -42 -155.5t-103 -121.5q-17 -10 -25 -10q-11 0 -20 12l-10 13
q-7 7 -7 16q0 6 11 17q63 63 63 127q0 25 -30.5 63.5t-30.5 65.5q0 40 27 66t67 26q44 0 72 -36t28 -83z" />
    <glyph glyph-name="quotedblbase" unicode="&#x201e;" horiz-adv-x="655" 
d="M612 16q0 -76 -42 -155t-103 -121q-17 -10 -25 -10q-11 0 -20 12l-10 12q-6 6 -6 17q0 6 10 16q63 63 63 127q0 25 -30.5 63.5t-30.5 65.5q0 40 27 66t67 26q44 0 72 -36t28 -83zM270 16q0 -76 -42 -155t-103 -121q-17 -10 -25 -10q-11 0 -20 12l-10 12q-7 7 -7 17
q0 5 11 16q63 63 63 127q0 25 -30.5 63.5t-30.5 65.5q0 40 27 66t67 26q44 0 72 -36t28 -83z" />
    <glyph glyph-name="dagger" unicode="&#x2020;" horiz-adv-x="1050" 
d="M926 815q0 -16 -7.5 -21.5t-25.5 -5.5h-2l-303 5l-8 -756q0 -37 -33 -37h-45q-33 0 -33 37l-8 756l-299 -5h-2q-19 0 -27 5.5t-8 21.5v57q0 18 6.5 25.5t24.5 7.5h2l303 -4l-4 469v2q0 19 5 27t21 8h76q19 0 26 -7t7 -26v0l-4 -473l307 4h2q18 0 23.5 -7.5t5.5 -25.5v-57
z" />
    <glyph glyph-name="daggerdbl" unicode="&#x2021;" horiz-adv-x="1050" 
d="M926 924q0 -15 -6.5 -20t-24.5 -5h-4l-303 4l-4 -276l270 4h2q18 0 24.5 -7.5t6.5 -25.5v-57q0 -16 -8 -21.5t-27 -5.5h-2l-266 4l-4 -481q0 -37 -33 -37h-45q-33 0 -33 37l-4 481l-262 -4h-2q-19 0 -27 5.5t-8 21.5v57q0 18 6.5 25.5t24.5 7.5h2l264 -4l-2 276l-299 -4
h-4q-18 0 -25.5 5t-7.5 20v57q0 18 6.5 25.5t24.5 7.5h2l303 -4l-4 360v2q0 19 5 27t21 8h76q18 0 25.5 -6.5t7.5 -24.5v-2l-4 -364l307 4h2q18 0 23.5 -7.5t5.5 -25.5v-57z" />
    <glyph glyph-name="bullet" unicode="&#x2022;" horiz-adv-x="1044" 
d="M860 545q0 -133 -100.5 -227.5t-241.5 -94.5t-242.5 94.5t-101.5 227.5t101.5 228t242.5 95t241.5 -95t100.5 -228z" />
    <glyph glyph-name="ellipsis" unicode="&#x2026;" horiz-adv-x="2048" 
d="M1776 76q0 -45 -32 -74t-73 -29t-75.5 29t-34.5 74q0 47 32.5 73.5t77.5 26.5q42 0 73.5 -27.5t31.5 -72.5zM1126 76q0 -45 -31.5 -74t-72.5 -29t-75 29t-34 74q0 47 32.5 73.5t76.5 26.5q42 0 73 -27.5t31 -72.5zM479 76q0 -45 -32.5 -74t-73.5 -29t-75 29t-34 74
q0 47 32.5 73.5t76.5 26.5q42 0 74 -27.5t32 -72.5z" />
    <glyph glyph-name="perthousand" unicode="&#x2030;" horiz-adv-x="2048" 
d="M1925 291q0 -49 -8.5 -93t-27.5 -84t-47.5 -69t-70.5 -46t-94 -17q-64 0 -114 25t-79.5 68.5t-44 97.5t-14.5 116q0 131 65.5 223t190.5 92q66 0 114.5 -26t76 -71.5t40.5 -99.5t13 -116zM651 1116q0 -49 -8.5 -93t-27.5 -84t-47.5 -69t-70.5 -46t-94 -17
q-85 0 -143.5 44.5t-83 111.5t-24.5 151q0 131 65.5 223.5t190.5 92.5q66 0 114.5 -26.5t75.5 -72t40 -99.5t13 -116zM1249 1372q0 -11 -8 -22l-944 -1356q-8 -14 -23 -14q-10 0 -28 12l-39 26q-12 9 -12 23t8 25l942 1351q9 15 22 15q11 0 31 -13l35 -20q16 -10 16 -27z
M1294 291q0 -84 -23.5 -151t-81 -112.5t-142.5 -45.5q-64 0 -114 25t-79.5 68.5t-44 97.5t-14.5 116q0 131 65.5 223t190.5 92q66 0 114.5 -26t75.5 -71.5t40 -99.5t13 -116zM1823 297q0 37 -7.5 74.5t-23 75.5t-45.5 61.5t-70 23.5q-43 0 -74 -25t-46 -65.5t-21 -79
t-6 -79.5q0 -39 7 -76.5t22.5 -75t46.5 -60t73 -22.5q34 0 60.5 17.5t42 43.5t25 61t13 65.5t3.5 60.5zM549 1122q0 37 -7.5 75t-23 75.5t-45.5 61.5t-70 24q-43 0 -74 -25t-46 -66t-21 -79.5t-6 -79.5q0 -39 7 -77t23 -75t47 -59.5t73 -22.5t72 25t44.5 66t20.5 79.5
t6 77.5zM1192 297q0 37 -7 74.5t-22.5 75.5t-45.5 61.5t-70 23.5q-43 0 -74.5 -25t-46 -65.5t-21 -79t-6.5 -79.5q0 -39 7 -77t23 -75t47 -59.5t73 -22.5t72 25t44.5 66t20.5 79.5t6 77.5z" />
    <glyph glyph-name="guilsinglleft" unicode="&#x2039;" horiz-adv-x="595" 
d="M438 764q0 -4 -4 -12l-176 -285l174 -295q4 -8 4 -14q0 -13 -14 -21l-35 -20q-9 -6 -14 -6q-11 0 -23 18l-229 311q-8 10 -8 25q0 17 10 29l227 301q11 14 23 14q8 0 14 -4l41 -23q10 -3 10 -18z" />
    <glyph glyph-name="guilsinglright" unicode="&#x203a;" horiz-adv-x="595" 
d="M483 457q0 -14 -12 -29l-227 -301q-11 -14 -23 -14q-8 0 -14 4l-39 22q-10 7 -10 19q0 4 4 12l174 287l-172 293q-4 8 -4 14q0 12 14 20l33 21q9 6 14 6q11 0 23 -18l229 -312q10 -13 10 -24z" />
    <glyph glyph-name="fraction" unicode="&#x2044;" horiz-adv-x="313" 
d="M631 1450q0 -14 -13 -33l-876 -1442q-11 -20 -19 -26t-28 -6h-68q-9 0 -15.5 6.5t-6.5 15.5q0 10 6 19l878 1443q14 24 26.5 32.5t39.5 8.5h49q27 0 27 -18z" />
    <glyph glyph-name="Euro" unicode="&#x20ac;" horiz-adv-x="1105" 
d="M1157 100q0 -15 -22 -26q-182 -92 -390 -92q-126 0 -225.5 38t-166 108t-108 160t-61.5 204h-174q-20 0 -25 5t-5 27v43q0 21 7.5 28t26.5 7h156q-4 66 -4 98h-135q-20 0 -25.5 5.5t-5.5 27.5v43q0 21 7.5 28t27.5 7h137q12 129 53 238.5t111 196t177.5 135.5t242.5 49
q208 0 362 -97q21 -12 21 -26q0 -3 -4 -19l-19 -49q-5 -16 -20 -16q-10 0 -19 6q-142 88 -309 88q-86 0 -157 -28t-119.5 -74.5t-84 -112.5t-54 -137.5t-25.5 -153.5h567q31 0 31 -23q0 -1 -1 -4.5t-1 -5.5l-11 -49q-3 -13 -3.5 -15.5t-4.5 -7.5t-8.5 -5.5t-15.5 -0.5h-557
q0 -32 4 -98h528q31 0 31 -22q0 -1 -1 -5t-1 -6l-11 -49q-6 -23 -12 -26q-5 -2 -20 -2h-500q77 -398 424 -398q79 0 170.5 21.5t161.5 58.5q12 6 20 6q13 0 19 -16l16 -43q4 -8 4 -21z" />
    <glyph glyph-name="trademark" unicode="&#x2122;" horiz-adv-x="1163" 
d="M1059 860q0 -16 -15 -16h-47q-16 0 -16 18l-8 402l-160 -410q-3 -10 -14 -10h-33q-8 0 -14 12l-174 408l-5 -406q0 -14 -16 -14h-43q-14 0 -14 16l8 531q0 16 14 16h47q16 0 21 -10l194 -453l183 451q6 12 16 12h49q15 0 15 -14l12 -531v-2zM489 1393l-4 -35
q-2 -15 -20 -15h-148v-481q0 -18 -16 -18h-43q-18 0 -18 18v481h-150q-14 0 -14 13v37q0 14 12 14h387q14 0 14 -12v-2z" />
    <glyph glyph-name="minus" unicode="&#x2212;" horiz-adv-x="1024" 
d="M809 516q0 -24 -6.5 -31.5t-28.5 -7.5h-500q-25 0 -33 6.5t-8 24.5v53q0 19 7 25t28 6h500q27 0 34 -6.5t7 -28.5v-41z" />
    <glyph glyph-name="apple" unicode="&#xf8ff;" horiz-adv-x="765" 
d="M770 664q0 -43 -18 -75.5t-48.5 -51.5t-66 -28t-74.5 -9q-82 0 -170 37q-16 8 -16 20q0 1 1 4.5t1 5.5l20 66q9 18 17 18q4 0 16 -4q84 -33 135 -33q25 0 40.5 10t15.5 27q0 27 -48 43l-92 35q-45 16 -74.5 53.5t-29.5 89.5q0 51 30.5 87.5t73 51.5t90.5 15q89 0 162 -33
q15 -6 15 -16q0 -8 -2 -12l-21 -72q-6 -12 -18 -12q-9 0 -11 2q-67 24 -114 24q-24 0 -36.5 -10.5t-12.5 -22.5q0 -23 38 -38l103 -41q42 -16 68 -49t26 -82zM408 1059q0 -3 -1 -12t-1 -13l-11 -51q0 -20 -14 -20q-8 0 -12 2q-44 14 -72 14q-38 0 -51 -21.5t-13 -58.5v-45
h103q26 0 26 -23v-59q0 -22 -24 -22h-105v-363q0 -18 -5.5 -25.5t-22.5 -7.5h-96q-29 0 -29 31v363h-51q-18 0 -23.5 6.5t-5.5 27.5v43q0 27 23 27h57v35q0 219 190 219q69 0 121 -25q17 -6 17 -22z" />
    <glyph glyph-name="fi" unicode="&#xfb01;" horiz-adv-x="980" 
d="M831 37q0 -37 -32 -37h-66q-31 0 -31 37v854h-385v-854q0 -37 -32 -37h-66q-33 0 -33 37v854h-125q-11 0 -14.5 3.5t-3.5 16.5v56q0 12 4.5 16t18.5 4h120v29q0 184 74 297q101 155 309 155q137 0 215 -30q21 -8 21 -25v-8l-10 -55q-4 -13 -13 -13q-2 0 -18 4
q-92 29 -193 29q-123 0 -186 -82q-68 -90 -68 -270v-31h482q32 0 32 -37v-913z" />
    <glyph glyph-name="fl" unicode="&#xfb02;" horiz-adv-x="1005" 
d="M860 37q0 -37 -33 -37h-65q-31 0 -31 37v1311q-82 22 -192 22q-121 0 -174 -76q-22 -32 -33 -81.5t-13 -87t-2 -101.5v-37h246q14 0 19.5 -4t5.5 -16v-54q0 -13 -5 -17.5t-18 -4.5h-248v-854q0 -37 -32 -37h-66q-33 0 -33 37v854h-125q-11 0 -14.5 3.5t-3.5 16.5v56
q0 12 4.5 16t18.5 4h120v29q0 137 15 211t65 135q40 49 108 77.5t156 28.5q106 0 232 -32l65 16h2h7q24 0 24 -33v-1382z" />
    </font>
</defs>
</svg>
