<?xml version="1.0" standalone="no"?>
<!DOCTYPE svg PUBLIC "-//W3C//DTD SVG 1.1//EN" "http://www.w3.org/Graphics/SVG/1.1/DTD/svg11.dtd" >
<svg xmlns="http://www.w3.org/2000/svg" xmlns:xlink="http://www.w3.org/1999/xlink" version="1.1">
<metadata>
Created by FontForge 20170731 at Fri Mar  5 16:26:06 2021
 By Aleksey,,,
Designed &#38; produced by Jason Smith. All rights reserved. Copyright Fontsmith 2002      http://www.fontsmith.com
</metadata>
<defs>
<font id="FSAlbert-Bold" horiz-adv-x="1148" >
  <font-face 
    font-family="FSAlbert"
    font-weight="700"
    font-stretch="normal"
    units-per-em="2048"
    panose-1="2 0 8 3 4 0 0 2 0 4"
    ascent="1577"
    descent="-471"
    x-height="993"
    cap-height="1417"
    bbox="-418 -451 2048 1888"
    underline-thickness="102"
    underline-position="-307"
    unicode-range="U+0020-FB02"
  />
<missing-glyph horiz-adv-x="2048" 
 />
    <glyph glyph-name=".notdef" horiz-adv-x="2048" 
 />
    <glyph glyph-name=".null" horiz-adv-x="0" 
 />
    <glyph glyph-name="nonmarkingreturn" horiz-adv-x="682" 
 />
    <glyph glyph-name="space" unicode=" " horiz-adv-x="495" 
 />
    <glyph glyph-name="exclam" unicode="!" horiz-adv-x="485" 
d="M389 1376l-24 -1022q0 -21 -9 -30t-30 -9h-111q-24 0 -32.5 9t-8.5 32l-22 1022q0 22 7.5 30.5t28.5 8.5h162q24 0 31.5 -8.5t7.5 -32.5zM403 106q0 -58 -42 -94.5t-95 -36.5q-54 0 -96.5 35t-42.5 94q0 61 41.5 97.5t97.5 36.5t96.5 -36t40.5 -96z" />
    <glyph glyph-name="quotedbl" unicode="&#x22;" horiz-adv-x="696" 
d="M596 1405l-16 -295q-1 -13 -3.5 -20t-10.5 -12t-23 -5h-105q-20 0 -28 8t-9 31l-14 295v4q0 18 8 25.5t27 7.5h139q20 0 27.5 -7t7.5 -26v-6zM307 1405l-14 -295q-2 -19 -9.5 -28t-29.5 -9h-104q-20 0 -26.5 7.5t-8.5 31.5l-15 295v4q0 18 8 25.5t27 7.5h137
q20 0 27.5 -7t7.5 -26v-6z" />
    <glyph glyph-name="numbersign" unicode="#" horiz-adv-x="1155" 
d="M1180 961l-13 -123q-1 -20 -10 -26.5t-33 -6.5h-204l-33 -227h200q17 0 23 -5.5t6 -19.5v-10l-12 -117q-3 -21 -11.5 -28t-29.5 -7h-207l-55 -352q-3 -21 -12.5 -30t-30.5 -9h-148q-18 0 -25 5.5t-7 19.5q0 10 2 16l57 350h-209l-59 -352q-3 -21 -13 -30t-34 -9h-138
q-37 0 -37 31v12l56 348h-191q-30 0 -30 27q0 2 1 6t1 6l16 115q3 19 12 26t33 7h195l32 227h-198q-29 0 -29 24q0 2 1 6.5t1 6.5l14 116q3 19 11.5 26t27.5 7h205l60 395q3 20 8.5 25.5t23.5 5.5h154q20 0 27.5 -5t7.5 -17q0 -2 -1 -8t-1 -9l-60 -387h205l57 391
q3 21 10 28t27 7h160q16 0 21.5 -5t5.5 -17v-13l-58 -391h203q14 0 19.5 -4t5.5 -16v-10zM700 805h-204l-35 -227h205z" />
    <glyph glyph-name="dollar" unicode="$" 
d="M1044 403q0 -176 -107 -283.5t-280 -135.5v-150q0 -19 -1.5 -26.5t-10 -12t-27.5 -4.5h-51q-24 0 -30.5 9t-6.5 34v141h-18q-177 6 -350 66q-37 14 -37 39q0 4 1 8.5t2.5 11t2.5 9.5l37 129q10 30 37 30q10 0 28 -6q152 -57 295 -63h2v434l-170 82q-112 54 -174.5 141.5
t-62.5 204.5q0 109 59 194t149.5 131t198.5 56v162q0 32 31 32h62q21 0 27.5 -6.5t6.5 -27.5v-158q154 -9 301 -72q37 -15 37 -41q0 -8 -4 -20l-45 -127q-4 -10 -7 -15t-10 -9.5t-18 -4.5q-16 0 -39 10q-104 45 -215 60v-396l97 -45q290 -136 290 -381zM530 889v334
q-52 -12 -94 -43q-55 -45 -55 -111q0 -64 37 -103.5t112 -76.5zM797 387q0 63 -39.5 111t-100.5 75v-358q63 20 101.5 64t38.5 108z" />
    <glyph glyph-name="percent" unicode="%" horiz-adv-x="1396" 
d="M645 1110q0 -142 -76 -235t-215 -93t-215 93t-76 235q0 143 75.5 238.5t213.5 95.5q139 0 216 -96t77 -238zM1292 1350q0 -14 -10 -27l-1003 -1341q-15 -19 -23 -19q-14 0 -41 21l-86 65q-16 11 -16 29q0 17 14 37l987 1325q12 18 29 18q18 0 39 -16l88 -60
q22 -16 22 -32zM1335 303q0 -142 -76 -235t-215 -93t-214.5 93t-75.5 235q0 143 75 238.5t213 95.5q139 0 216 -96t77 -238zM451 1051v82q0 159 -97 159q-96 0 -96 -159v-82q0 -50 22 -84.5t72 -34.5t74.5 35t24.5 84zM1141 244v82q0 159 -97 159q-96 0 -96 -159v-82
q0 -50 22 -84.5t72 -34.5t74.5 35t24.5 84z" />
    <glyph glyph-name="ampersand" unicode="&#x26;" horiz-adv-x="1359" 
d="M1413 147q0 -4 -4 -20l-35 -115q-4 -17 -13 -23.5t-26 -6.5q-3 0 -10 1t-10 1q-93 13 -186 61t-158 113q-209 -183 -459 -183q-126 0 -230.5 50t-167.5 145.5t-63 218.5q0 73 26.5 137.5t76 117.5t100 92t119.5 81l-56 64q-57 65 -84.5 123.5t-27.5 128.5q0 133 109 222
t257 89q149 0 250 -85t101 -220q0 -43 -14.5 -85t-36 -74.5t-55 -66.5t-63 -58t-69.5 -52l305 -348q127 171 141 407q1 23 9.5 31t29.5 8h123q22 0 29.5 -7t7.5 -26v-4q-13 -322 -203 -553q103 -98 258 -139q29 -8 29 -25zM702 1135q0 53 -35 89t-92 36q-54 0 -89 -34
t-35 -85q0 -63 67 -142l47 -55q55 38 96 90t41 101zM831 295l-337 383q-89 -65 -140 -129.5t-51 -140.5q0 -100 69.5 -164t172.5 -64q82 0 159 31.5t127 83.5z" />
    <glyph glyph-name="quotesingle" unicode="'" horiz-adv-x="696" 
d="M451 1405l-17 -295q-1 -13 -3.5 -20t-10.5 -12t-23 -5h-104q-20 0 -26.5 7.5t-8.5 31.5l-16 295v4q0 19 7.5 26t26.5 7h140q20 0 27.5 -7t7.5 -26v-6z" />
    <glyph glyph-name="parenleft" unicode="(" horiz-adv-x="669" 
d="M604 1395q0 -14 -12 -29q-138 -194 -195 -350q-71 -195 -71 -424q0 -232 75 -416q56 -143 185 -311q12 -15 12 -29q0 -13 -23 -29l-86 -55q-18 -12 -32 -12q-18 0 -35 20q-330 418 -330 856q0 419 340 844q18 21 33 21q12 0 24 -6l99 -56q16 -8 16 -24z" />
    <glyph glyph-name="parenright" unicode=")" horiz-adv-x="667" 
d="M575 608q0 -422 -337 -844q-14 -20 -35 -20q-7 0 -23 8l-100 53q-14 8 -14 25q0 16 10 29q136 191 194 350q72 198 72 424q0 235 -74 416q-57 145 -184 311q-12 15 -12 29q0 16 20 30l88 56q20 10 33 10q17 0 35 -21q327 -414 327 -856z" />
    <glyph glyph-name="asterisk" unicode="*" horiz-adv-x="751" 
d="M666 1192q0 -22 -33 -25l-182 -18l133 -125q18 -18 18 -31t-22 -32l-72 -58q-19 -16 -33 -16t-22 22l-76 189l-76 -189q-10 -26 -22 -26q-7 0 -23 12l-86 66q-18 13 -18 30q0 16 18 31l135 127l-199 18q-20 3 -20 19q0 12 2 18l39 121q7 23 27 23q2 0 20 -9l162 -102
l-43 195q-2 8 -2 20t5.5 16.5t22.5 4.5h103q43 0 43 -21q0 -12 -2 -18l-43 -197l158 100q18 11 26 11q17 0 25 -27l33 -104q4 -16 4 -25z" />
    <glyph glyph-name="plus" unicode="+" horiz-adv-x="1071" 
d="M993 487q0 -30 -11 -42.5t-40 -12.5h-287v-311q0 -28 -12.5 -38.5t-38.5 -10.5h-137q-27 0 -38 10t-11 37v313h-291q-28 0 -38.5 12.5t-10.5 38.5v115q0 27 10 38t37 11h293v309q0 30 11.5 41t39.5 11h131q30 0 42.5 -11.5t12.5 -40.5v-309h285q30 0 41.5 -11.5
t11.5 -39.5v-109z" />
    <glyph glyph-name="comma" unicode="," horiz-adv-x="444" 
d="M377 80q0 -108 -57.5 -205t-149.5 -162q-22 -16 -37 -16q-14 0 -31 20l-20 25q-8 8 -8 20q0 14 14 25q84 84 84 147q0 29 -42 85.5t-42 95.5q0 59 41 98t100 39q63 0 105.5 -53t42.5 -119z" />
    <glyph glyph-name="hyphen" unicode="-" horiz-adv-x="587" 
d="M516 477q0 -30 -11 -42.5t-40 -12.5h-344q-28 0 -38.5 13t-10.5 40v133q0 27 10 38t37 11h344q30 0 41.5 -11.5t11.5 -39.5v-129z" />
    <glyph glyph-name="period" unicode="." horiz-adv-x="448" 
d="M381 111q0 -60 -44.5 -99t-100.5 -39q-58 0 -102 37.5t-44 98.5q0 63 43 101t103 38q59 0 102 -37.5t43 -99.5z" />
    <glyph glyph-name="slash" unicode="/" horiz-adv-x="665" 
d="M674 1423q0 -6 -8 -34l-424 -1373q-7 -25 -18.5 -33t-37.5 -8h-145q-31 0 -31 23q0 12 6 27l428 1374q9 28 21 36.5t41 8.5h133q35 0 35 -21z" />
    <glyph glyph-name="zero" unicode="0" 
d="M1085 713q0 -120 -17 -226t-55.5 -201t-96 -163t-143.5 -108t-193 -40t-193.5 38.5t-144.5 105.5t-96.5 160t-56 198.5t-17.5 224.5q0 118 18.5 225t59 202t99.5 164.5t145 110t190 40.5q106 0 191.5 -39.5t142.5 -107t95.5 -161.5t55 -199t16.5 -224zM811 713
q0 504 -227 504q-122 0 -180 -134t-58 -370q0 -508 234 -508q64 0 110 36t72 105t37.5 159t11.5 208z" />
    <glyph glyph-name="one" unicode="1" 
d="M831 61q0 -35 -14.5 -48t-48.5 -13h-133q-40 0 -53 11.5t-13 47.5v1069l-284 -161q-19 -13 -35 -13q-26 0 -43 35l-47 92q-8 13 -8 27q0 27 32 45l406 242q38 22 92 22h98q51 0 51 -51v-1305z" />
    <glyph glyph-name="two" unicode="2" 
d="M1047 1049q0 -57 -15 -113.5t-46.5 -112.5t-65.5 -104.5t-87.5 -106.5t-96 -100t-105.5 -102q-21 -20 -95 -89t-108 -102h543q32 0 45.5 -11t13.5 -40v-109q0 -59 -59 -59h-803q-36 0 -50 14t-14 49v99q0 30 7.5 47t29.5 39q61 62 192.5 185.5t190.5 184.5
q126 131 190 230.5t64 183.5q0 92 -58 140.5t-153 48.5q-139 0 -295 -91q-17 -10 -30 -10q-23 0 -37 31l-47 102q-8 20 -8 27q0 25 30 43q198 121 422 121q197 0 321 -104t124 -291z" />
    <glyph glyph-name="three" unicode="3" 
d="M1022 420q0 -132 -72 -235t-187 -156.5t-249 -53.5q-224 0 -375 80q-37 18 -37 45q0 10 9 33l36 100q10 29 35 29q16 0 31 -6q142 -66 285 -66q122 0 193 65.5t71 172.5q0 66 -29.5 114t-79 73.5t-104 37t-115.5 11.5h-37q-49 0 -49 55v86q0 27 10 40t37 13h68
q116 0 180 50t64 151q0 84 -56 130t-151 46q-129 0 -258 -72q-24 -12 -33 -12q-19 0 -33 31l-39 98q-6 12 -6 25q0 20 25 36q166 103 385 103q83 0 159 -23.5t136 -67.5t95.5 -114.5t35.5 -157.5q0 -108 -62 -194t-157 -117q115 -31 194.5 -126t79.5 -224z" />
    <glyph glyph-name="four" unicode="4" 
d="M1022 51q0 -51 -57 -51h-150q-28 0 -41.5 12t-13.5 41v254h-645q-34 0 -46 16.5t-12 47.5v75q0 50 27 103l387 815q13 29 28 41t44 12h147q43 0 43 -33q0 -12 -8 -32l-381 -826h416v318q0 29 14 40t43 11h148q30 0 43.5 -11t13.5 -40v-793z" />
    <glyph glyph-name="five" unicode="5" 
d="M1065 446q0 -219 -152 -345t-385 -126q-199 0 -378 95q-35 18 -35 43q0 14 8 30l47 109q14 29 35 29q12 0 35 -13q142 -75 301 -75q113 0 186.5 64.5t73.5 176.5q0 125 -78 193q-90 78 -272 78h-170q-37 0 -53.5 19t-16.5 58v566q0 39 15 54t50 15h334h330q31 0 45 -13.5
t14 -43.5v-107q0 -30 -13 -43.5t-44 -13.5h-360h-111v-297h37q114 0 212 -26t176.5 -79t123.5 -142t45 -206z" />
    <glyph glyph-name="six" unicode="6" 
d="M1071 483q0 -102 -32.5 -194t-91.5 -162t-149.5 -111t-199.5 -41q-112 0 -200 36t-144 95.5t-93 143t-52 172.5t-15 190q0 122 20 237t66.5 224.5t115.5 190.5t175.5 130.5t237.5 49.5q108 0 221 -29q25 -7 32.5 -21.5t2.5 -39.5l-25 -111q-6 -37 -37 -37q-10 0 -16 2
q-107 21 -158 21q-139 0 -221 -82q-100 -100 -123 -318q105 86 256 86q192 0 311 -112t119 -320zM803 465q0 103 -49 170t-148 67q-62 0 -129.5 -29t-111.5 -73v-51q2 -170 61 -263t174 -93q69 0 117 43t67 102t19 127z" />
    <glyph glyph-name="seven" unicode="7" 
d="M1065 1262q0 -43 -23 -93l-538 -1116q-17 -32 -35.5 -42.5t-54.5 -10.5h-181q-40 0 -40 37q0 17 8 33l557 1122h-582q-53 0 -53 57v113q0 28 11 41.5t40 13.5h834q31 0 44 -13t13 -42v-100z" />
    <glyph glyph-name="eight" unicode="8" 
d="M1077 418q0 -133 -70.5 -235.5t-185 -155t-250.5 -52.5q-103 0 -192 26.5t-157.5 77.5t-108 132.5t-39.5 183.5q0 95 53 178q36 60 94 109t123 78q-92 44 -150.5 128t-58.5 183q0 113 60.5 199t161.5 130t225 44q187 0 308.5 -97t121.5 -270q0 -92 -62.5 -177
t-152.5 -132q127 -52 203.5 -145t76.5 -205zM752 1069q0 76 -49.5 124t-131.5 48q-73 0 -125.5 -48t-52.5 -116q0 -71 54 -128t137 -97q168 93 168 217zM813 406q0 161 -256 260q-94 -45 -156.5 -110t-62.5 -148q0 -100 70.5 -164t169.5 -64q101 0 168 60.5t67 165.5z" />
    <glyph glyph-name="nine" unicode="9" 
d="M1063 809q0 -218 -67 -412.5t-205 -306.5q-141 -115 -347 -115q-101 0 -219 31q-37 9 -37 37q0 3 5 33l22 102q6 35 35 35q10 0 16 -2q88 -18 152 -18q148 0 229 81q100 103 123 318q-111 -86 -258 -86q-192 0 -310 112t-118 320q0 138 55 251.5t164 184t254 70.5
q112 0 200 -35.5t144.5 -95t93.5 -142.5t52.5 -172t15.5 -190zM791 829v43q-3 171 -62 264t-174 93q-98 0 -150.5 -79t-52.5 -194q0 -104 50 -170.5t147 -66.5q65 0 135 30t107 80z" />
    <glyph glyph-name="colon" unicode=":" horiz-adv-x="485" 
d="M403 881q0 -61 -45 -99.5t-100 -38.5q-57 0 -101 38t-44 100q0 64 43 101.5t102 37.5q58 0 101.5 -38t43.5 -101zM403 115q0 -61 -45 -100.5t-100 -39.5q-57 0 -101 38t-44 100q0 64 43 100.5t102 36.5q58 0 101.5 -36t43.5 -99z" />
    <glyph glyph-name="semicolon" unicode=";" horiz-adv-x="499" 
d="M418 881q0 -61 -45.5 -99.5t-100.5 -38.5q-57 0 -101 38t-44 100q0 64 43 101.5t102 37.5q58 0 102 -38t44 -101zM416 68q0 -107 -57 -199t-150 -158q-20 -14 -37 -14q-14 0 -29 18l-22 27q-8 8 -8 22q0 12 14 23q80 80 80 137q0 27 -40 83.5t-40 94.5q0 59 41 97.5
t100 38.5q63 0 105.5 -52.5t42.5 -117.5z" />
    <glyph glyph-name="less" unicode="&#x3c;" horiz-adv-x="1071" 
d="M915 1004q0 -20 -20 -31l-434 -279l428 -274q24 -15 24 -35q0 -12 -8 -25l-80 -127q-16 -26 -34 -26q-15 0 -37 16l-578 385q-29 19 -29 56v53q0 34 35 55l594 383q18 12 33 12q16 0 27 -20l71 -121q8 -16 8 -22z" />
    <glyph glyph-name="equal" unicode="=" horiz-adv-x="1071" 
d="M909 672q0 -30 -11 -43t-40 -13h-651q-28 0 -38.5 13t-10.5 39v98q0 27 10 38t37 11h651q30 0 41.5 -11.5t11.5 -39.5v-92zM909 336q0 -30 -11 -42.5t-40 -12.5h-651q-28 0 -38.5 12.5t-10.5 38.5v98q0 27 10 38t37 11h651q30 0 41.5 -11.5t11.5 -39.5v-92z" />
    <glyph glyph-name="greater" unicode="&#x3e;" horiz-adv-x="1071" 
d="M911 662q0 -34 -37 -56l-591 -383q-25 -14 -33 -14q-18 0 -29 20l-69 121q-9 18 -9 25q0 19 21 31l432 276l-426 276q-25 16 -25 33q0 13 9 25l77 129q14 26 35 26q17 0 37 -14l578 -389q30 -20 30 -53v-53z" />
    <glyph glyph-name="question" unicode="?" horiz-adv-x="901" 
d="M827 1098q0 -151 -135 -293l-149 -158q-44 -45 -64.5 -85t-23.5 -107v-68v-10q0 -31 -25 -31h-137q-32 0 -37 31q-14 65 -14 121q0 132 104 239l146 150q100 105 100 186q0 91 -57 132.5t-142 41.5q-46 0 -106 -16.5t-107 -42.5q-12 -6 -20 -6q-17 0 -23 18l-41 111
q-4 12 -4 18q0 19 19 29q154 86 331 86q160 0 272.5 -94.5t112.5 -251.5zM502 106q0 -58 -42 -94.5t-95 -36.5q-54 0 -97 35t-43 94q0 61 42 97.5t98 36.5t96.5 -36t40.5 -96z" />
    <glyph glyph-name="at" unicode="@" horiz-adv-x="1703" 
d="M1612 805q0 -68 -17.5 -138.5t-53 -135t-83 -114.5t-113 -80t-137.5 -30q-79 0 -136.5 36t-70.5 112h-2q-90 -129 -227 -129q-61 0 -107.5 23.5t-73.5 64t-40.5 91.5t-13.5 111q0 82 26 164.5t73 150.5t120 111t159 43q52 0 98.5 -26.5t65.5 -77.5q1 3 7.5 28.5t7.5 28.5
q4 14 10 17.5t22 3.5h93q16 0 23 -8t3 -23l-100 -414q-15 -62 -15 -104t21 -68t63 -26q77 0 134.5 68t83.5 155q22 76 22 164q0 226 -142 351.5t-374 125.5q-129 0 -242.5 -51.5t-192 -138.5t-124 -205t-45.5 -248q0 -245 146 -376.5t394 -131.5q174 0 353 66q12 4 18 4
q13 0 21 -19q32 -75 32 -94q0 -15 -20 -25q-179 -86 -424 -86q-157 0 -293 42.5t-239 123t-162.5 206.5t-59.5 284q0 173 66.5 325t179.5 258.5t267.5 168t326.5 61.5q192 0 344 -77t240 -223.5t88 -338.5zM1034 846q-25 94 -102 94q-48 0 -86.5 -35t-60 -87.5t-33 -104
t-11.5 -92.5q0 -51 22 -90t68 -39q88 0 146 108z" />
    <glyph glyph-name="A" unicode="A" horiz-adv-x="1316" 
d="M1300 33q0 -33 -36 -33h-183q-31 0 -45 11t-24 38l-107 301h-518l-106 -307q-13 -43 -56 -43h-182q-29 0 -29 27q0 14 4 22l500 1327q16 41 55 41h164q45 0 58 -37l501 -1321q4 -10 4 -26zM836 549l-146 432q-17 55 -41 133h-4q-19 -67 -43 -135l-145 -430h379z" />
    <glyph glyph-name="B" unicode="B" horiz-adv-x="1224" 
d="M1141 414q0 -414 -559 -414h-381q-32 0 -43 13t-11 46v1305q0 31 14 42t48 11h307q254 0 384 -83t130 -263q0 -111 -61 -194t-170 -107v-2q150 -11 246 -106.5t96 -247.5zM772 1040q0 177 -248 177h-114v-381h106q125 0 190.5 44t65.5 160zM872 422q0 136 -108 190
q-75 37 -219 37h-135v-446h151q127 0 193 26q118 51 118 193z" />
    <glyph glyph-name="C" unicode="C" horiz-adv-x="1220" 
d="M1174 100q0 -28 -33 -41q-206 -84 -408 -84q-159 0 -282.5 54t-201.5 151.5t-118.5 229.5t-40.5 292q0 157 46.5 293t130.5 235.5t210 156.5t277 57q208 0 385 -86q32 -15 32 -35q0 -12 -6 -27l-47 -129q-9 -26 -28 -26q-7 0 -23 8q-142 74 -297 74q-83 0 -150.5 -29.5
t-112 -78.5t-75 -115.5t-44 -138t-13.5 -148.5q0 -238 106 -377t293 -139q150 0 295 65q20 8 25 8q20 0 32 -30l41 -111q7 -18 7 -29z" />
    <glyph glyph-name="D" unicode="D" horiz-adv-x="1417" 
d="M1329 702q0 -357 -223 -548q-185 -154 -508 -154h-391q-33 0 -46.5 11.5t-13.5 45.5v1299q0 33 13.5 47t50.5 14h295q182 0 306.5 -23.5t223.5 -80.5q141 -81 217 -234.5t76 -376.5zM1047 705q0 285 -160 405q-116 84 -324 84h-149v-973h157q115 0 200.5 24t146.5 85
q129 129 129 375z" />
    <glyph glyph-name="E" unicode="E" horiz-adv-x="1101" 
d="M1014 49q0 -49 -49 -49h-760q-32 0 -43.5 11t-11.5 44v1311q0 51 47 51h772q24 0 33.5 -8.5t9.5 -26.5v-12l-15 -123q-3 -26 -18.5 -34.5t-50.5 -8.5h-514v-370h473q51 0 51 -46v-116q0 -26 -11.5 -37.5t-37.5 -11.5h-475v-410h549q51 0 51 -47v-117z" />
    <glyph glyph-name="F" unicode="F" horiz-adv-x="1089" 
d="M1012 1382v-12l-15 -123q-3 -26 -18.5 -34.5t-50.5 -8.5h-514v-370h473q51 0 51 -46v-116q0 -26 -11.5 -37.5t-37.5 -11.5h-475v-572q0 -28 -11.5 -39.5t-37.5 -11.5h-160q-32 0 -43.5 11t-11.5 44v1311q0 51 47 51h772q23 0 33 -8t10 -27z" />
    <glyph glyph-name="G" unicode="G" horiz-adv-x="1390" 
d="M1264 147q0 -31 -10.5 -46.5t-39.5 -30.5q-84 -42 -212 -68.5t-246 -26.5q-314 0 -491 199.5t-177 530.5q0 213 85.5 380.5t244 263t364.5 95.5q201 0 375 -78q29 -13 29 -37l-6 -24l-47 -123q-12 -29 -31 -29q-9 0 -29 8q-56 24 -134 42t-144 18q-84 0 -160 -30.5
t-129 -86.5q-135 -141 -135 -391q0 -239 105.5 -377.5t289.5 -138.5q150 0 231 34v392h-182q-23 0 -34 10t-11 35v125q0 24 11 32.5t36 8.5h397q27 0 38.5 -10.5t11.5 -37.5v-639z" />
    <glyph glyph-name="H" unicode="H" horiz-adv-x="1409" 
d="M1253 51q0 -28 -11.5 -39.5t-37.5 -11.5h-162q-28 0 -40.5 12t-12.5 39v572h-581v-572q0 -51 -52 -51h-159q-56 0 -56 51v1317q0 49 56 49h159q52 0 52 -49v-534h581v534q0 49 53 49h162q26 0 37.5 -11t11.5 -38v-1317z" />
    <glyph glyph-name="I" unicode="I" horiz-adv-x="823" 
d="M700 1288q0 -24 -10 -33.5t-33 -9.5h-116v-1073h110q43 0 43 -43v-88q0 -41 -37 -41h-487q-41 0 -41 39v92q0 22 9.5 31.5t31.5 9.5h109v1073h-119q-41 0 -41 41v90q0 41 37 41h501q21 0 32 -11.5t11 -27.5v-90z" />
    <glyph glyph-name="J" unicode="J" horiz-adv-x="858" 
d="M707 471q0 -296 -144 -410q-104 -81 -299 -81q-68 0 -147 14q-33 5 -33 33q0 12 2 20l20 115q7 33 35 33q2 0 7 -1t8 -1q80 -13 108 -13q93 0 137 56q43 58 43 190v819h-231q-43 0 -43 45v84q0 43 43 43h444q23 0 36.5 -12.5t13.5 -34.5v-899z" />
    <glyph glyph-name="K" unicode="K" horiz-adv-x="1220" 
d="M1196 27q0 -12 -9 -19.5t-24 -7.5h-205q-35 0 -55.5 11.5t-42.5 39.5l-442 567h-4v-567q0 -28 -11.5 -39.5t-37.5 -11.5h-164q-28 0 -39.5 11.5t-11.5 39.5v1317q0 49 51 49h164q26 0 37.5 -11t11.5 -38v-580h4l422 592q27 37 75 37h164q15 0 24 -7.5t9 -18.5
q0 -14 -8 -25l-471 -633l545 -670q18 -22 18 -36z" />
    <glyph glyph-name="L" unicode="L" horiz-adv-x="1009" 
d="M981 49q0 -49 -49 -49h-729q-29 0 -41 12t-12 45v1309q0 51 49 51h163q28 0 40 -12t12 -41v-1145h518q49 0 49 -47v-123z" />
    <glyph glyph-name="M" unicode="M" horiz-adv-x="1787" 
d="M1642 55q2 -28 -8.5 -41.5t-38.5 -13.5h-165q-31 0 -41.5 15.5t-12.5 52.5l-28 831h-5l-348 -862q-13 -37 -55 -37h-72q-25 0 -39 8t-24 31l-387 860h-4l-19 -848q0 -32 -12.5 -41.5t-42.5 -9.5h-139q-30 0 -42.5 12t-11.5 41l52 1309q1 31 12.5 43t36.5 12h121
q29 0 43.5 -10t25.5 -35l473 -1012h4l433 1012q9 24 23.5 34.5t41.5 10.5h121q25 0 35 -10t12 -35z" />
    <glyph glyph-name="N" unicode="N" horiz-adv-x="1488" 
d="M1341 55q0 -32 -12 -43.5t-37 -11.5h-137q-48 0 -78 43l-667 913h-4v-903q0 -53 -54 -53h-147q-30 0 -42.5 10.5t-12.5 40.5v1311q0 31 13 43t42 12h133q25 0 40 -8.5t30 -30.5l673 -925h4v911q0 53 54 53h153q30 0 39.5 -13.5t9.5 -41.5v-1307z" />
    <glyph glyph-name="O" unicode="O" horiz-adv-x="1423" 
d="M1339 717q0 -171 -47 -311t-130.5 -234t-199.5 -145.5t-253 -51.5q-290 0 -453.5 197t-163.5 533q0 219 77 386.5t220.5 260t333.5 92.5q149 0 267 -54.5t194 -152t115.5 -229.5t39.5 -291zM1057 711q0 255 -87 382.5t-253 127.5q-155 0 -248.5 -136.5t-93.5 -373.5
q0 -252 88.5 -382t253.5 -130q156 0 248 133.5t92 378.5z" />
    <glyph glyph-name="P" unicode="P" horiz-adv-x="1138" 
d="M1077 971q0 -153 -73 -262t-193 -160t-274 -51q-81 0 -123 6v-455q0 -49 -52 -49h-163q-25 0 -37 12.5t-12 42.5v1307q0 31 11 43t40 12h297q170 0 287.5 -36t189.5 -119q102 -117 102 -291zM811 961q0 133 -75.5 192t-215.5 59h-106v-507q8 0 62 -1.5t59 -1.5
q133 0 204.5 64.5t71.5 194.5z" />
    <glyph glyph-name="Q" unicode="Q" horiz-adv-x="1411" 
d="M1368 -90q0 -8 -2 -14l-33 -113q-13 -45 -43 -45q-26 0 -80 14q-44 13 -92.5 37t-75.5 40t-79 51t-62 42q-33 22 -50.5 31.5t-48 18t-67.5 8.5q-59 0 -88 2q-110 7 -201 46.5t-157 104.5t-111.5 153.5t-67.5 193t-22 222.5q0 155 42 289t120 235.5t199 159.5t270 58
q154 0 273.5 -57.5t193.5 -158.5t111.5 -230.5t37.5 -280.5q0 -217 -78 -387t-227 -262q137 -76 277 -111q36 -9 48.5 -18.5t12.5 -28.5zM1053 711q0 240 -83 375t-257 135q-108 0 -186.5 -68t-117 -182t-38.5 -260q0 -156 34.5 -269t112.5 -180t195 -67q110 0 187.5 67.5
t115 182.5t37.5 266z" />
    <glyph glyph-name="R" unicode="R" horiz-adv-x="1212" 
d="M1163 25q0 -25 -30 -25h-187q-56 0 -80 41l-295 481h-157v-471q0 -51 -47 -51h-168q-49 0 -49 51v1307q0 34 11 46.5t44 12.5h303q343 0 475 -151q98 -113 98 -287q0 -140 -70 -247t-194 -161l336 -518q10 -17 10 -28zM813 975q0 242 -297 242h-102v-496h127
q126 0 199 66t73 188z" />
    <glyph glyph-name="S" unicode="S" horiz-adv-x="1105" 
d="M1024 414q0 -83 -26 -154.5t-72.5 -123.5t-109 -88.5t-136.5 -54.5t-154 -18q-202 0 -391 66q-35 13 -35 39q0 16 4 26l43 134q10 32 37 32q13 0 31 -6q167 -61 305 -61q43 0 84 10.5t75.5 31.5t55.5 57.5t21 82.5q0 65 -40 107.5t-110 76.5l-266 134q-113 56 -177.5 146
t-64.5 206q0 90 41.5 165t110 122.5t151.5 73.5t170 26q199 0 367 -72q41 -18 41 -41q0 -11 -6 -26l-49 -125q-11 -31 -35 -31q-9 0 -33 8q-154 64 -270 64q-83 0 -145 -38.5t-62 -117.5q0 -96 145 -166l228 -111q131 -63 201.5 -152t70.5 -222z" />
    <glyph glyph-name="T" unicode="T" horiz-adv-x="1177" 
d="M1171 1366l-14 -119q-3 -25 -18 -34t-45 -9h-371v-1157q0 -29 -8.5 -38t-34.5 -9h-180q-27 0 -35 8.5t-8 36.5v1159h-383q-26 0 -36.5 11t-10.5 38v121q0 43 45 43h1036q39 0 52.5 -12t10.5 -39z" />
    <glyph glyph-name="U" unicode="U" horiz-adv-x="1474" 
d="M1331 629q0 -319 -150.5 -486.5t-447.5 -167.5q-160 0 -274 43t-183 129t-101 205.5t-32 280.5v735q0 49 54 49h161q26 0 38 -11.5t12 -37.5v-713q0 -236 74 -346t261 -110q179 0 252.5 112.5t73.5 343.5v713q0 49 51 49h162q26 0 37.5 -11.5t11.5 -37.5v-739z" />
    <glyph glyph-name="V" unicode="V" horiz-adv-x="1335" 
d="M1300 1386q0 -4 -4 -20l-481 -1321q-16 -45 -63 -45h-138q-52 0 -69 51l-504 1309q-6 12 -6 24q0 15 11 24t30 9h180q59 0 74 -43l362 -1012h6l342 1006q9 28 26 38.5t52 10.5h144q38 0 38 -31z" />
    <glyph glyph-name="W" unicode="W" horiz-adv-x="1925" 
d="M1890 1384q0 -6 -4 -18l-383 -1311q-15 -55 -67 -55h-136q-51 0 -65 53l-266 938h-4l-267 -932q-10 -35 -24.5 -47t-44.5 -12h-131q-28 0 -43 12.5t-25 48.5l-391 1297q-4 20 -4 26q0 33 37 33h196q58 0 70 -51l250 -944h2l260 950q11 45 61 45h138q44 0 57 -43l260 -952
h4l248 948q13 47 63 47h177q32 0 32 -33z" />
    <glyph glyph-name="X" unicode="X" horiz-adv-x="1241" 
d="M1206 31q0 -31 -39 -31h-194q-54 0 -80 45l-283 477h-2l-282 -477q-14 -25 -32 -35t-50 -10h-170q-16 0 -26.5 8t-10.5 21q0 11 10 28l424 672l-397 635q-6 8 -6 27q0 12 8 19t20 7h203q48 0 74 -45l252 -424h2l258 430q12 22 27 30.5t42 8.5h189q14 0 22.5 -7.5
t8.5 -18.5q0 -14 -11 -29l-403 -612l438 -691q8 -11 8 -28z" />
    <glyph glyph-name="Y" unicode="Y" horiz-adv-x="1212" 
d="M1180 1393q0 -12 -9 -27l-421 -780v-539q0 -47 -48 -47h-172q-47 0 -47 51v524l-444 793q-6 12 -6 21q0 12 10 20t27 8h186q56 0 76 -39l295 -579h4l291 575q12 25 27 34t44 9h148q39 0 39 -24z" />
    <glyph glyph-name="Z" unicode="Z" horiz-adv-x="1198" 
d="M1139 49q0 -49 -45 -49h-998q-39 0 -39 43v63q0 33 21 66l678 1030v2h-600q-28 0 -40 10.5t-12 36.5v125q0 41 41 41h916q49 0 49 -45v-49q0 -49 -25 -88l-673 -1020v-2h680q47 0 47 -47v-117z" />
    <glyph glyph-name="bracketleft" unicode="[" horiz-adv-x="712" 
d="M655 -248q0 -27 -9 -36t-42 -9h-383q-33 0 -43 10.5t-10 46.5v1620q0 37 11 48.5t42 11.5h377q35 0 46 -9t11 -38v-105q0 -25 -10 -34t-39 -9h-190v-1349h188q33 0 42 -8t9 -35v-105z" />
    <glyph glyph-name="backslash" unicode="\" horiz-adv-x="710" 
d="M686 -4q0 -23 -33 -23h-135q-29 0 -40.5 8.5t-20.5 36.5l-428 1383q-4 10 -4 24q0 23 30 23h144q26 0 38 -8t19 -33l424 -1376q6 -21 6 -35z" />
    <glyph glyph-name="bracketright" unicode="]" horiz-adv-x="712" 
d="M545 -233q0 -37 -11 -48.5t-42 -11.5h-377q-35 0 -45.5 9t-10.5 38v105q0 25 10.5 34t39.5 9h188v1349h-186q-33 0 -42.5 8t-9.5 35v105q0 27 9.5 36t42.5 9h381q33 0 43 -11t10 -47v-1619z" />
    <glyph glyph-name="asciicircum" unicode="^" horiz-adv-x="1095" 
d="M1024 768q0 -16 -20 -25l-130 -67q-13 -8 -26 -8q-15 0 -31 22l-274 422l-275 -412q-19 -28 -37 -28q-11 0 -24 10l-111 78q-24 18 -24 33q0 16 14 36l385 553q14 20 24 27.5t29 7.5h54q30 0 55 -37l379 -583q12 -18 12 -29z" />
    <glyph glyph-name="underscore" unicode="_" horiz-adv-x="1032" 
d="M1028 -248q0 -24 -6.5 -31.5t-28.5 -7.5h-948q-25 0 -33 6.5t-8 24.5v53q0 19 7 25t28 6h948q27 0 34 -6.5t7 -28.5v-41z" />
    <glyph glyph-name="grave" unicode="`" horiz-adv-x="704" 
d="M561 1212q0 -9 -10 -26l-27 -37q-16 -23 -32 -23q-11 0 -33 11l-293 157q-23 12 -23 29q0 15 11 29l49 71q17 25 35 25q10 0 36 -16l263 -187q24 -16 24 -33z" />
    <glyph glyph-name="a" unicode="a" horiz-adv-x="1142" 
d="M1094 39q0 -39 -41 -39h-99q-144 0 -168 121h-4q-39 -58 -126.5 -102t-170.5 -44q-105 0 -187 41t-131.5 111.5t-75 160t-25.5 191.5q0 129 36.5 233.5t98.5 170.5t141 101.5t166 35.5q81 0 152 -33t110 -86l4 55q3 37 43 37h144q43 0 43 -45v-710q0 -45 12 -60
q8 -8 24 -8h17q19 0 28 -7.5t9 -27.5v-96zM756 317v396q-31 45 -88 74.5t-115 29.5q-99 0 -165 -83.5t-66 -237.5q0 -139 54.5 -228.5t162.5 -89.5q70 0 130.5 43t86.5 96z" />
    <glyph glyph-name="b" unicode="b" horiz-adv-x="1136" 
d="M1065 496q0 -108 -28 -201t-82.5 -165t-142 -113.5t-198.5 -41.5q-67 0 -141.5 34.5t-118.5 82.5l-8 -67q-3 -25 -45 -25h-123q-49 0 -49 51v1335q0 26 8.5 39.5t32.5 16.5l152 20q8 2 20 2q35 0 35 -41v-503q52 45 123 72.5t147 27.5q155 0 262 -96q79 -69 117.5 -181
t38.5 -247zM809 494q0 66 -11 120t-35.5 100t-69 71.5t-105.5 25.5q-55 0 -111 -26t-100 -66v-438q39 -44 93 -72.5t108 -28.5q64 0 110.5 26t72 71.5t37 99t11.5 117.5z" />
    <glyph glyph-name="c" unicode="c" horiz-adv-x="915" 
d="M877 70q0 -20 -29 -33q-135 -62 -297 -62q-234 0 -362 136.5t-128 375.5q0 241 136.5 387t371.5 146q149 0 275 -57q14 -7 19 -12.5t5 -16.5q0 -13 -4 -25l-26 -108q-6 -29 -25 -29q-6 0 -22 8q-106 45 -197 45q-131 0 -204 -86.5t-73 -238.5t69 -242t198 -90
q103 0 215 45q18 6 20 6q18 0 25 -24l26 -91q7 -25 7 -34z" />
    <glyph glyph-name="d" unicode="d" horiz-adv-x="1140" 
d="M1012 51q0 -25 -12.5 -38t-32.5 -13h-133q-47 0 -50 41l-4 55q-44 -51 -122 -86t-156 -35q-108 0 -192 41t-135.5 112t-78 161.5t-26.5 195.5q0 109 30 205.5t85 170.5t141.5 117.5t191.5 43.5q69 0 136 -26t110 -70v460q0 28 9.5 40.5t33.5 15.5l151 20q1 0 10.5 1
t10.5 1q19 0 26 -9t7 -32v-1372zM764 279v444q-32 43 -86 71.5t-111 28.5q-117 0 -178 -93t-61 -230q0 -66 12.5 -122t38.5 -102.5t71 -73t105 -26.5q55 0 116 31.5t93 71.5z" />
    <glyph glyph-name="e" unicode="e" horiz-adv-x="1054" 
d="M997 500q0 -36 -14 -48t-53 -12h-600q12 -119 92 -192.5t201 -73.5q123 0 251 49q1 0 9.5 3t13.5 3q23 0 29 -24l28 -105q4 -20 4 -24q0 -22 -32 -35q-71 -32 -165 -49t-179 -17q-240 0 -376 142t-136 383q0 231 140 375.5t368 144.5q182 0 299 -123q120 -125 120 -367
v-30zM754 602v23q-3 86 -52.5 145t-138.5 59q-95 0 -155.5 -65t-73.5 -162h420z" />
    <glyph glyph-name="f" unicode="f" horiz-adv-x="745" 
d="M795 1409q0 -11 -4 -35l-15 -86q-7 -31 -26 -31q-3 0 -23 5q-76 26 -139 26q-86 0 -118 -51t-32 -150v-94h228q41 0 41 -35v-96q0 -39 -41 -39h-228v-766q0 -29 -11.5 -43t-39.5 -14h-147q-50 0 -50 53v770h-110q-28 0 -35.5 9.5t-7.5 41.5v78q0 41 39 41h114v56
q0 81 15 165q53 277 346 277q123 0 217 -43q27 -11 27 -39z" />
    <glyph glyph-name="g" unicode="g" horiz-adv-x="1142" 
d="M1014 68q0 -256 -117 -386.5t-369 -130.5q-157 0 -303 64q-32 14 -32 41q0 3 6 27l28 90q13 37 31 37q8 0 31 -9q127 -53 229 -53q75 0 125 18.5t76 56.5t36.5 84.5t10.5 112.5v82q-46 -44 -122.5 -74t-143.5 -30q-190 0 -301 117q-129 132 -129 370q0 104 30 199t86 170
t144 119.5t196 44.5q70 0 148 -33q64 -26 104 -82l4 53q1 20 12 28.5t35 8.5h136q27 0 38 -11t11 -38v-876zM766 297v422q-32 43 -87 71.5t-112 28.5q-89 0 -151 -59q-45 -43 -66.5 -113t-21.5 -147q0 -167 82 -246q55 -55 145 -55q58 0 118.5 29t92.5 69z" />
    <glyph glyph-name="h" unicode="h" horiz-adv-x="1153" 
d="M1024 41q0 -24 -6.5 -32.5t-26.5 -8.5h-180q-22 0 -28.5 8t-6.5 33v569q0 92 -33.5 142.5t-119.5 50.5q-59 0 -128.5 -28t-117.5 -70v-664q0 -24 -8 -32.5t-31 -8.5h-176q-19 0 -26 8.5t-7 28.5v1354q0 26 11 37t34 14l141 18q8 2 27 2q35 0 35 -39v-514q63 53 151 82
t172 29q166 0 245 -97t79 -270v-612z" />
    <glyph glyph-name="i" unicode="i" horiz-adv-x="534" 
d="M406 1253q0 -57 -42 -93t-96 -36q-55 0 -97 34.5t-42 92.5q0 59 41 95t98 36q56 0 97 -35t41 -94zM393 51q0 -27 -12 -39t-39 -12h-143q-28 0 -41 12t-13 39v895q0 47 54 47h143q26 0 38.5 -10t12.5 -37v-895z" />
    <glyph glyph-name="j" unicode="j" horiz-adv-x="581" 
d="M453 1251q0 -58 -41.5 -93.5t-96.5 -35.5t-96 34.5t-41 92.5q0 61 40 97t97 36q55 0 96.5 -36t41.5 -95zM436 47q0 -288 -135 -403q-107 -90 -299 -90q-51 0 -137 14q-35 6 -35 33q0 12 2 18l21 115q5 26 28 26h4q9 -1 28 -3t28 -3q66 -6 125 23q72 35 94 78
q28 58 28 157v131v805q0 45 50 45h151q47 0 47 -45v-901z" />
    <glyph glyph-name="k" unicode="k" horiz-adv-x="991" 
d="M958 25q0 -25 -38 -25h-177q-55 0 -81 43l-263 430l-22 -20v-285v-117q0 -51 -47 -51h-154q-47 0 -47 49v1344q0 24 9.5 35t33.5 14l150 20q3 0 8 1t8 1q39 0 39 -47v-344v-477h4l268 369q19 28 56 28h182q26 0 26 -20q0 -12 -8 -23l-293 -368l332 -519q14 -21 14 -38z
" />
    <glyph glyph-name="l" unicode="l" horiz-adv-x="505" 
d="M377 51q0 -51 -45 -51h-156q-47 0 -47 49v1344q0 25 9.5 35.5t31.5 13.5l147 20q2 0 7.5 1t7.5 1q45 0 45 -45v-1368z" />
    <glyph glyph-name="m" unicode="m" horiz-adv-x="1740" 
d="M1612 51q0 -28 -11.5 -39.5t-37.5 -11.5h-144q-28 0 -40.5 12t-12.5 39v561q0 93 -33.5 144t-120.5 51q-56 0 -118.5 -26t-112.5 -66q3 -12 5.5 -146.5t2.5 -175.5v-342q0 -28 -11.5 -39.5t-37.5 -11.5h-135q-28 0 -40.5 12t-12.5 39v561q0 94 -31 144.5t-117 50.5
q-109 0 -227 -102v-654q0 -27 -12 -39t-39 -12h-144q-28 0 -40.5 12t-12.5 39v895q0 47 49 47h133q48 0 51 -39l3 -51q63 55 142 86t159 31q90 0 156.5 -36t103.5 -97q67 64 160.5 98.5t189.5 34.5q105 0 178 -43.5t109 -110.5q49 -95 49 -297v-518z" />
    <glyph glyph-name="n" unicode="n" 
d="M1020 53q0 -27 -11 -40t-38 -13h-148q-27 0 -38 13t-11 40v557q0 93 -34 143t-122 50q-59 0 -126 -28t-115 -70v-654q0 -51 -49 -51h-150q-49 0 -49 49v893q0 51 51 51h133q23 0 35.5 -8.5t13.5 -30.5l3 -53q147 119 331 119q166 0 245 -96.5t79 -270.5v-600z" />
    <glyph glyph-name="o" unicode="o" horiz-adv-x="1126" 
d="M1057 498q0 -149 -57.5 -266.5t-172.5 -187t-270 -69.5q-122 0 -216.5 39.5t-153 111t-88 166t-29.5 208.5q0 149 57.5 265.5t172 185.5t269.5 69q241 0 364.5 -143t123.5 -379zM801 498q0 67 -11.5 122.5t-37.5 103t-73 74.5t-112 27q-66 0 -114 -26.5t-75 -73
t-39.5 -101.5t-12.5 -120q0 -67 11.5 -123.5t36.5 -105.5t72.5 -77t112.5 -28t113.5 27t75.5 74.5t40 104t13 122.5z" />
    <glyph glyph-name="p" unicode="p" horiz-adv-x="1140" 
d="M1071 510q0 -242 -133 -397q-124 -140 -315 -140q-71 0 -137.5 26t-110.5 71v-459q0 -30 -13 -41.5t-40 -11.5h-144q-49 0 -49 53v1335q0 26 12 36.5t37 10.5h123q28 0 41 -8.5t14 -30.5l2 -55q45 52 125 85.5t162 33.5q182 0 297 -125q64 -70 96.5 -171t32.5 -212z
M813 498q0 155 -59 237q-60 84 -168 84q-55 0 -117 -30t-94 -70v-447q32 -43 87.5 -71.5t112.5 -28.5q102 0 164 76q74 91 74 250z" />
    <glyph glyph-name="q" unicode="q" horiz-adv-x="1136" 
d="M1008 -389q0 -28 -10.5 -40.5t-36.5 -12.5h-150q-51 0 -51 47v475q-48 -47 -118.5 -76t-141.5 -29q-156 0 -260 84q-85 70 -127.5 185.5t-42.5 253.5q0 124 38.5 230t112.5 177q119 113 293 113q72 0 146.5 -28.5t119.5 -80.5l4 52q2 17 12 24.5t35 7.5h127
q27 0 38.5 -12t11.5 -37v-1333zM760 281v428q-37 45 -94.5 75.5t-112.5 30.5q-52 0 -92 -18.5t-64.5 -48.5t-40.5 -72t-22 -84.5t-6 -91.5q0 -164 65 -246q56 -70 154 -70q56 0 114.5 27.5t98.5 69.5z" />
    <glyph glyph-name="r" unicode="r" horiz-adv-x="706" 
d="M690 985q0 -12 -2 -18l-22 -146q-3 -26 -29 -26h-8q-24 6 -56 6q-52 0 -105 -26.5t-91 -72.5v-651q0 -51 -49 -51h-150q-49 0 -49 51v639v252q0 29 13 40t38 11h131q51 0 51 -39l3 -65q51 65 108.5 98t138.5 33q22 0 58 -8q20 -6 20 -27z" />
    <glyph glyph-name="s" unicode="s" horiz-adv-x="841" 
d="M791 293q0 -103 -56.5 -177t-144 -107.5t-195.5 -33.5q-153 0 -315 72q-25 11 -25 33q0 6 4 18l33 105q8 28 29 28q12 0 22 -4q153 -63 258 -63q69 0 110.5 29t41.5 79q0 41 -28.5 68t-94.5 53l-162 62q-94 35 -152.5 104t-58.5 168q0 96 56 164.5t138 98.5t177 30
q156 0 297 -62q25 -12 25 -28q0 -1 -5 -21l-34 -110q-7 -23 -29 -23q-8 0 -20 4q-123 49 -222 49q-61 0 -95 -28t-34 -66q0 -35 22 -58t79 -46l184 -76q88 -37 141.5 -102.5t53.5 -159.5z" />
    <glyph glyph-name="t" unicode="t" horiz-adv-x="778" 
d="M748 61q0 -26 -31 -38q-112 -48 -230 -48q-171 0 -245 86q-44 50 -55 113.5t-11 192.5v456h-96q-29 0 -37 9t-8 42v78q0 41 37 41h104v224q0 25 12 35.5t39 13.5l148 18h10q39 0 39 -45v-246h231q39 0 39 -35v-96q0 -39 -41 -39h-229v-469q0 -100 27 -139q29 -43 96 -43
q54 0 131 25q16 4 20 4q21 0 27 -25l20 -102q3 -9 3 -13z" />
    <glyph glyph-name="u" unicode="u" horiz-adv-x="1138" 
d="M1012 57q0 -32 -11.5 -44.5t-42.5 -12.5h-131q-46 0 -49 41l-2 51q-145 -117 -325 -117q-166 0 -245 97t-79 270v604q0 47 53 47h144q26 0 38.5 -10t12.5 -37v-561q0 -94 32.5 -142t118.5 -48q58 0 124.5 28t113.5 70v653q0 47 51 47h146q26 0 38.5 -10t12.5 -37v-889z
" />
    <glyph glyph-name="v" unicode="v" horiz-adv-x="991" 
d="M969 965q0 -5 -4 -21l-359 -905q-9 -23 -22 -31t-37 -8h-107q-48 0 -61 37l-352 913q-4 12 -4 19q0 24 36 24h181q47 0 59 -41l156 -477q25 -75 51 -174h2q17 68 49 168l160 481q7 26 20.5 34.5t42.5 8.5h148q41 0 41 -28z" />
    <glyph glyph-name="w" unicode="w" horiz-adv-x="1472" 
d="M1446 967q0 -11 -2 -17l-275 -901q-16 -49 -63 -49h-139q-49 0 -64 51l-170 584h-4l-168 -588q-14 -47 -65 -47h-138q-49 0 -63 49l-268 901q-2 6 -2 17q0 26 41 26h167q49 0 58 -39l147 -647h2l191 645q11 41 55 41h115q47 0 55 -35l186 -655h2l154 645q9 45 59 45h158
q31 0 31 -26z" />
    <glyph glyph-name="x" unicode="x" horiz-adv-x="1032" 
d="M1006 27q0 -11 -9.5 -19t-25.5 -8h-205q-30 0 -45.5 8.5t-26.5 28.5l-192 313h-2l-197 -309q-25 -41 -78 -41h-178q-22 0 -22 25q0 13 10 26l348 463l-303 434q-6 9 -6 19q0 11 7.5 18.5t20.5 7.5h209q45 0 64 -32l162 -259h2l168 256q22 35 59 35h182q27 0 27 -22
q0 -13 -8 -21l-314 -407l342 -488q11 -18 11 -28z" />
    <glyph glyph-name="y" unicode="y" horiz-adv-x="1052" 
d="M1026 965q0 -5 -4 -21l-404 -1061q-69 -184 -168.5 -256.5t-283.5 -72.5q-65 0 -109 10q-30 5 -30 35q0 3 1 8.5t1 9.5l14 107q3 20 11.5 28t25.5 8h12q5 0 31.5 -3t38.5 -3q92 0 140.5 33.5t80.5 108.5l39 92l-373 960q-4 12 -4 17q0 12 9 20t22 8h196q38 0 52 -35
l227 -677l215 665q8 25 21.5 36t39.5 11h166q15 0 24 -8t9 -20z" />
    <glyph glyph-name="z" unicode="z" horiz-adv-x="880" 
d="M831 39q0 -39 -38 -39h-695q-49 0 -49 49v51q0 38 21 70l442 651v2h-379q-29 0 -38 10.5t-9 43.5v73q0 43 39 43h647q47 0 47 -43v-57q0 -39 -20 -68l-451 -651v-4h443q40 0 40 -35v-96z" />
    <glyph glyph-name="braceleft" unicode="{" horiz-adv-x="770" 
d="M719 -256q0 -27 -45 -27h-142q-131 0 -213.5 78t-85.5 219l-6 285q-3 199 -129 213q-27 3 -34 10t-7 25v78q0 21 8 30.5t29 10.5q130 14 133 196l6 299q3 139 88 218t211 79h154q33 0 33 -20q0 -2 -1 -7.5t-1 -7.5l-19 -90q-3 -16 -9 -22t-19 -6h-70q-123 0 -129 -154
l-6 -272q-3 -128 -68.5 -206t-140.5 -83v-2q35 -2 69 -19.5t65.5 -51.5t52 -94t22.5 -138l6 -260q6 -154 129 -154h62q20 0 26.5 -6t9.5 -25l19 -86q0 -2 1 -5t1 -5z" />
    <glyph glyph-name="bar" unicode="|" horiz-adv-x="468" 
d="M346 4q0 -30 -8.5 -39.5t-38.5 -9.5h-121q-29 0 -43 10t-14 37v1417q0 45 41 45h135q49 0 49 -43v-1417z" />
    <glyph glyph-name="braceright" unicode="}" horiz-adv-x="770" 
d="M711 551q0 -21 -7 -29.5t-28 -9.5q-66 -7 -98.5 -60t-34.5 -139l-6 -299q-3 -139 -88 -218t-211 -79h-156q-31 0 -31 21q0 2 1 7t1 7l17 90q6 29 30 29h70q121 0 127 154l6 274q3 127 69.5 204.5t141.5 82.5v4q-36 2 -70 19.5t-66 51.5t-52.5 94t-22.5 138l-6 258
q-6 154 -127 154h-64q-19 0 -25 6t-9 24l-19 86q0 2 -1 6.5t-1 6.5q0 24 43 24h144q131 0 213.5 -78t85.5 -219l6 -284q3 -197 129 -211q25 -3 32 -11t7 -24v-80z" />
    <glyph glyph-name="asciitilde" unicode="~" horiz-adv-x="1095" 
d="M987 596q0 -16 -20 -33q-9 -7 -39.5 -30t-42.5 -32t-39.5 -26t-46 -23.5t-45.5 -13t-54 -6.5q-59 0 -147 47q-2 1 -15 8t-16 8.5t-14.5 7.5t-16 7.5t-15 6.5t-16 6.5t-15.5 4.5t-17 4t-16 2t-17 1q-51 0 -168 -66q-29 -16 -39 -16q-15 0 -24 22l-45 88q-8 16 -8 27
q0 20 32 39q6 4 29.5 19.5t33 21t30.5 18t34.5 18t32.5 12.5t36.5 10t35.5 3q67 0 170 -49q3 -2 26.5 -13t34.5 -15.5t30.5 -12.5t35 -11t28.5 -3q15 0 39 9.5t42 19t45.5 25.5t33.5 19q26 13 37 13q16 0 31 -21l49 -65q10 -13 10 -31z" />
    <glyph glyph-name="nbspace" unicode="&#xa0;" horiz-adv-x="495" 
 />
    <glyph glyph-name="exclamdown" unicode="&#xa1;" horiz-adv-x="495" 
d="M389 889q0 -61 -41.5 -96t-97.5 -35t-96.5 34.5t-40.5 94.5q0 59 42 96t95 37q54 0 96.5 -36t42.5 -95zM365 -387q0 -22 -8.5 -28.5t-28.5 -6.5h-162q-24 0 -31.5 7.5t-7.5 27.5v4l25 1024q0 20 8 27.5t30 7.5h111q25 0 33 -7.5t8 -29.5l23 -1022v-4z" />
    <glyph glyph-name="cent" unicode="&#xa2;" 
d="M924 70q0 -12 -7.5 -19t-23.5 -14q-111 -51 -225 -57v-144q0 -24 -8 -32.5t-35 -8.5h-43q-25 0 -32 9.5t-7 35.5v137q-211 17 -329 152t-118 358q0 222 120 364.5t327 164.5v153q0 24 6 30.5t29 6.5h53q24 0 30.5 -6.5t6.5 -30.5v-151q117 -6 221 -55q26 -12 26 -33
q0 -5 -4 -21l-26 -108q-3 -12 -10.5 -20.5t-16.5 -8.5q-8 0 -24 8q-84 36 -166 41v-651q82 5 176 43q18 6 20 6q17 0 25 -24l29 -93q6 -21 6 -32zM543 178v635q-88 -24 -139.5 -104t-51.5 -209q0 -130 49 -213.5t142 -108.5z" />
    <glyph glyph-name="sterling" unicode="&#xa3;" 
d="M1055 49q0 -49 -49 -49h-865q-51 0 -51 51v86q0 47 39 60q76 30 108.5 89.5t32.5 153.5v66h-100q-25 0 -32 8.5t-7 34.5v41q0 26 7 32.5t34 6.5h98v92h-102q-24 0 -30.5 6.5t-6.5 30.5v49q0 25 6.5 31t32.5 6h100v137q0 210 112 336.5t327 126.5q168 0 288 -55
q35 -15 35 -39q0 -5 -4 -21l-35 -104q-14 -40 -41 -31q-70 21 -102 29q-103 23 -180 6q-72 -17 -110 -79.5t-38 -154.5v-151h291q26 0 34.5 -7t8.5 -28v-53q0 -24 -8 -29.5t-35 -5.5h-293v-92h295q27 0 34 -6.5t7 -30.5v-45q0 -28 -7.5 -34.5t-35.5 -6.5h-293v-49
q0 -173 -98 -240v-4h582q51 0 51 -47v-117z" />
    <glyph glyph-name="yen" unicode="&#xa5;" 
d="M1147 1391q0 -12 -8 -25l-389 -711h157q25 0 33 -8t8 -29v-53q0 -24 -8 -29.5t-35 -5.5h-186v-92h192q26 0 32.5 -6t6.5 -31v-45q0 -29 -7 -36t-34 -7h-190v-266q0 -47 -43 -47h-174q-45 0 -45 51v262h-193q-25 0 -32 9.5t-7 35.5v41q0 26 7 32.5t34 6.5h96h95v92h-197
q-24 0 -30.5 6.5t-6.5 30.5v49q0 25 7.5 32t33.5 7h156l-400 713q-6 9 -6 18q0 31 35 31h191q53 0 73 -39l289 -563h2l283 561q12 25 26 33t43 8h154q37 0 37 -26z" />
    <glyph glyph-name="brokenbar" unicode="&#xa6;" horiz-adv-x="468" 
d="M346 932q0 -28 -11.5 -40.5t-37.5 -12.5h-123q-53 0 -53 53v471q0 49 51 49h125q27 0 38 -10t11 -37v-473zM346 20q0 -28 -11.5 -39.5t-37.5 -11.5h-123q-28 0 -40.5 12t-12.5 39v474q0 49 51 49h125q27 0 38 -10t11 -37v-476z" />
    <glyph glyph-name="section" unicode="&#xa7;" horiz-adv-x="948" 
d="M850 717q0 -141 -98 -223q90 -77 90 -201q0 -102 -55.5 -176t-142.5 -108t-195 -34q-157 0 -316 68q-24 11 -24 31q0 6 4 22l32 103q9 30 27 30q8 0 23 -6q148 -59 260 -59q67 0 109 29t42 79q0 41 -28.5 68t-94.5 53l-161 64q-95 37 -153 105t-58 167q0 135 110 213
q-102 85 -102 211q0 72 32 129.5t85 92t118 52t135 17.5q162 0 295 -58q25 -12 25 -24q0 -7 -4 -23l-35 -114q-6 -23 -25 -23q-8 0 -28 8q-113 45 -213 45q-61 0 -97 -28t-36 -66q0 -34 22 -60t78 -48l184 -74q88 -35 141.5 -101t53.5 -161zM627 690q0 77 -135 127l-72 27
q-70 -28 -70 -94q0 -38 27 -66t86 -53l98 -41q29 16 47.5 43t18.5 57z" />
    <glyph glyph-name="dieresis" unicode="&#xa8;" horiz-adv-x="704" 
d="M659 1331q0 -51 -35.5 -81.5t-80.5 -30.5q-47 0 -85 29.5t-38 80.5q0 53 37 84t86 31q47 0 81.5 -30.5t34.5 -82.5zM285 1331q0 -51 -37 -81.5t-82 -30.5q-47 0 -84 29.5t-37 80.5q0 53 36 84t85 31q47 0 83 -31t36 -82z" />
    <glyph glyph-name="copyright" unicode="&#xa9;" horiz-adv-x="1701" 
d="M1595 713q0 -150 -59 -287t-158.5 -236.5t-237 -158t-288.5 -58.5q-208 0 -379 99.5t-267.5 269t-96.5 371.5q0 201 98 370t269 267t376 98q151 0 288.5 -58t237 -156t158.5 -234.5t59 -286.5zM1409 711q0 117 -43 222.5t-116.5 181.5t-177 120.5t-220.5 44.5t-221 -44.5
t-178 -120.5t-117 -181.5t-43 -222.5q0 -157 73 -287.5t201.5 -206.5t284.5 -76t284 76t200.5 206.5t72.5 287.5zM1096 403q0 -15 -21 -24q-96 -41 -207 -41q-160 0 -242.5 102t-82.5 269q0 162 91.5 268t244.5 106q102 0 194 -45q21 -10 21 -20q0 -5 -4 -17l-23 -63
q-6 -18 -23 -18q-4 0 -12 4q-70 37 -147 37q-88 0 -140 -68q-51 -66 -51 -180q0 -117 52 -185.5t143 -68.5q67 0 145 33q12 4 17 4q12 0 18 -15l23 -61q4 -12 4 -17z" />
    <glyph glyph-name="ordfeminine" unicode="&#xaa;" horiz-adv-x="681" 
d="M596 856q0 -14 -5 -19.5t-18 -5.5h-104q-13 0 -17 3.5t-6 13.5l-6 31q-85 -62 -166 -62q-87 0 -139 49q-53 53 -53 131q0 119 117 174q91 43 231 43v27q0 40 -21.5 59t-72.5 19q-73 0 -168 -45q-6 -4 -12 -4q-13 0 -19 16l-24 70q-8 18 14 30q50 28 111.5 43t109.5 15
q120 0 184 -59.5t64 -176.5v-352zM428 993v109q-50 0 -106 -15q-70 -23 -70 -77q0 -28 18.5 -45t53.5 -17q55 0 104 45z" />
    <glyph glyph-name="guillemotleft" unicode="&#xab;" horiz-adv-x="944" 
d="M848 733q0 -10 -6 -16l-166 -246l162 -252q8 -16 8 -22q0 -20 -27 -35l-67 -39q-13 -8 -27 -8q-18 0 -35 24l-227 297q-12 14 -12 35q0 18 12 33l229 289q19 22 35 22q12 0 18 -4l80 -47q23 -12 23 -31zM473 731q0 -5 -6 -14l-164 -246l160 -252q6 -12 6 -22
q0 -21 -25 -35l-67 -39q-13 -8 -27 -8q-18 0 -35 24l-227 297q-12 18 -12 33q0 14 14 35l227 289q19 22 35 22q13 0 19 -4l80 -47q22 -11 22 -33z" />
    <glyph glyph-name="logicalnot" unicode="&#xac;" horiz-adv-x="1077" 
d="M993 420q0 -33 -12.5 -47.5t-42.5 -14.5h-119q-30 0 -40.5 13t-10.5 45v237h-635q-32 0 -42.5 10.5t-10.5 36.5v107q0 23 11.5 33t37.5 10h803q38 0 49.5 -10t11.5 -43v-377z" />
    <glyph glyph-name="registered" unicode="&#xae;" horiz-adv-x="1701" 
d="M1595 713q0 -150 -59 -287t-158.5 -236.5t-237 -158t-288.5 -58.5q-208 0 -379 99.5t-267.5 269t-96.5 371.5q0 201 98 370t269 267t376 98q151 0 288.5 -58t237 -156t158.5 -234.5t59 -286.5zM1409 711q0 117 -43 222.5t-116.5 181.5t-177 120.5t-220.5 44.5t-221 -44.5
t-178 -120.5t-117 -181.5t-43 -222.5q0 -157 73 -287.5t201.5 -206.5t284.5 -76t284 76t200.5 206.5t72.5 287.5zM1149 365q0 -15 -19 -15h-100q-27 0 -41 23l-145 237h-72v-231q0 -29 -24 -29h-91q-28 0 -28 29v657q0 35 28 35h91q119 0 174.5 -10t109.5 -47
q74 -57 74 -168q0 -71 -34 -125t-95 -82l166 -254q6 -9 6 -20zM961 842q0 116 -142 116h-47v-237h41q6 0 18 1t17 1q54 3 83.5 33.5t29.5 85.5z" />
    <glyph glyph-name="macron" unicode="&#xaf;" horiz-adv-x="704" 
d="M645 1329q0 -31 -12.5 -44t-46.5 -13h-463q-53 0 -53 57v64q0 28 11 39.5t42 11.5h463q34 0 46.5 -11t12.5 -40v-64z" />
    <glyph glyph-name="degree" unicode="&#xb0;" horiz-adv-x="577" 
d="M481 1253q0 -79 -56.5 -135.5t-135.5 -56.5q-80 0 -136.5 56.5t-56.5 135.5t56.5 135t136.5 56t136 -56t56 -135zM360 1253q0 31 -20 51.5t-51 20.5t-52.5 -20.5t-21.5 -51.5t21.5 -52t52.5 -21t51 21t20 52z" />
    <glyph glyph-name="plusminus" unicode="&#xb1;" horiz-adv-x="1071" 
d="M993 760q0 -30 -11 -42.5t-40 -12.5h-287v-295q0 -28 -12.5 -39t-38.5 -11h-137q-27 0 -38 10.5t-11 37.5v297h-291q-28 0 -38.5 12.5t-10.5 38.5v114q0 27 10 39.5t37 12.5h293v290q0 30 11.5 42t39.5 12h131q30 0 42.5 -11.5t12.5 -40.5v-292h285q30 0 41.5 -12
t11.5 -40v-110zM891 68q0 -30 -11 -43t-40 -13h-596q-28 0 -38.5 13.5t-10.5 40.5v133q0 27 10 39t37 12h596q30 0 41.5 -11.5t11.5 -39.5v-131z" />
    <glyph glyph-name="twosuperior" unicode="&#xb2;" horiz-adv-x="739" 
d="M672 1212q0 -67 -35.5 -131.5t-108.5 -142.5q-54 -58 -172 -156h254q26 0 37.5 -11t11.5 -36v-67q0 -47 -49 -47h-460q-56 0 -56 51v57q0 36 29 62q21 20 113 106t135 131q106 109 106 176q0 41 -27 62.5t-73 21.5q-70 0 -156 -49q-11 -8 -28 -8h-3q-20 0 -32 26
q-27 54 -33 68q-4 8 -4 14q0 22 26 37q121 72 250 72q120 0 197.5 -62t77.5 -174z" />
    <glyph glyph-name="threesuperior" unicode="&#xb3;" horiz-adv-x="739" 
d="M653 870q0 -118 -90.5 -190t-214.5 -72q-127 0 -219 45q-37 16 -37 41q0 3 1 6.5t2.5 8.5t2.5 8l23 59q12 27 37 27q12 0 24 -6q70 -31 154 -31q62 0 96.5 29t34.5 77q0 41 -27.5 67.5t-62.5 35t-78 8.5h-18q-27 0 -38.5 15t-11.5 36v47q0 47 48 47h40q115 0 115 89
q0 36 -25 56.5t-71 20.5q-62 0 -127 -30q-26 -13 -41 -13q-22 0 -31 21l-24 61q-6 18 -6 21q0 21 22 35q101 61 231 61q107 0 184 -56.5t77 -160.5q0 -52 -26 -97.5t-69 -72.5q55 -26 90 -77t35 -116z" />
    <glyph glyph-name="acute" unicode="&#xb4;" horiz-adv-x="704" 
d="M561 1321q0 -19 -24 -31l-289 -153q-23 -13 -35 -13q-16 0 -35 25l-24 35q-11 18 -11 24q0 16 25 35l260 184q30 19 37 19q17 0 35 -27l49 -69q12 -15 12 -29z" />
    <glyph glyph-name="mu" unicode="&#xb5;" horiz-adv-x="1142" 
d="M1014 57q0 -32 -11 -44.5t-42 -12.5h-132q-44 0 -47 41l-4 49q-113 -98 -243 -98q-103 0 -162 47v-344q0 -29 -13 -41t-49 -12h-123q-34 0 -46.5 10.5t-12.5 40.5v645v608q0 47 53 47h144q26 0 38.5 -10t12.5 -37v-563q0 -110 39 -154q36 -39 114 -39q58 0 122.5 27
t113.5 70v659q0 47 53 47h144q26 0 38.5 -10t12.5 -37v-889z" />
    <glyph glyph-name="paragraph" unicode="&#xb6;" horiz-adv-x="1095" 
d="M952 -246q0 -43 -37 -43h-75q-21 0 -30 10.5t-9 34.5v1456h-164v-1448q0 -53 -47 -53h-152q-26 0 -36.5 10.5t-10.5 40.5v951q-137 19 -229 117t-92 233q0 149 107.5 251.5t258.5 102.5h465q29 0 40 -11t11 -40v-1612z" />
    <glyph glyph-name="periodcentered" unicode="&#xb7;" horiz-adv-x="471" 
d="M385 592q0 -61 -45 -99t-100 -38q-57 0 -101.5 36.5t-44.5 98.5q0 64 43.5 101.5t102.5 37.5q58 0 101.5 -37t43.5 -100z" />
    <glyph glyph-name="cedilla" unicode="&#xb8;" horiz-adv-x="704" 
d="M600 -252q0 -77 -64 -124.5t-169 -47.5q-68 0 -146 29q-28 11 -28 28q0 7 2 11l14 47q6 18 18 18q7 0 25 -6q59 -18 102 -18q36 0 60 15.5t24 43.5q0 66 -102 66h-47q-29 0 -40 11.5t-11 35.5q0 20 2 30l14 113h131l-6 -90h16q95 0 150 -41t55 -121z" />
    <glyph glyph-name="onesuperior" unicode="&#xb9;" horiz-adv-x="739" 
d="M524 686q0 -27 -13 -38t-40 -11h-84q-29 0 -41 10t-12 39v553l-129 -72q-13 -8 -29 -8q-24 0 -39 29l-31 55q-6 12 -6 21q0 26 31 41l225 129q27 16 64 16h59q45 0 45 -45v-719z" />
    <glyph glyph-name="ordmasculine" unicode="&#xba;" horiz-adv-x="761" 
d="M682 1128q0 -136 -81.5 -224.5t-223.5 -88.5q-147 0 -222 87t-75 228q0 137 81.5 225.5t223.5 88.5q147 0 222 -87t75 -229zM514 1128q0 83 -30.5 136t-100.5 53q-71 0 -103 -52t-32 -132q0 -83 31 -137t100 -54q70 0 102.5 52.5t32.5 133.5z" />
    <glyph glyph-name="guillemotright" unicode="&#xbb;" horiz-adv-x="944" 
d="M868 465q0 -14 -14 -35l-227 -289q-19 -22 -33 -22q-15 0 -21 4l-79 47q-23 12 -23 33q0 5 6 14l166 248l-160 252q-8 12 -8 20q0 19 25 35l67 39q16 8 29 8q14 0 35 -24l225 -297q12 -18 12 -33zM494 465q0 -19 -13 -35l-227 -289q-19 -22 -35 -22q-12 0 -18 4l-80 47
q-23 12 -23 33q0 8 4 14l168 248l-161 252q-9 18 -9 22q0 18 27 33l66 39q16 8 28 8q14 0 35 -24l227 -297q11 -16 11 -33z" />
    <glyph glyph-name="onequarter" unicode="&#xbc;" horiz-adv-x="1728" 
d="M1595 41q0 -45 -49 -45h-94q-47 0 -47 45v121h-348q-30 0 -39.5 13.5t-9.5 37.5v43q0 37 16 68l219 444q20 39 60 39h81q50 0 50 -35q0 -9 -9 -27l-202 -423h182v155q0 47 49 47h90q51 0 51 -45v-438zM1434 1454q0 -11 -15 -37l-882 -1435q-13 -21 -27 -30t-39 -9h-158
q-13 0 -22.5 7.5t-9.5 18.5q0 10 8 21l893 1442q18 28 33.5 37.5t46.5 9.5h135q37 0 37 -25zM539 686q0 -27 -12.5 -38t-39.5 -11h-84q-30 0 -42.5 10t-12.5 39v553l-127 -72q-13 -8 -28 -8q-27 0 -41 29l-31 55q-6 12 -6 21q0 26 30 41l226 129q27 16 63 16h60q45 0 45 -45
v-719z" />
    <glyph glyph-name="onehalf" unicode="&#xbd;" horiz-adv-x="1728" 
d="M1620 588q0 -127 -141 -277q-43 -46 -174 -155h256q26 0 37.5 -10t11.5 -35v-68q0 -47 -49 -47h-463q-29 0 -41.5 11t-12.5 38v59q0 36 29 62q25 24 115.5 107t132.5 128q106 112 106 179q0 41 -27 61.5t-73 20.5q-75 0 -156 -46q-13 -10 -30 -10q-24 0 -35 25
q0 2 -15 30.5t-18 38.5q-4 8 -4 17q0 16 29 35q119 71 250 71q120 0 196 -61.5t76 -173.5zM1372 1454q0 -12 -14 -37l-881 -1435q-13 -21 -26.5 -30t-38.5 -9h-160q-13 0 -22 7t-9 19q0 13 6 21l893 1442q18 28 33.5 37.5t46.5 9.5h135q37 0 37 -25zM479 686q0 -27 -12 -38
t-39 -11h-84q-30 0 -42.5 10t-12.5 39v553l-127 -72q-13 -8 -29 -8q-25 0 -39 29l-33 55q-6 12 -6 21q0 26 31 41l225 129q27 16 64 16h59q45 0 45 -45v-719z" />
    <glyph glyph-name="threequarters" unicode="&#xbe;" horiz-adv-x="1728" 
d="M1612 41q0 -45 -49 -45h-93q-49 0 -49 45v121h-348q-30 0 -39.5 13.5t-9.5 37.5v43q0 37 16 68l222 444q20 39 59 39h82q47 0 47 -35q0 -11 -8 -27l-203 -423h182v155q0 47 49 47h93q49 0 49 -45v-438zM1452 1454q0 -12 -14 -37l-883 -1435q-13 -21 -27 -30t-39 -9h-157
q-13 0 -23 7.5t-10 18.5q0 10 8 21l893 1442q18 28 33.5 37.5t46.5 9.5h135q37 0 37 -25zM668 870q0 -118 -91.5 -190t-216.5 -72q-127 0 -219 45q-35 16 -35 41q0 3 5 23l22 59q12 27 37 27q15 0 27 -6q70 -31 151 -31q62 0 96.5 29t34.5 77q0 41 -27 67.5t-61.5 35
t-77.5 8.5h-20q-47 0 -47 51v47q0 47 47 47h39q114 0 114 89q0 36 -24 56.5t-70 20.5q-62 0 -127 -30q-33 -13 -37 -13q-24 0 -34 21l-27 61q-4 12 -4 21q0 21 22 35q101 61 230 61q107 0 183.5 -56.5t76.5 -160.5q0 -53 -26 -98t-68 -72q55 -26 91 -77t36 -116z" />
    <glyph glyph-name="questiondown" unicode="&#xbf;" horiz-adv-x="901" 
d="M686 889q0 -61 -41.5 -96t-97.5 -35t-96.5 34.5t-40.5 94.5q0 59 42 96t95 37q54 0 96.5 -36t42.5 -95zM819 -336q0 -20 -18 -29q-154 -86 -332 -86q-160 0 -272.5 95t-112.5 252q0 156 135 294l150 154q44 46 65.5 87t24.5 108q1 14 -0.5 39.5t-1.5 33.5q0 37 24 37h137
q32 0 37 -31q13 -60 13 -120q0 -148 -97 -242l-151 -150q-101 -96 -101 -186q0 -91 57 -132.5t142 -41.5q46 0 106 16.5t107 42.5q18 9 21 9q15 0 22 -21l41 -110q4 -12 4 -19z" />
    <glyph glyph-name="Agrave" unicode="&#xc0;" horiz-adv-x="1316" 
d="M1300 33q0 -33 -36 -33h-183q-31 0 -45 11t-24 38l-107 301h-518l-106 -307q-13 -43 -56 -43h-182q-29 0 -29 27q0 14 4 22l500 1327q16 41 55 41h164q45 0 58 -37l501 -1321q4 -10 4 -26zM836 549l-146 432q-17 55 -41 133h-4q-19 -67 -43 -135l-145 -430h379zM842 1638
q0 -9 -10 -26l-27 -37q-16 -23 -32 -23q-11 0 -33 11l-293 157q-23 12 -23 29q0 15 11 29l49 71q17 25 35 25q10 0 36 -16l263 -187q24 -16 24 -33z" />
    <glyph glyph-name="Aacute" unicode="&#xc1;" horiz-adv-x="1316" 
d="M1300 33q0 -33 -36 -33h-183q-31 0 -45 11t-24 38l-107 301h-518l-106 -307q-13 -43 -56 -43h-182q-29 0 -29 27q0 14 4 22l500 1327q16 41 55 41h164q45 0 58 -37l501 -1321q4 -10 4 -26zM836 549l-146 432q-17 55 -41 133h-4q-19 -67 -43 -135l-145 -430h379zM858 1741
q0 -19 -24 -31l-289 -153q-23 -13 -35 -13q-16 0 -35 25l-24 35q-11 18 -11 24q0 16 25 35l260 184q30 19 37 19q17 0 35 -27l49 -69q12 -15 12 -29z" />
    <glyph glyph-name="Acircumflex" unicode="&#xc2;" horiz-adv-x="1316" 
d="M1300 33q0 -33 -36 -33h-183q-31 0 -45 11t-24 38l-107 301h-518l-106 -307q-13 -43 -56 -43h-182q-29 0 -29 27q0 14 4 22l500 1327q16 41 55 41h164q45 0 58 -37l501 -1321q4 -10 4 -26zM836 549l-146 432q-17 55 -41 133h-4q-19 -67 -43 -135l-145 -430h379zM956 1638
q0 -19 -14 -30l-51 -46q-12 -12 -25 -12q-14 0 -32 15l-179 137l-174 -129q-24 -17 -39 -17q-13 0 -30 17l-43 41q-15 15 -15 24q0 10 19 29l205 186q26 23 59 23h39q34 0 55 -19l211 -192q14 -11 14 -27z" />
    <glyph glyph-name="Atilde" unicode="&#xc3;" horiz-adv-x="1316" 
d="M1300 33q0 -33 -36 -33h-183q-31 0 -45 11t-24 38l-107 301h-518l-106 -307q-13 -43 -56 -43h-182q-29 0 -29 27q0 14 4 22l500 1327q16 41 55 41h164q45 0 58 -37l501 -1321q4 -10 4 -26zM836 549l-146 432q-17 55 -41 133h-4q-19 -67 -43 -135l-145 -430h379z
M1003 1686q0 -16 -16 -29q-123 -92 -215 -92q-41 0 -108 36t-103 36q-35 0 -133 -48q-21 -12 -33 -12q-15 0 -24 21l-46 94q-8 20 -8 24q0 14 29 33q106 70 186 70q44 0 123.5 -37t104.5 -37q32 0 127 53q19 11 30 11q16 0 29 -19l47 -78q10 -17 10 -26z" />
    <glyph glyph-name="Adieresis" unicode="&#xc4;" horiz-adv-x="1316" 
d="M1300 33q0 -33 -36 -33h-183q-31 0 -45 11t-24 38l-107 301h-518l-106 -307q-13 -43 -56 -43h-182q-29 0 -29 27q0 14 4 22l500 1327q16 41 55 41h164q45 0 58 -37l501 -1321q4 -10 4 -26zM836 549l-146 432q-17 55 -41 133h-4q-19 -67 -43 -135l-145 -430h379zM954 1685
q0 -51 -35.5 -81.5t-80.5 -30.5q-47 0 -85 29.5t-38 80.5q0 53 37 84t86 31q47 0 81.5 -30.5t34.5 -82.5zM580 1685q0 -51 -37 -81.5t-82 -30.5q-47 0 -84 29.5t-37 80.5q0 53 36 84t85 31q47 0 83 -31t36 -82z" />
    <glyph glyph-name="Aring" unicode="&#xc5;" horiz-adv-x="1316" 
d="M1300 33q0 -33 -36 -33h-183q-31 0 -45 11t-24 38l-107 301h-518l-106 -307q-13 -43 -56 -43h-182q-29 0 -29 27q0 14 4 22l500 1327q16 41 55 41h164q45 0 58 -37l501 -1321q4 -10 4 -26zM836 549l-146 432q-17 55 -41 133h-4q-19 -67 -43 -135l-145 -430h379zM819 1724
q0 -68 -48 -116t-116 -48t-117 48.5t-49 115.5t49 115.5t117 48.5t116 -48t48 -116zM711 1724q0 23 -16.5 39t-39.5 16t-40 -16t-17 -39t17 -39t40 -16t39.5 16t16.5 39z" />
    <glyph glyph-name="AE" unicode="&#xc6;" horiz-adv-x="1892" 
d="M1804 49q0 -49 -49 -49h-749q-64 0 -64 55v295h-457l-190 -307q-8 -14 -10.5 -18t-9.5 -12t-15 -10.5t-20 -2.5h-185q-13 0 -20.5 8t-7.5 19q0 14 6 22l817 1323q14 23 28 34t37 11h844q23 0 35.5 -10.5t9.5 -32.5l-16 -127q-3 -26 -18 -34.5t-50 -8.5h-516v-370h473
q54 0 54 -46v-116q0 -49 -52 -49h-475v-410h549q51 0 51 -47v-117zM942 549v575l-346 -575h346z" />
    <glyph glyph-name="Ccedilla" unicode="&#xc7;" horiz-adv-x="1220" 
d="M1174 100q0 -28 -33 -41q-213 -87 -408 -84h-18l-4 -65h16q95 0 150 -41t55 -121q0 -77 -64.5 -124.5t-169.5 -47.5q-67 0 -145 29q-29 12 -29 28q0 7 2 11l15 47q6 18 18 18q7 0 25 -6q59 -18 102 -18q36 0 60 15.5t24 43.5q0 66 -102 66h-47q-29 0 -40.5 12t-11.5 35
q0 20 2 30l13 103q-242 45 -368 235t-126 477q0 157 46.5 293t130.5 235.5t210 156.5t277 57q208 0 385 -86q32 -15 32 -35q0 -12 -6 -27l-47 -129q-9 -26 -28 -26q-7 0 -23 8q-142 74 -297 74q-180 0 -289 -140q-106 -135 -106 -370q0 -238 106 -377t293 -139q150 0 295 65
q20 8 25 8q20 0 32 -30l41 -111q7 -18 7 -29z" />
    <glyph glyph-name="Egrave" unicode="&#xc8;" horiz-adv-x="1101" 
d="M1014 49q0 -49 -49 -49h-760q-32 0 -43.5 11t-11.5 44v1311q0 51 47 51h772q24 0 33.5 -8.5t9.5 -26.5v-12l-15 -123q-3 -26 -18.5 -34.5t-50.5 -8.5h-514v-370h473q51 0 51 -46v-116q0 -26 -11.5 -37.5t-37.5 -11.5h-475v-410h549q51 0 51 -47v-117zM727 1638
q0 -9 -10 -26l-27 -37q-16 -23 -32 -23q-11 0 -33 11l-293 157q-23 12 -23 29q0 15 11 29l49 71q17 25 35 25q10 0 36 -16l263 -187q24 -16 24 -33z" />
    <glyph glyph-name="Eacute" unicode="&#xc9;" horiz-adv-x="1101" 
d="M1014 49q0 -49 -49 -49h-760q-32 0 -43.5 11t-11.5 44v1311q0 51 47 51h772q24 0 33.5 -8.5t9.5 -26.5v-12l-15 -123q-3 -26 -18.5 -34.5t-50.5 -8.5h-514v-370h473q51 0 51 -46v-116q0 -26 -11.5 -37.5t-37.5 -11.5h-475v-410h549q51 0 51 -47v-117zM813 1755
q0 -19 -24 -31l-289 -153q-23 -13 -35 -13q-16 0 -35 25l-24 35q-11 18 -11 24q0 16 25 35l260 184q30 19 37 19q17 0 35 -27l49 -69q12 -15 12 -29z" />
    <glyph glyph-name="Ecircumflex" unicode="&#xca;" horiz-adv-x="1101" 
d="M1014 49q0 -49 -49 -49h-760q-32 0 -43.5 11t-11.5 44v1311q0 51 47 51h772q24 0 33.5 -8.5t9.5 -26.5v-12l-15 -123q-3 -26 -18.5 -34.5t-50.5 -8.5h-514v-370h473q51 0 51 -46v-116q0 -26 -11.5 -37.5t-37.5 -11.5h-475v-410h549q51 0 51 -47v-117zM866 1640
q0 -19 -14 -30l-51 -46q-12 -12 -25 -12q-14 0 -32 15l-179 137l-174 -129q-24 -17 -39 -17q-13 0 -30 17l-43 41q-15 15 -15 24q0 10 19 29l205 186q26 23 59 23h39q34 0 55 -19l211 -192q14 -11 14 -27z" />
    <glyph glyph-name="Edieresis" unicode="&#xcb;" horiz-adv-x="1101" 
d="M1014 49q0 -49 -49 -49h-760q-32 0 -43.5 11t-11.5 44v1311q0 51 47 51h772q24 0 33.5 -8.5t9.5 -26.5v-12l-15 -123q-3 -26 -18.5 -34.5t-50.5 -8.5h-514v-370h473q51 0 51 -46v-116q0 -26 -11.5 -37.5t-37.5 -11.5h-475v-410h549q51 0 51 -47v-117zM858 1679
q0 -51 -35.5 -81.5t-80.5 -30.5q-47 0 -85 29.5t-38 80.5q0 53 37 84t86 31q47 0 81.5 -30.5t34.5 -82.5zM484 1679q0 -51 -37 -81.5t-82 -30.5q-47 0 -84 29.5t-37 80.5q0 53 36 84t85 31q47 0 83 -31t36 -82z" />
    <glyph glyph-name="Igrave" unicode="&#xcc;" horiz-adv-x="823" 
d="M700 1288q0 -24 -10 -33.5t-33 -9.5h-116v-1073h110q43 0 43 -43v-88q0 -41 -37 -41h-487q-41 0 -41 39v92q0 22 9.5 31.5t31.5 9.5h109v1073h-119q-41 0 -41 41v90q0 41 37 41h501q21 0 32 -11.5t11 -27.5v-90zM584 1634q0 -9 -10 -26l-27 -37q-16 -23 -32 -23
q-11 0 -33 11l-293 157q-23 12 -23 29q0 15 11 29l49 71q17 25 35 25q10 0 36 -16l263 -187q24 -16 24 -33z" />
    <glyph glyph-name="Iacute" unicode="&#xcd;" horiz-adv-x="823" 
d="M700 1288q0 -24 -10 -33.5t-33 -9.5h-116v-1073h110q43 0 43 -43v-88q0 -41 -37 -41h-487q-41 0 -41 39v92q0 22 9.5 31.5t31.5 9.5h109v1073h-119q-41 0 -41 41v90q0 41 37 41h501q21 0 32 -11.5t11 -27.5v-90zM612 1745q0 -19 -24 -31l-289 -153q-23 -13 -35 -13
q-16 0 -35 25l-24 35q-11 18 -11 24q0 16 25 35l260 184q30 19 37 19q17 0 35 -27l49 -69q12 -15 12 -29z" />
    <glyph glyph-name="Icircumflex" unicode="&#xce;" horiz-adv-x="823" 
d="M700 1288q0 -24 -10 -33.5t-33 -9.5h-116v-1073h110q43 0 43 -43v-88q0 -41 -37 -41h-487q-41 0 -41 39v92q0 22 9.5 31.5t31.5 9.5h109v1073h-119q-41 0 -41 41v90q0 41 37 41h501q21 0 32 -11.5t11 -27.5v-90zM700 1642q0 -19 -14 -30l-51 -46q-12 -12 -25 -12
q-14 0 -32 15l-179 137l-174 -129q-24 -17 -39 -17q-13 0 -30 17l-43 41q-15 15 -15 24q0 10 19 29l205 186q26 23 59 23h39q34 0 55 -19l211 -192q14 -11 14 -27z" />
    <glyph glyph-name="Idieresis" unicode="&#xcf;" horiz-adv-x="823" 
d="M700 1288q0 -24 -10 -33.5t-33 -9.5h-116v-1073h110q43 0 43 -43v-88q0 -41 -37 -41h-487q-41 0 -41 39v92q0 22 9.5 31.5t31.5 9.5h109v1073h-119q-41 0 -41 41v90q0 41 37 41h501q21 0 32 -11.5t11 -27.5v-90zM704 1683q0 -51 -35.5 -81.5t-80.5 -30.5q-47 0 -85 29.5
t-38 80.5q0 53 37 84t86 31q47 0 81.5 -30.5t34.5 -82.5zM330 1683q0 -51 -37 -81.5t-82 -30.5q-47 0 -84 29.5t-37 80.5q0 53 36 84t85 31q47 0 83 -31t36 -82z" />
    <glyph glyph-name="Eth" unicode="&#xd0;" horiz-adv-x="1417" 
d="M1329 702q0 -357 -223 -548q-185 -154 -508 -154h-391q-33 0 -46.5 11.5t-13.5 45.5v590h-137q-26 0 -34.5 8t-8.5 31v62q0 24 8 31t33 7h139v570q0 33 13.5 47t50.5 14h295q182 0 306.5 -23.5t223.5 -80.5q141 -81 217 -234.5t76 -376.5zM1047 705q0 285 -160 405
q-113 84 -324 84h-149v-408h143q106 0 109 -8q22 -2 22 -30v-60q0 -26 -9 -33.5t-36 -7.5h-166h-63v-426h157q115 0 200.5 24t146.5 85q129 129 129 375z" />
    <glyph glyph-name="Ntilde" unicode="&#xd1;" horiz-adv-x="1488" 
d="M1341 55q0 -32 -12 -43.5t-37 -11.5h-137q-48 0 -78 43l-667 913h-4v-903q0 -53 -54 -53h-147q-30 0 -42.5 10.5t-12.5 40.5v1311q0 31 13 43t42 12h133q25 0 40 -8.5t30 -30.5l673 -925h4v911q0 53 54 53h153q30 0 39.5 -13.5t9.5 -41.5v-1307zM1065 1688q0 -16 -16 -29
q-123 -92 -215 -92q-41 0 -108 36t-103 36q-35 0 -133 -48q-21 -12 -33 -12q-15 0 -24 21l-46 94q-8 20 -8 24q0 14 29 33q106 70 186 70q44 0 123.5 -37t104.5 -37q32 0 127 53q19 11 30 11q16 0 29 -19l47 -78q10 -17 10 -26z" />
    <glyph glyph-name="Ograve" unicode="&#xd2;" horiz-adv-x="1423" 
d="M1339 717q0 -171 -47 -311t-130.5 -234t-199.5 -145.5t-253 -51.5q-290 0 -453.5 197t-163.5 533q0 219 77 386.5t220.5 260t333.5 92.5q149 0 267 -54.5t194 -152t115.5 -229.5t39.5 -291zM1057 711q0 255 -87 382.5t-253 127.5q-155 0 -248.5 -136.5t-93.5 -373.5
q0 -252 88.5 -382t253.5 -130q156 0 248 133.5t92 378.5zM880 1634q0 -9 -10 -26l-27 -37q-16 -23 -32 -23q-11 0 -33 11l-293 157q-23 12 -23 29q0 15 11 29l49 71q17 25 35 25q10 0 36 -16l263 -187q24 -16 24 -33z" />
    <glyph glyph-name="Oacute" unicode="&#xd3;" horiz-adv-x="1423" 
d="M1339 717q0 -171 -47 -311t-130.5 -234t-199.5 -145.5t-253 -51.5q-290 0 -453.5 197t-163.5 533q0 219 77 386.5t220.5 260t333.5 92.5q149 0 267 -54.5t194 -152t115.5 -229.5t39.5 -291zM1057 711q0 255 -87 382.5t-253 127.5q-155 0 -248.5 -136.5t-93.5 -373.5
q0 -252 88.5 -382t253.5 -130q156 0 248 133.5t92 378.5zM923 1747q0 -19 -24 -31l-289 -153q-23 -13 -35 -13q-16 0 -35 25l-24 35q-11 18 -11 24q0 16 25 35l260 184q30 19 37 19q17 0 35 -27l49 -69q12 -15 12 -29z" />
    <glyph glyph-name="Ocircumflex" unicode="&#xd4;" horiz-adv-x="1423" 
d="M1339 717q0 -171 -47 -311t-130.5 -234t-199.5 -145.5t-253 -51.5q-290 0 -453.5 197t-163.5 533q0 219 77 386.5t220.5 260t333.5 92.5q149 0 267 -54.5t194 -152t115.5 -229.5t39.5 -291zM1057 711q0 255 -87 382.5t-253 127.5q-155 0 -248.5 -136.5t-93.5 -373.5
q0 -252 88.5 -382t253.5 -130q156 0 248 133.5t92 378.5zM1011 1644q0 -19 -14 -30l-51 -46q-12 -12 -25 -12q-14 0 -32 15l-179 137l-174 -129q-24 -17 -39 -17q-13 0 -30 17l-43 41q-15 15 -15 24q0 10 19 29l205 186q26 23 59 23h39q34 0 55 -19l211 -192q14 -11 14 -27z
" />
    <glyph glyph-name="Otilde" unicode="&#xd5;" horiz-adv-x="1423" 
d="M1339 717q0 -171 -47 -311t-130.5 -234t-199.5 -145.5t-253 -51.5q-290 0 -453.5 197t-163.5 533q0 219 77 386.5t220.5 260t333.5 92.5q149 0 267 -54.5t194 -152t115.5 -229.5t39.5 -291zM1057 711q0 255 -87 382.5t-253 127.5q-155 0 -248.5 -136.5t-93.5 -373.5
q0 -252 88.5 -382t253.5 -130q156 0 248 133.5t92 378.5zM1069 1684q0 -16 -16 -29q-123 -92 -215 -92q-41 0 -108 36t-103 36q-35 0 -133 -48q-21 -12 -33 -12q-15 0 -24 21l-46 94q-8 20 -8 24q0 14 29 33q106 70 186 70q44 0 123.5 -37t104.5 -37q32 0 127 53
q19 11 30 11q16 0 29 -19l47 -78q10 -17 10 -26z" />
    <glyph glyph-name="Odieresis" unicode="&#xd6;" horiz-adv-x="1423" 
d="M1339 717q0 -171 -47 -311t-130.5 -234t-199.5 -145.5t-253 -51.5q-290 0 -453.5 197t-163.5 533q0 219 77 386.5t220.5 260t333.5 92.5q149 0 267 -54.5t194 -152t115.5 -229.5t39.5 -291zM1057 711q0 255 -87 382.5t-253 127.5q-155 0 -248.5 -136.5t-93.5 -373.5
q0 -252 88.5 -382t253.5 -130q156 0 248 133.5t92 378.5zM1011 1687q0 -51 -35.5 -81.5t-80.5 -30.5q-47 0 -85 29.5t-38 80.5q0 53 37 84t86 31q47 0 81.5 -30.5t34.5 -82.5zM637 1687q0 -51 -37 -81.5t-82 -30.5q-47 0 -84 29.5t-37 80.5q0 53 36 84t85 31q47 0 83 -31
t36 -82z" />
    <glyph glyph-name="multiply" unicode="&#xd7;" horiz-adv-x="1071" 
d="M930 299q0 -16 -21 -37l-94 -98q-19 -19 -39 -19q-14 0 -31 17l-217 217l-204 -205q-16 -16 -35 -16q-21 0 -39 18l-80 82q-20 20 -20 35q0 13 20 33l205 206l-211 213q-23 23 -23 39q0 14 21 35l92 92q23 23 39 23t37 -21l215 -213l200 203q21 21 37 21t37 -21l78 -78
q18 -18 18 -39q0 -22 -14 -36l-205 -203l215 -215q19 -19 19 -33z" />
    <glyph glyph-name="Oslash" unicode="&#xd8;" horiz-adv-x="1433" 
d="M1350 717q0 -171 -47 -311t-130.5 -234t-200 -145.5t-253.5 -51.5q-205 0 -352 103l-95 -133q-25 -35 -41 -35q-12 0 -36 18l-58 41q-26 17 -26 35q0 13 16 35l117 164q-142 190 -142 502q0 219 77 386.5t220.5 260t333.5 92.5q187 0 326 -90l104 145q17 25 35 25
q10 0 19 -6l73 -56q27 -21 27 -32q0 -14 -10 -29l-115 -162q158 -196 158 -522zM918 1159q-78 66 -193 66q-155 0 -247.5 -138t-92.5 -376q0 -155 43 -256zM1067 711q0 177 -47 295l-506 -727q84 -84 213 -84q155 0 247.5 135t92.5 381z" />
    <glyph glyph-name="Ugrave" unicode="&#xd9;" horiz-adv-x="1474" 
d="M1331 629q0 -319 -150.5 -486.5t-447.5 -167.5q-160 0 -274 43t-183 129t-101 205.5t-32 280.5v735q0 49 54 49h161q26 0 38 -11.5t12 -37.5v-713q0 -236 74 -346t261 -110q179 0 252.5 112.5t73.5 343.5v713q0 49 51 49h162q26 0 37.5 -11.5t11.5 -37.5v-739zM901 1634
q0 -9 -10 -26l-27 -37q-16 -23 -32 -23q-11 0 -33 11l-293 157q-23 12 -23 29q0 15 11 29l49 71q17 25 35 25q10 0 36 -16l263 -187q24 -16 24 -33z" />
    <glyph glyph-name="Uacute" unicode="&#xda;" horiz-adv-x="1474" 
d="M1331 629q0 -319 -150.5 -486.5t-447.5 -167.5q-160 0 -274 43t-183 129t-101 205.5t-32 280.5v735q0 49 54 49h161q26 0 38 -11.5t12 -37.5v-713q0 -236 74 -346t261 -110q179 0 252.5 112.5t73.5 343.5v713q0 49 51 49h162q26 0 37.5 -11.5t11.5 -37.5v-739zM973 1731
q0 -19 -24 -31l-289 -153q-23 -13 -35 -13q-16 0 -35 25l-24 35q-11 18 -11 24q0 16 25 35l260 184q30 19 37 19q17 0 35 -27l49 -69q12 -15 12 -29z" />
    <glyph glyph-name="Ucircumflex" unicode="&#xdb;" horiz-adv-x="1474" 
d="M1331 629q0 -319 -150.5 -486.5t-447.5 -167.5q-160 0 -274 43t-183 129t-101 205.5t-32 280.5v735q0 49 54 49h161q26 0 38 -11.5t12 -37.5v-713q0 -236 74 -346t261 -110q179 0 252.5 112.5t73.5 343.5v713q0 49 51 49h162q26 0 37.5 -11.5t11.5 -37.5v-739zM1026 1642
q0 -19 -14 -30l-51 -46q-12 -12 -25 -12q-14 0 -32 15l-179 137l-174 -129q-24 -17 -39 -17q-13 0 -30 17l-43 41q-15 15 -15 24q0 10 19 29l205 186q26 23 59 23h39q34 0 55 -19l211 -192q14 -11 14 -27z" />
    <glyph glyph-name="Udieresis" unicode="&#xdc;" horiz-adv-x="1474" 
d="M1331 629q0 -319 -150.5 -486.5t-447.5 -167.5q-160 0 -274 43t-183 129t-101 205.5t-32 280.5v735q0 49 54 49h161q26 0 38 -11.5t12 -37.5v-713q0 -236 74 -346t261 -110q179 0 252.5 112.5t73.5 343.5v713q0 49 51 49h162q26 0 37.5 -11.5t11.5 -37.5v-739zM1036 1685
q0 -51 -35.5 -81.5t-80.5 -30.5q-47 0 -85 29.5t-38 80.5q0 53 37 84t86 31q47 0 81.5 -30.5t34.5 -82.5zM662 1685q0 -51 -37 -81.5t-82 -30.5q-47 0 -84 29.5t-37 80.5q0 53 36 84t85 31q47 0 83 -31t36 -82z" />
    <glyph glyph-name="Yacute" unicode="&#xdd;" horiz-adv-x="1212" 
d="M1180 1393q0 -12 -9 -27l-421 -780v-539q0 -47 -48 -47h-172q-47 0 -47 51v524l-444 793q-6 12 -6 21q0 12 10 20t27 8h186q56 0 76 -39l295 -579h4l291 575q12 25 27 34t44 9h148q39 0 39 -24zM866 1737q0 -19 -24 -31l-289 -153q-23 -13 -35 -13q-16 0 -35 25l-24 35
q-11 18 -11 24q0 16 25 35l260 184q30 19 37 19q17 0 35 -27l49 -69q12 -15 12 -29z" />
    <glyph glyph-name="Thorn" unicode="&#xde;" horiz-adv-x="1132" 
d="M1063 643q0 -205 -119 -340t-315 -135q-163 0 -258 74v-189q0 -29 -14 -41t-42 -12h-143q-49 0 -49 53v709v319q0 156 8 164q3 30 35 35l151 20q2 0 7.5 1.5t7.5 1.5q37 0 37 -43v-254q46 41 118 66.5t152 25.5q188 0 306 -122.5t118 -332.5zM807 633q0 123 -58 193.5
t-161 70.5q-67 0 -124 -23t-93 -57v-371q31 -34 91 -57.5t118 -23.5q114 0 170.5 71.5t56.5 196.5z" />
    <glyph glyph-name="germandbls" unicode="&#xdf;" horiz-adv-x="1228" 
d="M1159 428q0 -94 -28 -170t-75.5 -126t-114.5 -83.5t-140.5 -48t-157.5 -14.5h-12q-56 0 -72 2q-31 3 -40 13.5t-9 43.5v88q0 30 8.5 40.5t30.5 10.5h4q13 0 39 -1t39 -1q132 0 205 69t73 181q0 64 -23.5 112.5t-65.5 77t-94.5 42.5t-115.5 14h-57q-29 0 -36 4.5t-7 24.5
v118q0 20 6.5 26.5t26.5 6.5h26q109 0 171.5 60t62.5 169q0 99 -56 154t-159 55q-90 0 -145.5 -58.5t-55.5 -180.5v-269v-923q0 -29 -10.5 -42t-38.5 -13h-150q-49 0 -49 53v1093q0 118 23 222q35 157 146 235t288 78q91 0 169 -19t144.5 -60.5t105 -116t38.5 -175.5
q0 -110 -61 -203t-167 -120v-2q146 -18 240 -116.5t94 -250.5z" />
    <glyph glyph-name="agrave" unicode="&#xe0;" horiz-adv-x="1142" 
d="M1094 39q0 -39 -41 -39h-99q-144 0 -168 121h-4q-39 -58 -126.5 -102t-170.5 -44q-105 0 -187 41t-131.5 111.5t-75 160t-25.5 191.5q0 129 36.5 233.5t98.5 170.5t141 101.5t166 35.5q81 0 152 -33t110 -86l4 55q3 37 43 37h144q43 0 43 -45v-710q0 -45 12 -60
q8 -8 24 -8h17q19 0 28 -7.5t9 -27.5v-96zM756 317v396q-31 45 -88 74.5t-115 29.5q-99 0 -165 -83.5t-66 -237.5q0 -139 54.5 -228.5t162.5 -89.5q70 0 130.5 43t86.5 96zM768 1212q0 -9 -10 -26l-27 -37q-16 -23 -32 -23q-11 0 -33 11l-293 157q-23 12 -23 29q0 15 11 29
l49 71q17 25 35 25q10 0 36 -16l263 -187q24 -16 24 -33z" />
    <glyph glyph-name="aacute" unicode="&#xe1;" horiz-adv-x="1142" 
d="M1094 39q0 -39 -41 -39h-99q-144 0 -168 121h-4q-39 -58 -126.5 -102t-170.5 -44q-105 0 -187 41t-131.5 111.5t-75 160t-25.5 191.5q0 129 36.5 233.5t98.5 170.5t141 101.5t166 35.5q81 0 152 -33t110 -86l4 55q3 37 43 37h144q43 0 43 -45v-710q0 -45 12 -60
q8 -8 24 -8h17q19 0 28 -7.5t9 -27.5v-96zM756 317v396q-31 45 -88 74.5t-115 29.5q-99 0 -165 -83.5t-66 -237.5q0 -139 54.5 -228.5t162.5 -89.5q70 0 130.5 43t86.5 96zM827 1321q0 -19 -24 -31l-289 -153q-23 -13 -35 -13q-16 0 -35 25l-24 35q-11 18 -11 24q0 16 25 35
l260 184q30 19 37 19q17 0 35 -27l49 -69q12 -15 12 -29z" />
    <glyph glyph-name="acircumflex" unicode="&#xe2;" horiz-adv-x="1142" 
d="M1094 39q0 -39 -41 -39h-99q-144 0 -168 121h-4q-39 -58 -126.5 -102t-170.5 -44q-105 0 -187 41t-131.5 111.5t-75 160t-25.5 191.5q0 129 36.5 233.5t98.5 170.5t141 101.5t166 35.5q81 0 152 -33t110 -86l4 55q3 37 43 37h144q43 0 43 -45v-710q0 -45 12 -60
q8 -8 24 -8h17q19 0 28 -7.5t9 -27.5v-96zM756 317v396q-31 45 -88 74.5t-115 29.5q-99 0 -165 -83.5t-66 -237.5q0 -139 54.5 -228.5t162.5 -89.5q70 0 130.5 43t86.5 96zM880 1206q0 -19 -14 -30l-51 -46q-12 -12 -25 -12q-14 0 -32 15l-179 137l-174 -129
q-24 -17 -39 -17q-13 0 -30 17l-43 41q-15 15 -15 24q0 10 19 29l205 186q26 23 59 23h39q34 0 55 -19l211 -192q14 -11 14 -27z" />
    <glyph glyph-name="atilde" unicode="&#xe3;" horiz-adv-x="1142" 
d="M1094 39q0 -39 -41 -39h-99q-144 0 -168 121h-4q-39 -58 -126.5 -102t-170.5 -44q-105 0 -187 41t-131.5 111.5t-75 160t-25.5 191.5q0 129 36.5 233.5t98.5 170.5t141 101.5t166 35.5q81 0 152 -33t110 -86l4 55q3 37 43 37h144q43 0 43 -45v-710q0 -45 12 -60
q8 -8 24 -8h17q19 0 28 -7.5t9 -27.5v-96zM756 317v396q-31 45 -88 74.5t-115 29.5q-99 0 -165 -83.5t-66 -237.5q0 -139 54.5 -228.5t162.5 -89.5q70 0 130.5 43t86.5 96zM925 1311q0 -16 -16 -29q-123 -92 -215 -92q-41 0 -108 36t-103 36q-35 0 -133 -48q-21 -12 -33 -12
q-15 0 -24 21l-46 94q-8 20 -8 24q0 14 29 33q106 70 186 70q44 0 123.5 -37t104.5 -37q32 0 127 53q19 11 30 11q16 0 29 -19l47 -78q10 -17 10 -26z" />
    <glyph glyph-name="adieresis" unicode="&#xe4;" horiz-adv-x="1142" 
d="M1094 39q0 -39 -41 -39h-99q-144 0 -168 121h-4q-39 -58 -126.5 -102t-170.5 -44q-105 0 -187 41t-131.5 111.5t-75 160t-25.5 191.5q0 129 36.5 233.5t98.5 170.5t141 101.5t166 35.5q81 0 152 -33t110 -86l4 55q3 37 43 37h144q43 0 43 -45v-710q0 -45 12 -60
q8 -8 24 -8h17q19 0 28 -7.5t9 -27.5v-96zM756 317v396q-31 45 -88 74.5t-115 29.5q-99 0 -165 -83.5t-66 -237.5q0 -139 54.5 -228.5t162.5 -89.5q70 0 130.5 43t86.5 96zM917 1331q0 -51 -35.5 -81.5t-80.5 -30.5q-47 0 -85 29.5t-38 80.5q0 53 37 84t86 31
q47 0 81.5 -30.5t34.5 -82.5zM543 1331q0 -51 -37 -81.5t-82 -30.5q-47 0 -84 29.5t-37 80.5q0 53 36 84t85 31q47 0 83 -31t36 -82z" />
    <glyph glyph-name="aring" unicode="&#xe5;" horiz-adv-x="1142" 
d="M1094 39q0 -39 -41 -39h-99q-144 0 -168 121h-4q-39 -58 -126.5 -102t-170.5 -44q-105 0 -187 41t-131.5 111.5t-75 160t-25.5 191.5q0 129 36.5 233.5t98.5 170.5t141 101.5t166 35.5q81 0 152 -33t110 -86l4 55q3 37 43 37h144q43 0 43 -45v-710q0 -45 12 -60
q8 -8 24 -8h17q19 0 28 -7.5t9 -27.5v-96zM756 317v396q-31 45 -88 74.5t-115 29.5q-99 0 -165 -83.5t-66 -237.5q0 -139 54.5 -228.5t162.5 -89.5q70 0 130.5 43t86.5 96zM754 1280q0 -68 -48 -116t-116 -48t-117 48.5t-49 115.5t49 115.5t117 48.5t116 -48t48 -116z
M646 1280q0 23 -16.5 39t-39.5 16t-40 -16t-17 -39t17 -39t40 -16t39.5 16t16.5 39z" />
    <glyph glyph-name="ae" unicode="&#xe6;" horiz-adv-x="1599" 
d="M1536 522q0 -49 -12.5 -64.5t-46.5 -15.5h-172h-431q12 -93 70.5 -156.5t142.5 -82.5q36 -8 80 -8q83 0 154 16q93 20 123 20q23 0 29 -24l24 -94q6 -21 6 -33q0 -22 -33 -37q-72 -32 -167 -50t-179 -18q-234 0 -358 142q-166 -142 -395 -142q-136 0 -227 80.5t-91 218.5
q0 160 152 258q148 95 385 95h49v49q0 65 -33 106q-49 52 -135 52q-137 0 -272 -70q-12 -6 -19 -6q-22 0 -28 22l-31 97q-4 12 -4 18q0 23 33 39q165 86 348 86q100 0 177.5 -33.5t117.5 -101.5h4q52 62 138 98.5t187 36.5q128 0 218.5 -59.5t142.5 -163.5q53 -106 53 -275z
M1298 602q0 99 -46.5 163t-143.5 64q-95 0 -155.5 -65t-73.5 -162h419zM676 256q-37 79 -37 182v23q-47 0 -152 -19q-36 -7 -64.5 -16.5t-57 -26t-44.5 -43.5t-16 -63q0 -58 38.5 -91.5t98.5 -33.5q57 0 128 28.5t106 59.5z" />
    <glyph glyph-name="ccedilla" unicode="&#xe7;" horiz-adv-x="915" 
d="M877 70q0 -20 -29 -33q-135 -62 -297 -62h-37l-4 -65h16q95 0 150 -41t55 -121q0 -77 -64 -124.5t-169 -47.5q-68 0 -146 29q-28 11 -28 28q0 7 2 11l14 47q6 18 18 18q7 0 25 -6q59 -18 102 -18q36 0 60 15.5t24 43.5q0 66 -102 66h-47q-29 0 -40 11.5t-11 35.5
q0 20 2 30l14 109q-157 44 -240.5 171.5t-83.5 319.5q0 241 136.5 387t371.5 146q149 0 275 -57q24 -12 24 -33q0 -7 -4 -19l-26 -110q-6 -29 -25 -29q-6 0 -22 8q-106 45 -197 45q-131 0 -204 -86.5t-73 -238.5t69 -242t198 -90q103 0 215 45q18 6 20 6q18 0 25 -24
q1 -3 7 -23t11 -39t8 -29q7 -25 7 -34z" />
    <glyph glyph-name="egrave" unicode="&#xe8;" horiz-adv-x="1054" 
d="M997 500q0 -36 -14 -48t-53 -12h-600q12 -119 92 -192.5t201 -73.5q123 0 251 49q1 0 9.5 3t13.5 3q23 0 29 -24l28 -105q4 -20 4 -24q0 -22 -32 -35q-71 -32 -165 -49t-179 -17q-240 0 -376 142t-136 383q0 231 140 375.5t368 144.5q182 0 299 -123q120 -125 120 -367
v-30zM754 602v23q-3 86 -52.5 145t-138.5 59q-95 0 -155.5 -65t-73.5 -162h420zM729 1212q0 -9 -10 -26l-27 -37q-16 -23 -32 -23q-11 0 -33 11l-293 157q-23 12 -23 29q0 15 11 29l49 71q17 25 35 25q10 0 36 -16l263 -187q24 -16 24 -33z" />
    <glyph glyph-name="eacute" unicode="&#xe9;" horiz-adv-x="1054" 
d="M997 500q0 -36 -14 -48t-53 -12h-600q12 -119 92 -192.5t201 -73.5q123 0 251 49q1 0 9.5 3t13.5 3q23 0 29 -24l28 -105q4 -20 4 -24q0 -22 -32 -35q-71 -32 -165 -49t-179 -17q-240 0 -376 142t-136 383q0 231 140 375.5t368 144.5q182 0 299 -123q120 -125 120 -367
v-30zM754 602v23q-3 86 -52.5 145t-138.5 59q-95 0 -155.5 -65t-73.5 -162h420zM758 1321q0 -19 -24 -31l-289 -153q-23 -13 -35 -13q-16 0 -35 25l-24 35q-11 18 -11 24q0 16 25 35l260 184q30 19 37 19q17 0 35 -27l49 -69q12 -15 12 -29z" />
    <glyph glyph-name="ecircumflex" unicode="&#xea;" horiz-adv-x="1054" 
d="M997 500q0 -36 -14 -48t-53 -12h-600q12 -119 92 -192.5t201 -73.5q123 0 251 49q1 0 9.5 3t13.5 3q23 0 29 -24l28 -105q4 -20 4 -24q0 -22 -32 -35q-71 -32 -165 -49t-179 -17q-240 0 -376 142t-136 383q0 231 140 375.5t368 144.5q182 0 299 -123q120 -125 120 -367
v-30zM754 602v23q-3 86 -52.5 145t-138.5 59q-95 0 -155.5 -65t-73.5 -162h420zM831 1206q0 -19 -14 -30l-51 -46q-12 -12 -25 -12q-14 0 -32 15l-179 137l-174 -129q-24 -17 -39 -17q-13 0 -30 17l-43 41q-15 15 -15 24q0 10 19 29l205 186q26 23 59 23h39q34 0 55 -19
l211 -192q14 -11 14 -27z" />
    <glyph glyph-name="edieresis" unicode="&#xeb;" horiz-adv-x="1054" 
d="M997 500q0 -36 -14 -48t-53 -12h-600q12 -119 92 -192.5t201 -73.5q123 0 251 49q1 0 9.5 3t13.5 3q23 0 29 -24l28 -105q4 -20 4 -24q0 -22 -32 -35q-71 -32 -165 -49t-179 -17q-240 0 -376 142t-136 383q0 231 140 375.5t368 144.5q182 0 299 -123q120 -125 120 -367
v-30zM754 602v23q-3 86 -52.5 145t-138.5 59q-95 0 -155.5 -65t-73.5 -162h420zM843 1331q0 -51 -35.5 -81.5t-80.5 -30.5q-47 0 -85 29.5t-38 80.5q0 53 37 84t86 31q47 0 81.5 -30.5t34.5 -82.5zM469 1331q0 -51 -37 -81.5t-82 -30.5q-47 0 -84 29.5t-37 80.5q0 53 36 84
t85 31q47 0 83 -31t36 -82z" />
    <glyph glyph-name="igrave" unicode="&#xec;" horiz-adv-x="534" 
d="M393 51q0 -27 -12 -39t-39 -12h-143q-28 0 -41 12t-13 39v895q0 47 54 47h143q26 0 38.5 -10t12.5 -37v-895zM487 1212q0 -9 -10 -26l-27 -37q-16 -23 -32 -23q-11 0 -33 11l-293 157q-23 12 -23 29q0 15 11 29l49 71q17 25 35 25q10 0 36 -16l263 -187q24 -16 24 -33z
" />
    <glyph glyph-name="iacute" unicode="&#xed;" horiz-adv-x="534" 
d="M393 51q0 -27 -12 -39t-39 -12h-143q-28 0 -41 12t-13 39v895q0 47 54 47h143q26 0 38.5 -10t12.5 -37v-895zM481 1321q0 -19 -24 -31l-289 -153q-23 -13 -35 -13q-16 0 -35 25l-24 35q-11 18 -11 24q0 16 25 35l260 184q30 19 37 19q17 0 35 -27l49 -69q12 -15 12 -29z
" />
    <glyph glyph-name="icircumflex" unicode="&#xee;" horiz-adv-x="573" 
d="M408 51q0 -51 -52 -51h-143q-28 0 -40.5 12t-12.5 39v895q0 47 53 47h143q26 0 39 -10.5t13 -36.5v-895zM586 1206q0 -18 -15 -30l-51 -46q-12 -12 -24 -12q-15 0 -33 15l-178 137l-174 -129q-24 -17 -39 -17q-14 0 -31 17l-43 41q-14 14 -14 24q0 11 18 29l205 186
q26 23 59 23h39q34 0 55 -19l211 -192q15 -12 15 -27z" />
    <glyph glyph-name="idieresis" unicode="&#xef;" horiz-adv-x="559" 
d="M586 1331q0 -51 -36 -81.5t-81 -30.5q-47 0 -85 29.5t-38 80.5q0 53 37 84t86 31q47 0 82 -31t35 -82zM211 1331q0 -51 -37 -81.5t-82 -30.5q-47 0 -84 29.5t-37 80.5q0 53 36 84t85 31q47 0 83 -31t36 -82zM399 51q0 -28 -11.5 -39.5t-39.5 -11.5h-143q-53 0 -53 51v895
q0 47 53 47h143q27 0 39 -10t12 -37v-895z" />
    <glyph glyph-name="eth" unicode="&#xf0;" horiz-adv-x="1120" 
d="M1051 563q0 -127 -31.5 -233t-91.5 -186t-155 -124.5t-216 -44.5q-122 0 -216.5 39.5t-153 111t-88 166t-29.5 208.5q0 149 57.5 265.5t172 185.5t269.5 69q16 0 28 -0.5t23.5 -3t17.5 -3.5t21 -5.5t23 -6.5q-47 147 -215 236l-68 -139q-11 -23 -22 -23q-9 0 -25 8
l-49 25q-22 11 -22 25q0 9 8 22l67 131q-94 31 -157 41q-31 5 -31 29v8v4l22 80q6 21 15 28t28 7q3 0 9.5 -1t9.5 -1q98 -9 190 -33l68 131q12 23 20 23t23 -9l49 -26q23 -11 23 -21q0 -3 -1.5 -6t-4 -7.5t-3.5 -8.5l-57 -117q97 -42 179 -114t139 -158.5t97 -185t58.5 -196
t18.5 -190.5zM801 498q0 67 -11.5 122.5t-37.5 103t-73 74.5t-112 27q-66 0 -114 -26.5t-75 -73t-39.5 -101.5t-12.5 -120q0 -67 11.5 -123.5t36.5 -105.5t72.5 -77t112.5 -28t113.5 27t75.5 74.5t40 104t13 122.5z" />
    <glyph glyph-name="ntilde" unicode="&#xf1;" 
d="M1020 53q0 -27 -11 -40t-38 -13h-148q-27 0 -38 13t-11 40v557q0 93 -34 143t-122 50q-59 0 -126 -28t-115 -70v-654q0 -51 -49 -51h-150q-49 0 -49 49v893q0 51 51 51h133q23 0 35.5 -8.5t13.5 -30.5l3 -53q147 119 331 119q166 0 245 -96.5t79 -270.5v-600zM907 1311
q0 -16 -16 -29q-123 -92 -215 -92q-41 0 -108 36t-103 36q-35 0 -133 -48q-21 -12 -33 -12q-15 0 -24 21l-46 94q-8 20 -8 24q0 14 29 33q106 70 186 70q44 0 123.5 -37t104.5 -37q32 0 127 53q19 11 30 11q16 0 29 -19l47 -78q10 -17 10 -26z" />
    <glyph glyph-name="ograve" unicode="&#xf2;" horiz-adv-x="1126" 
d="M1057 498q0 -149 -57.5 -266.5t-172.5 -187t-270 -69.5q-122 0 -216.5 39.5t-153 111t-88 166t-29.5 208.5q0 149 57.5 265.5t172 185.5t269.5 69q241 0 364.5 -143t123.5 -379zM801 498q0 67 -11.5 122.5t-37.5 103t-73 74.5t-112 27q-66 0 -114 -26.5t-75 -73
t-39.5 -101.5t-12.5 -120q0 -67 11.5 -123.5t36.5 -105.5t72.5 -77t112.5 -28t113.5 27t75.5 74.5t40 104t13 122.5zM774 1212q0 -9 -10 -26l-27 -37q-16 -23 -32 -23q-11 0 -33 11l-293 157q-23 12 -23 29q0 15 11 29l49 71q17 25 35 25q10 0 36 -16l263 -187
q24 -16 24 -33z" />
    <glyph glyph-name="oacute" unicode="&#xf3;" horiz-adv-x="1126" 
d="M1057 498q0 -149 -57.5 -266.5t-172.5 -187t-270 -69.5q-122 0 -216.5 39.5t-153 111t-88 166t-29.5 208.5q0 149 57.5 265.5t172 185.5t269.5 69q241 0 364.5 -143t123.5 -379zM801 498q0 67 -11.5 122.5t-37.5 103t-73 74.5t-112 27q-66 0 -114 -26.5t-75 -73
t-39.5 -101.5t-12.5 -120q0 -67 11.5 -123.5t36.5 -105.5t72.5 -77t112.5 -28t113.5 27t75.5 74.5t40 104t13 122.5zM774 1321q0 -19 -24 -31l-289 -153q-23 -13 -35 -13q-16 0 -35 25l-24 35q-11 18 -11 24q0 16 25 35l260 184q30 19 37 19q17 0 35 -27l49 -69
q12 -15 12 -29z" />
    <glyph glyph-name="ocircumflex" unicode="&#xf4;" horiz-adv-x="1126" 
d="M1057 498q0 -149 -57.5 -266.5t-172.5 -187t-270 -69.5q-122 0 -216.5 39.5t-153 111t-88 166t-29.5 208.5q0 149 57.5 265.5t172 185.5t269.5 69q241 0 364.5 -143t123.5 -379zM801 498q0 67 -11.5 122.5t-37.5 103t-73 74.5t-112 27q-66 0 -114 -26.5t-75 -73
t-39.5 -101.5t-12.5 -120q0 -67 11.5 -123.5t36.5 -105.5t72.5 -77t112.5 -28t113.5 27t75.5 74.5t40 104t13 122.5zM858 1206q0 -19 -14 -30l-51 -46q-12 -12 -25 -12q-14 0 -32 15l-179 137l-174 -129q-24 -17 -39 -17q-13 0 -30 17l-43 41q-15 15 -15 24q0 10 19 29
l205 186q26 23 59 23h39q34 0 55 -19l211 -192q14 -11 14 -27z" />
    <glyph glyph-name="otilde" unicode="&#xf5;" horiz-adv-x="1126" 
d="M1057 498q0 -149 -57.5 -266.5t-172.5 -187t-270 -69.5q-122 0 -216.5 39.5t-153 111t-88 166t-29.5 208.5q0 149 57.5 265.5t172 185.5t269.5 69q241 0 364.5 -143t123.5 -379zM801 498q0 67 -11.5 122.5t-37.5 103t-73 74.5t-112 27q-66 0 -114 -26.5t-75 -73
t-39.5 -101.5t-12.5 -120q0 -67 11.5 -123.5t36.5 -105.5t72.5 -77t112.5 -28t113.5 27t75.5 74.5t40 104t13 122.5zM901 1311q0 -16 -16 -29q-123 -92 -215 -92q-41 0 -108 36t-103 36q-35 0 -133 -48q-21 -12 -33 -12q-15 0 -24 21l-46 94q-8 20 -8 24q0 14 29 33
q106 70 186 70q44 0 123.5 -37t104.5 -37q32 0 127 53q19 11 30 11q16 0 29 -19l47 -78q10 -17 10 -26z" />
    <glyph glyph-name="odieresis" unicode="&#xf6;" horiz-adv-x="1126" 
d="M1057 498q0 -149 -57.5 -266.5t-172.5 -187t-270 -69.5q-122 0 -216.5 39.5t-153 111t-88 166t-29.5 208.5q0 149 57.5 265.5t172 185.5t269.5 69q241 0 364.5 -143t123.5 -379zM801 498q0 67 -11.5 122.5t-37.5 103t-73 74.5t-112 27q-66 0 -114 -26.5t-75 -73
t-39.5 -101.5t-12.5 -120q0 -67 11.5 -123.5t36.5 -105.5t72.5 -77t112.5 -28t113.5 27t75.5 74.5t40 104t13 122.5zM856 1331q0 -51 -35.5 -81.5t-80.5 -30.5q-47 0 -85 29.5t-38 80.5q0 53 37 84t86 31q47 0 81.5 -30.5t34.5 -82.5zM482 1331q0 -51 -37 -81.5t-82 -30.5
q-47 0 -84 29.5t-37 80.5q0 53 36 84t85 31q47 0 83 -31t36 -82z" />
    <glyph glyph-name="divide" unicode="&#xf7;" horiz-adv-x="1071" 
d="M680 895q0 -61 -44 -99t-99 -38q-57 0 -102.5 37.5t-45.5 99.5q0 64 44 100.5t104 36.5q58 0 100.5 -37t42.5 -100zM989 487q0 -30 -11 -42.5t-40 -12.5h-811q-28 0 -38.5 12.5t-10.5 38.5v115q0 27 10 38t37 11h811q30 0 41.5 -11.5t11.5 -39.5v-109zM680 188
q0 -61 -44 -99t-99 -38q-57 0 -102.5 36.5t-45.5 98.5q0 64 44.5 102t103.5 38q58 0 100.5 -37.5t42.5 -100.5z" />
    <glyph glyph-name="oslash" unicode="&#xf8;" horiz-adv-x="1126" 
d="M1057 498q0 -149 -57.5 -266.5t-172.5 -187t-270 -69.5q-133 0 -223 43l-55 -88q-20 -36 -52 -14l-41 27q-28 17 -12 43l59 94q-163 138 -163 420q0 149 57.5 265.5t172 185.5t269.5 69q134 0 224 -43l47 76q15 25 29 30.5t34 -6.5l33 -20q16 -10 16.5 -21.5t-10.5 -29.5
l-53 -86q168 -134 168 -422zM801 498q0 130 -41 213l-316 -512q50 -29 115 -29t113.5 27t75.5 74.5t40 104t13 122.5zM680 797q-48 28 -113 28q-66 0 -114 -26.5t-75 -73t-39.5 -101.5t-12.5 -120q0 -131 39 -213z" />
    <glyph glyph-name="ugrave" unicode="&#xf9;" horiz-adv-x="1138" 
d="M1012 57q0 -32 -11.5 -44.5t-42.5 -12.5h-131q-46 0 -49 41l-2 51q-145 -117 -325 -117q-166 0 -245 97t-79 270v604q0 47 53 47h144q26 0 38.5 -10t12.5 -37v-561q0 -94 32.5 -142t118.5 -48q58 0 124.5 28t113.5 70v653q0 47 51 47h146q26 0 38.5 -10t12.5 -37v-889z
M735 1212q0 -9 -10 -26l-27 -37q-16 -23 -32 -23q-11 0 -33 11l-293 157q-23 12 -23 29q0 15 11 29l49 71q17 25 35 25q10 0 36 -16l263 -187q24 -16 24 -33z" />
    <glyph glyph-name="uacute" unicode="&#xfa;" horiz-adv-x="1138" 
d="M1012 57q0 -32 -11.5 -44.5t-42.5 -12.5h-131q-46 0 -49 41l-2 51q-145 -117 -325 -117q-166 0 -245 97t-79 270v604q0 47 53 47h144q26 0 38.5 -10t12.5 -37v-561q0 -94 32.5 -142t118.5 -48q58 0 124.5 28t113.5 70v653q0 47 51 47h146q26 0 38.5 -10t12.5 -37v-889z
M782 1321q0 -19 -24 -31l-289 -153q-23 -13 -35 -13q-16 0 -35 25l-24 35q-11 18 -11 24q0 16 25 35l260 184q30 19 37 19q17 0 35 -27l49 -69q12 -15 12 -29z" />
    <glyph glyph-name="ucircumflex" unicode="&#xfb;" horiz-adv-x="1138" 
d="M1012 57q0 -32 -11.5 -44.5t-42.5 -12.5h-131q-46 0 -49 41l-2 51q-145 -117 -325 -117q-166 0 -245 97t-79 270v604q0 47 53 47h144q26 0 38.5 -10t12.5 -37v-561q0 -94 32.5 -142t118.5 -48q58 0 124.5 28t113.5 70v653q0 47 51 47h146q26 0 38.5 -10t12.5 -37v-889z
M862 1206q0 -19 -14 -30l-51 -46q-12 -12 -25 -12q-14 0 -32 15l-179 137l-174 -129q-24 -17 -39 -17q-13 0 -30 17l-43 41q-15 15 -15 24q0 10 19 29l205 186q26 23 59 23h39q34 0 55 -19l211 -192q14 -11 14 -27z" />
    <glyph glyph-name="udieresis" unicode="&#xfc;" horiz-adv-x="1138" 
d="M1012 57q0 -32 -11.5 -44.5t-42.5 -12.5h-131q-46 0 -49 41l-2 51q-145 -117 -325 -117q-166 0 -245 97t-79 270v604q0 47 53 47h144q26 0 38.5 -10t12.5 -37v-561q0 -94 32.5 -142t118.5 -48q58 0 124.5 28t113.5 70v653q0 47 51 47h146q26 0 38.5 -10t12.5 -37v-889z
M878 1331q0 -51 -35.5 -81.5t-80.5 -30.5q-47 0 -85 29.5t-38 80.5q0 53 37 84t86 31q47 0 81.5 -30.5t34.5 -82.5zM504 1331q0 -51 -37 -81.5t-82 -30.5q-47 0 -84 29.5t-37 80.5q0 53 36 84t85 31q47 0 83 -31t36 -82z" />
    <glyph glyph-name="yacute" unicode="&#xfd;" horiz-adv-x="1052" 
d="M1026 965q0 -5 -4 -21l-404 -1061q-69 -184 -168.5 -256.5t-283.5 -72.5q-65 0 -109 10q-30 5 -30 35q0 3 1 8.5t1 9.5l14 107q3 20 11.5 28t25.5 8h12q5 0 31.5 -3t38.5 -3q92 0 140.5 33.5t80.5 108.5l39 92l-373 960q-4 12 -4 17q0 12 9 20t22 8h196q38 0 52 -35
l227 -677l215 665q8 25 21.5 36t39.5 11h166q15 0 24 -8t9 -20zM758 1321q0 -19 -24 -31l-289 -153q-23 -13 -35 -13q-16 0 -35 25l-24 35q-11 18 -11 24q0 16 25 35l260 184q30 19 37 19q17 0 35 -27l49 -69q12 -15 12 -29z" />
    <glyph glyph-name="thorn" unicode="&#xfe;" horiz-adv-x="1132" 
d="M1065 510q0 -118 -34.5 -221t-98.5 -176q-124 -140 -314 -140q-71 0 -137 26t-110 71v-459q0 -29 -14 -41t-42 -12h-143q-49 0 -49 53v1151v379q0 35 3 147.5t7 116.5q0 31 33 37l151 18q2 0 6.5 1t6.5 1q39 0 39 -43v-506q46 46 120.5 75.5t149.5 29.5q182 0 297 -125
q62 -68 95.5 -168t33.5 -215zM807 498q0 158 -57 237q-58 84 -170 84q-55 0 -116 -30t-93 -70v-447q32 -43 87.5 -71.5t112.5 -28.5q100 0 162 76q74 92 74 250z" />
    <glyph glyph-name="ydieresis" unicode="&#xff;" horiz-adv-x="1052" 
d="M1026 965q0 -5 -4 -21l-404 -1061q-69 -184 -168.5 -256.5t-283.5 -72.5q-65 0 -109 10q-30 5 -30 35q0 3 1 8.5t1 9.5l14 107q3 20 11.5 28t25.5 8h12q5 0 31.5 -3t38.5 -3q92 0 140.5 33.5t80.5 108.5l39 92l-373 960q-4 12 -4 17q0 12 9 20t22 8h196q38 0 52 -35
l227 -677l215 665q8 25 21.5 36t39.5 11h166q15 0 24 -8t9 -20zM835 1331q0 -51 -35.5 -81.5t-80.5 -30.5q-47 0 -85 29.5t-38 80.5q0 53 37 84t86 31q47 0 81.5 -30.5t34.5 -82.5zM461 1331q0 -51 -37 -81.5t-82 -30.5q-47 0 -84 29.5t-37 80.5q0 53 36 84t85 31
q47 0 83 -31t36 -82z" />
    <glyph glyph-name="Cacute" unicode="&#x106;" horiz-adv-x="1220" 
d="M1174 100q0 -28 -33 -41q-206 -84 -408 -84q-159 0 -282.5 54t-201.5 151.5t-118.5 229.5t-40.5 292q0 157 46.5 293t130.5 235.5t210 156.5t277 57q208 0 385 -86q32 -15 32 -35q0 -12 -6 -27l-47 -129q-9 -26 -28 -26q-7 0 -23 8q-142 74 -297 74q-83 0 -150.5 -29.5
t-112 -78.5t-75 -115.5t-44 -138t-13.5 -148.5q0 -238 106 -377t293 -139q150 0 295 65q20 8 25 8q20 0 32 -30l41 -111q7 -18 7 -29zM1079 1759q0 -18 -24 -30l-289 -154q-21 -12 -35 -12q-17 0 -35 24l-24 35q-10 17 -10 25q0 15 24 34l260 185q29 18 37 18q18 0 35 -26
l49 -70q12 -15 12 -29z" />
    <glyph glyph-name="cacute" unicode="&#x107;" horiz-adv-x="915" 
d="M877 70q0 -20 -29 -33q-135 -62 -297 -62q-234 0 -362 136.5t-128 375.5q0 241 136.5 387t371.5 146q149 0 275 -57q14 -7 19 -12.5t5 -16.5q0 -13 -4 -25l-26 -108q-6 -29 -25 -29q-6 0 -22 8q-106 45 -197 45q-131 0 -204 -86.5t-73 -238.5t69 -242t198 -90
q103 0 215 45q18 6 20 6q18 0 25 -24l26 -91q7 -25 7 -34zM889 1321q0 -19 -25 -31l-289 -153q-23 -13 -34 -13q-16 0 -35 25l-25 35q-10 17 -10 24q0 16 25 35l260 184q30 19 37 19q16 0 34 -27l50 -69q12 -15 12 -29z" />
    <glyph glyph-name="Ccaron" unicode="&#x10c;" horiz-adv-x="1220" 
d="M1174 100q0 -28 -33 -41q-206 -84 -408 -84q-159 0 -282.5 54t-201.5 151.5t-118.5 229.5t-40.5 292q0 157 46.5 293t130.5 235.5t210 156.5t277 57q208 0 385 -86q32 -15 32 -35q0 -12 -6 -27l-47 -129q-9 -26 -28 -26q-7 0 -23 8q-142 74 -297 74q-83 0 -150.5 -29.5
t-112 -78.5t-75 -115.5t-44 -138t-13.5 -148.5q0 -238 106 -377t293 -139q150 0 295 65q20 8 25 8q20 0 32 -30l41 -111q7 -18 7 -29zM1042 1800q0 -16 -18 -31l-199 -188q-25 -25 -61 -25h-37q-34 0 -55 19l-207 197q-16 16 -16 28q0 14 16 27l47 37q12 10 25 10
q16 0 30 -12l181 -133l174 126q20 17 32 17q11 0 35 -17l39 -32q14 -14 14 -23z" />
    <glyph glyph-name="ccaron" unicode="&#x10d;" horiz-adv-x="915" 
d="M877 70q0 -20 -29 -33q-135 -62 -297 -62q-234 0 -362 136.5t-128 375.5q0 241 136.5 387t371.5 146q149 0 275 -57q14 -7 19 -12.5t5 -16.5q0 -13 -4 -25l-26 -108q-6 -29 -25 -29q-6 0 -22 8q-106 45 -197 45q-131 0 -204 -86.5t-73 -238.5t69 -242t198 -90
q103 0 215 45q18 6 20 6q18 0 25 -24l26 -91q7 -25 7 -34zM858 1372q0 -16 -18 -31l-199 -188q-25 -25 -61 -25h-37q-35 0 -56 19l-206 196q-17 17 -17 29q0 13 17 27l47 37q13 10 24 10q17 0 31 -12l180 -134l174 127q20 17 33 17q11 0 35 -17l39 -32q14 -14 14 -23z" />
    <glyph glyph-name="Dcroat" unicode="&#x110;" horiz-adv-x="1417" 
d="M1329 702q0 -357 -223 -548q-185 -154 -508 -154h-391q-33 0 -46.5 11.5t-13.5 45.5v557h-84q-28 0 -39.5 13t-11.5 39v114q0 27 11 38t38 11h86v527q0 33 13.5 47t50.5 14h295q182 0 306.5 -23.5t223.5 -80.5q141 -81 217 -234.5t76 -376.5zM592 670q0 -30 -11 -43
t-40 -13h-127v-393h157q115 0 200.5 24t146.5 85q129 129 129 375q0 285 -160 405q-116 84 -324 84h-149v-365h127q30 0 40.5 -11t10.5 -40v-108z" />
    <glyph glyph-name="dcroat" unicode="&#x111;" horiz-adv-x="1140" 
d="M1012 51q0 -25 -12.5 -38t-32.5 -13h-133q-47 0 -50 41l-4 55q-44 -51 -122 -86t-156 -35q-108 0 -192 41t-135.5 112t-78 161.5t-26.5 195.5q0 109 30 205.5t85 170.5t141.5 117.5t191.5 43.5q69 0 136 -26t110 -70v213h-119q-53 0 -53 57v64q0 28 11 39.5t42 11.5h119
v75q0 28 9.5 40.5t33.5 15.5l151 20q1 0 10.5 1t10.5 1q19 0 26 -9t7 -32v-112h55q34 0 46.5 -11t12.5 -40v-64q0 -31 -12.5 -44t-46.5 -13h-55v-1088zM764 279v444q-32 43 -86 71.5t-111 28.5q-117 0 -178 -93t-61 -230q0 -66 12.5 -122t38.5 -102.5t71 -73t105 -26.5
q55 0 116 31.5t93 71.5z" />
    <glyph glyph-name="dotlessi" unicode="&#x131;" horiz-adv-x="534" 
d="M393 51q0 -27 -12 -39t-39 -12h-143q-28 0 -41 12t-13 39v895q0 47 54 47h143q26 0 38.5 -10t12.5 -37v-895z" />
    <glyph glyph-name="Lslash" unicode="&#x141;" horiz-adv-x="1009" 
d="M981 49q0 -49 -49 -49h-729q-29 0 -41 12t-12 45v471l-138 -112q-18 -18 -22 -15q-15 -9 -26 -2t-11 27v63q0 5 0.5 9.5t1 7.5t2.5 6.5t3 6t3.5 5.5t4 4.5t5.5 5t6 5t7.5 5t7.5 5.5l156 131v686q0 51 49 51h163q28 0 40 -12t12 -41v-463l155 131q4 4 14 10t11 5
q17 10 28 5t11 -24v-61q0 -17 -7.5 -30t-12.5 -18t-25 -22l-174 -145v-533h518q49 0 49 -47v-123z" />
    <glyph glyph-name="lslash" unicode="&#x142;" horiz-adv-x="505" 
d="M618 967q0 -17 -6 -29.5t-12.5 -19t-24.5 -21.5l-198 -166v-680q0 -51 -45 -51h-156q-47 0 -47 49v475l-143 -118q-20 -17 -33.5 -10.5t-13.5 30.5v63q0 5 0.5 9.5t1 7.5t2.5 6.5t3 6t3.5 5.5t4 4.5t5.5 5t6 5t7.5 5t7.5 5.5l149 125v719q0 25 9.5 35.5t31.5 13.5l154 20
h8h10q35 0 35 -43v-538l190 159q23 19 37 15t14 -27v-61z" />
    <glyph glyph-name="OE" unicode="&#x152;" horiz-adv-x="1984" 
d="M1896 49q0 -49 -49 -49h-757q-32 0 -45 20.5t-13 63.5q-59 -47 -151.5 -78t-184.5 -31q-289 0 -446.5 196t-157.5 534q0 333 172 536t459 203q185 0 311 -98q0 36 10 53.5t35 17.5h772q21 0 33.5 -11t9.5 -32l-14 -127q-3 -26 -18 -34.5t-50 -8.5h-516v-370h473
q54 0 54 -46v-116q0 -49 -51 -49h-476v-410h549q51 0 51 -47v-117zM1032 299v807q-52 56 -136 86.5t-161 30.5q-150 0 -243 -113q-117 -139 -117 -399q0 -250 89 -382t253 -132q83 0 169.5 28t145.5 74z" />
    <glyph glyph-name="oe" unicode="&#x153;" horiz-adv-x="1761" 
d="M1702 500q0 -36 -14.5 -48t-53.5 -12h-598q12 -119 91 -192.5t200 -73.5q124 0 252 49q24 6 25 6q22 0 28 -24l29 -113q2 -6 2 -14q0 -22 -33 -37q-71 -32 -165 -49t-179 -17q-247 0 -373 168q-128 -168 -354 -168q-122 0 -216.5 39.5t-153 111t-88 166t-29.5 208.5
q0 149 57.5 265.5t172 185.5t269.5 69q234 0 351 -164q131 164 360 164q184 0 301 -123q119 -124 119 -367v-30zM1458 602q0 96 -47.5 161.5t-142.5 65.5t-155 -65t-73 -162h418zM803 496q0 66 -11.5 122.5t-37.5 105t-73 76t-112 27.5q-66 0 -114 -27.5t-75 -75t-39.5 -103
t-12.5 -119.5q0 -67 11.5 -123t36.5 -105.5t72.5 -77.5t112.5 -28t113.5 27t75.5 74.5t40 104t13 122.5z" />
    <glyph glyph-name="Scaron" unicode="&#x160;" horiz-adv-x="1105" 
d="M1024 414q0 -83 -26 -154.5t-72.5 -123.5t-109 -88.5t-136.5 -54.5t-154 -18q-202 0 -391 66q-35 13 -35 39q0 16 4 26l43 134q10 32 37 32q13 0 31 -6q167 -61 305 -61q43 0 84 10.5t75.5 31.5t55.5 57.5t21 82.5q0 65 -40 107.5t-110 76.5l-266 134q-113 56 -177.5 146
t-64.5 206q0 90 41.5 165t110 122.5t151.5 73.5t170 26q199 0 367 -72q41 -18 41 -41q0 -11 -6 -26l-49 -125q-11 -31 -35 -31q-9 0 -33 8q-154 64 -270 64q-83 0 -145 -38.5t-62 -117.5q0 -96 145 -166l228 -111q131 -63 201.5 -152t70.5 -222zM858 1806q0 -16 -18 -31
l-199 -188q-25 -25 -61 -25h-37q-34 0 -55 19l-207 196q-17 17 -17 29q0 13 17 27l47 37q13 10 24 10q17 0 31 -12l180 -134l174 127q20 17 33 17q11 0 35 -17l39 -32q14 -14 14 -23z" />
    <glyph glyph-name="scaron" unicode="&#x161;" horiz-adv-x="841" 
d="M791 293q0 -103 -56.5 -177t-144 -107.5t-195.5 -33.5q-153 0 -315 72q-25 11 -25 33q0 6 4 18l33 105q8 28 29 28q12 0 22 -4q153 -63 258 -63q69 0 110.5 29t41.5 79q0 41 -28.5 68t-94.5 53l-162 62q-94 35 -152.5 104t-58.5 168q0 96 56 164.5t138 98.5t177 30
q156 0 297 -62q25 -12 25 -28q0 -1 -5 -21l-34 -110q-7 -23 -29 -23q-8 0 -20 4q-123 49 -222 49q-61 0 -95 -28t-34 -66q0 -35 22 -58t79 -46l184 -76q88 -37 141.5 -102.5t53.5 -159.5zM708 1372q0 -16 -18 -31l-199 -188q-25 -25 -61 -25h-37q-34 0 -55 19l-207 196
q-17 17 -17 29q0 13 17 27l47 37q13 10 24 10q17 0 31 -12l180 -134l174 127q20 17 33 17q11 0 35 -17l39 -32q14 -14 14 -23z" />
    <glyph glyph-name="Ydieresis" unicode="&#x178;" horiz-adv-x="1212" 
d="M1180 1393q0 -12 -9 -27l-421 -780v-539q0 -47 -48 -47h-172q-47 0 -47 51v524l-444 793q-6 12 -6 21q0 12 10 20t27 8h186q56 0 76 -39l295 -579h4l291 575q12 25 27 34t44 9h148q39 0 39 -24zM911 1683q0 -51 -35.5 -81.5t-80.5 -30.5q-47 0 -85 29.5t-38 80.5
q0 53 37 84t86 31q47 0 81.5 -30.5t34.5 -82.5zM537 1683q0 -51 -37 -81.5t-82 -30.5q-47 0 -84 29.5t-37 80.5q0 53 36 84t85 31q47 0 83 -31t36 -82z" />
    <glyph glyph-name="Zcaron" unicode="&#x17d;" horiz-adv-x="1198" 
d="M1139 49q0 -49 -45 -49h-998q-39 0 -39 43v63q0 33 21 66l678 1030v2h-600q-28 0 -40 10.5t-12 36.5v125q0 41 41 41h916q49 0 49 -45v-49q0 -49 -25 -88l-673 -1020v-2h680q47 0 47 -47v-117zM903 1810q0 -16 -18 -31l-199 -188q-25 -25 -61 -25h-37q-34 0 -55 19
l-207 196q-17 17 -17 29q0 13 17 27l47 37q13 10 24 10q17 0 31 -12l180 -134l174 127q20 17 33 17q11 0 35 -17l39 -32q14 -14 14 -23z" />
    <glyph glyph-name="zcaron" unicode="&#x17e;" horiz-adv-x="880" 
d="M831 39q0 -39 -38 -39h-695q-49 0 -49 49v51q0 38 21 70l442 651v2h-379q-29 0 -38 10.5t-9 43.5v73q0 43 39 43h647q47 0 47 -43v-57q0 -39 -20 -68l-451 -651v-4h443q40 0 40 -35v-96zM751 1372q0 -16 -18 -31l-199 -188q-25 -25 -61 -25h-37q-34 0 -55 19l-207 196
q-17 17 -17 29q0 13 17 27l47 37q13 10 24 10q17 0 31 -12l180 -134l174 127q20 17 33 17q11 0 35 -17l39 -32q14 -14 14 -23z" />
    <glyph glyph-name="florin" unicode="&#x192;" 
d="M1221 1376q0 -1 -1 -4.5t-1 -5.5q-3 -15 -11 -35l-30 -88q-10 -29 -31 -29q-3 0 -23 5q-67 26 -133 26q-94 0 -145 -84q-27 -43 -47 -143l-47 -240h211q21 0 28 -3.5t8 -16.5v-15l-2 -45q-1 -27 -8.5 -33t-32.5 -6h-227l-119 -612q-18 -99 -45 -168q-106 -274 -401 -274
q-119 0 -207 43q-20 9 -20 30v9q5 19 10 32l33 88q10 31 30 31q9 0 21 -4q69 -27 133 -27q94 0 149 95q32 55 49 151l115 606h-143q-21 0 -28 7t-7 26v4l4 45q2 24 8.5 30.5t30.5 6.5h158h2l43 228q13 72 45 163q107 279 403 279q119 0 207 -43q21 -9 21 -29z" />
    <glyph glyph-name="circumflex" unicode="&#x2c6;" horiz-adv-x="704" 
d="M657 1206q0 -19 -14 -30l-51 -46q-12 -12 -25 -12q-14 0 -32 15l-179 137l-174 -129q-24 -17 -39 -17q-13 0 -30 17l-43 41q-15 15 -15 24q0 10 19 29l205 186q26 23 59 23h39q34 0 55 -19l211 -192q14 -11 14 -27z" />
    <glyph glyph-name="caron" unicode="&#x2c7;" horiz-adv-x="704" 
d="M653 1372q0 -16 -18 -31l-199 -188q-25 -25 -61 -25h-37q-34 0 -55 19l-207 196q-17 17 -17 29q0 13 17 27l47 37q13 10 24 10q17 0 31 -12l180 -134l174 127q20 17 33 17q11 0 35 -17l39 -32q14 -14 14 -23z" />
    <glyph glyph-name="breve" unicode="&#x2d8;" horiz-adv-x="704" 
d="M631 1415q0 -12 -2 -20q-10 -53 -42 -97t-77 -71q-67 -39 -156 -39t-151 41q-92 57 -113 164q-4 16 -4 22q0 17 9.5 23t33.5 6h68q18 0 28 -4.5t14 -10t13 -22.5q36 -64 106 -64t105 68q9 20 19 26.5t32 6.5h80q21 0 29 -6t8 -23z" />
    <glyph glyph-name="dotaccent" unicode="&#x2d9;" horiz-adv-x="704" 
d="M479 1321q0 -55 -40 -90t-89 -35q-50 0 -91.5 34t-41.5 89q0 57 40 91t93 34q52 0 90.5 -33.5t38.5 -89.5z" />
    <glyph glyph-name="ring" unicode="&#x2da;" horiz-adv-x="704" 
d="M518 1280q0 -68 -48 -116t-116 -48t-117 48.5t-49 115.5t49 115.5t117 48.5t116 -48t48 -116zM410 1280q0 23 -16.5 39t-39.5 16t-40 -16t-17 -39t17 -39t40 -16t39.5 16t16.5 39z" />
    <glyph glyph-name="ogonek" unicode="&#x2db;" horiz-adv-x="704" 
d="M571 -365q0 -22 -26 -30q-83 -31 -166 -31q-103 0 -166 45t-63 121q0 86 65 154q48 50 154 106h137q-98 -73 -141 -126t-43 -103q0 -80 96 -80q54 0 110 18q1 0 4.5 1t4.5 1q15 0 18 -14l14 -49q2 -4 2 -13z" />
    <glyph glyph-name="tilde" unicode="&#x2dc;" horiz-adv-x="704" 
d="M698 1311q0 -16 -16 -29q-123 -92 -215 -92q-41 0 -108 36t-103 36q-35 0 -133 -48q-21 -12 -33 -12q-15 0 -24 21l-46 94q-8 20 -8 24q0 14 29 33q106 70 186 70q44 0 123.5 -37t104.5 -37q32 0 127 53q19 11 30 11q16 0 29 -19l47 -78q10 -17 10 -26z" />
    <glyph glyph-name="hungarumlaut" unicode="&#x2dd;" horiz-adv-x="704" 
d="M803 1319q0 -17 -23 -29l-291 -153q-23 -13 -32 -13q-20 0 -37 23l-25 37q-10 17 -10 22q0 16 25 35l262 186q30 19 35 19q16 0 34 -27l52 -71q10 -12 10 -29zM354 1319q0 -17 -24 -29l-289 -153q-23 -13 -35 -13q-18 0 -35 23l-24 37q-10 17 -10 22q0 16 24 35l260 186
q30 19 37 19q17 0 35 -27l49 -71q12 -15 12 -29z" />
    <glyph glyph-name="endash" unicode="&#x2013;" horiz-adv-x="1024" 
d="M1024 477q0 -30 -11 -42.5t-40 -12.5h-924q-28 0 -38.5 13t-10.5 40v133q0 27 10 38t37 11h924q30 0 41.5 -11.5t11.5 -39.5v-129z" />
    <glyph glyph-name="emdash" unicode="&#x2014;" horiz-adv-x="2048" 
d="M2048 477q0 -30 -11 -42.5t-40 -12.5h-1948q-28 0 -38.5 13t-10.5 40v133q0 27 10 38t37 11h1948q30 0 41.5 -11.5t11.5 -39.5v-129z" />
    <glyph glyph-name="quoteleft" unicode="&#x2018;" horiz-adv-x="704" 
d="M506 1382q0 -13 -14 -24q-84 -84 -84 -148q0 -29 42 -85t42 -95q0 -59 -40.5 -97t-99.5 -38q-64 0 -106.5 52t-42.5 118q0 108 58.5 206t150.5 163q20 14 34 14q16 0 31 -18l21 -27q8 -8 8 -21z" />
    <glyph glyph-name="quoteright" unicode="&#x2019;" horiz-adv-x="704" 
d="M500 1276q0 -108 -58 -205t-151 -162q-20 -14 -35 -14q-14 0 -29 18l-22 25q-8 8 -8 20q0 16 14 27q84 84 84 145q0 29 -42 86.5t-42 96.5q0 59 40 97t99 38q64 0 107 -53t43 -119z" />
    <glyph glyph-name="quotesinglbase" unicode="&#x201a;" horiz-adv-x="704" 
d="M500 68q0 -108 -58 -205t-151 -162q-22 -16 -35 -16q-16 0 -31 18l-20 25q-8 8 -8 22t14 25q84 84 84 147q0 29 -42 85t-42 95q0 59 40 97.5t99 38.5q64 0 107 -52t43 -118z" />
    <glyph glyph-name="quotedblleft" unicode="&#x201c;" horiz-adv-x="874" 
d="M784 1382q0 -14 -12 -24q-84 -84 -84 -148q0 -29 41 -85t41 -95q0 -59 -41 -97t-100 -38q-63 0 -104.5 52t-41.5 118q0 108 57.5 206.5t149.5 162.5q20 14 35 14q16 0 31 -18l20 -27q8 -8 8 -21zM393 1382q0 -14 -12 -24q-84 -84 -84 -148q0 -29 41 -85t41 -95
q0 -59 -40 -97t-99 -38q-64 0 -106 52t-42 118q0 108 57.5 206.5t149.5 162.5q20 14 35 14q16 0 31 -18l20 -27q8 -8 8 -21z" />
    <glyph glyph-name="quotedblright" unicode="&#x201d;" horiz-adv-x="874" 
d="M784 1257q0 -108 -58.5 -205.5t-150.5 -162.5q-21 -15 -34 -15t-29 19l-20 25q-11 11 -11 20q0 13 15 25q84 84 84 149q0 29 -41 84t-41 94q0 59 40 98t99 39q63 0 105 -52t42 -118zM393 1257q0 -108 -57.5 -206t-149.5 -162q-21 -15 -36 -15q-11 0 -27 19l-23 25
q-10 10 -10 20q0 14 14 25q84 84 84 149q0 29 -41 84t-41 94q0 59 40.5 98t99.5 39q63 0 105 -52t42 -118z" />
    <glyph glyph-name="quotedblbase" unicode="&#x201e;" horiz-adv-x="874" 
d="M784 68q0 -108 -58 -205t-151 -162q-22 -16 -34 -16q-14 0 -29 18l-20 25q-11 11 -11 22q0 13 15 25q84 84 84 147q0 29 -41 85t-41 95q0 59 40 97.5t99 38.5q63 0 105 -52t42 -118zM393 68q0 -108 -57.5 -205t-149.5 -162q-22 -16 -36 -16q-12 0 -27 18l-23 25
q-10 10 -10 22q0 14 14 25q84 84 84 147q0 29 -41 85t-41 95q0 59 40.5 97.5t99.5 38.5q63 0 105 -52t42 -118z" />
    <glyph glyph-name="dagger" unicode="&#x2020;" horiz-adv-x="1048" 
d="M973 778q0 -21 -9 -28t-30 -7l-299 5l-6 -707q0 -24 -8 -32.5t-31 -8.5h-139q-20 0 -26.5 8.5t-6.5 34.5l-8 705l-295 -5q-22 0 -30.5 6t-8.5 27v135q0 20 7.5 26.5t27.5 6.5l299 -2l-7 436q0 22 9 30.5t32 8.5h160q20 0 28.5 -7t8.5 -28l-4 -440l293 2q16 0 24 -1.5
t13.5 -9t5.5 -22.5v-133z" />
    <glyph glyph-name="daggerdbl" unicode="&#x2021;" horiz-adv-x="1048" 
d="M971 903q0 -21 -9 -28t-30 -7l-299 4l-2 -202l256 2q16 0 24 -1.5t13.5 -9t5.5 -22.5v-133q0 -21 -9 -28t-30 -7l-260 2l-4 -432q0 -24 -8 -32.5t-31 -8.5h-139q-20 0 -26.5 8.5t-6.5 34.5l-4 432l-258 -4q-22 0 -30.5 6t-8.5 27v135q0 20 7.5 26.5t27.5 6.5l260 -2
l-2 202l-295 -4q-22 0 -30.5 6t-8.5 27v135q0 20 7.5 26.5t27.5 6.5l299 -2l-7 311q0 22 9 30.5t32 8.5h160q20 0 28.5 -7t8.5 -28l-4 -315l293 2q16 0 24 -1.5t13.5 -9t5.5 -22.5v-133z" />
    <glyph glyph-name="bullet" unicode="&#x2022;" horiz-adv-x="1032" 
d="M860 549q0 -135 -100.5 -229.5t-243.5 -94.5t-244.5 94.5t-101.5 229.5t101.5 230t244.5 95t243.5 -95t100.5 -230z" />
    <glyph glyph-name="ellipsis" unicode="&#x2026;" horiz-adv-x="2048" 
d="M1819 111q0 -61 -44.5 -99.5t-99.5 -38.5q-57 0 -102 37t-45 99q0 64 44 101.5t103 37.5q58 0 101 -37t43 -100zM1167 111q0 -61 -45 -99.5t-100 -38.5q-57 0 -101 37t-44 99q0 64 43 101.5t102 37.5q58 0 101.5 -37t43.5 -100zM516 111q0 -61 -44 -99.5t-99 -38.5
q-57 0 -102.5 37t-45.5 99q0 64 44 101.5t104 37.5q58 0 100.5 -37t42.5 -100z" />
    <glyph glyph-name="perthousand" unicode="&#x2030;" horiz-adv-x="2048" 
d="M2017 303q0 -142 -76 -235t-215 -93t-214.5 93t-75.5 235q0 143 75 238.5t213 95.5q139 0 216 -96t77 -238zM645 1110q0 -142 -76 -235t-215 -93t-215 93t-76 235q0 143 75.5 238.5t213.5 95.5q139 0 216 -96t77 -238zM1292 1350q0 -14 -10 -27l-1003 -1341
q-15 -19 -23 -19q-14 0 -41 21l-86 65q-16 11 -16 29q0 17 14 37l987 1325q12 18 29 18q18 0 39 -16l88 -60q22 -16 22 -32zM1335 303q0 -142 -76 -235t-215 -93t-214.5 93t-75.5 235q0 143 75 238.5t213 95.5q139 0 216 -96t77 -238zM1823 244v82q0 159 -97 159
q-96 0 -96 -159v-82q0 -50 22 -84.5t72 -34.5t74.5 35t24.5 84zM451 1051v82q0 159 -97 159q-96 0 -96 -159v-82q0 -50 22 -84.5t72 -34.5t74.5 35t24.5 84zM1141 244v82q0 159 -97 159q-96 0 -96 -159v-82q0 -50 22 -84.5t72 -34.5t74.5 35t24.5 84z" />
    <glyph glyph-name="guilsinglleft" unicode="&#x2039;" horiz-adv-x="571" 
d="M473 733q0 -7 -6 -16l-166 -246l162 -252q6 -12 6 -22q0 -21 -25 -35l-67 -39q-13 -8 -27 -8q-18 0 -35 24l-227 297q-12 18 -12 33q0 14 14 35l227 289q19 22 35 22q13 0 19 -4l80 -47q22 -15 22 -31z" />
    <glyph glyph-name="guilsinglright" unicode="&#x203a;" horiz-adv-x="571" 
d="M494 465q0 -19 -13 -35l-227 -289q-19 -22 -35 -22q-12 0 -18 4l-80 47q-23 12 -23 33q0 10 4 14l168 248l-161 252q-9 18 -9 20q0 20 27 35l66 39q13 8 26 8q20 0 37 -24l227 -297q11 -16 11 -33z" />
    <glyph glyph-name="fraction" unicode="&#x2044;" horiz-adv-x="344" 
d="M743 1454q0 -12 -14 -37l-881 -1435q-13 -21 -27.5 -30t-39.5 -9h-168q-13 0 -22 7t-9 19q0 13 6 21l895 1442q18 28 32.5 37.5t45.5 9.5h146q36 0 36 -25z" />
    <glyph glyph-name="Euro" unicode="&#x20ac;" horiz-adv-x="1220" 
d="M1130 1323q0 -12 -6 -27l-47 -129q-9 -26 -28 -26q-7 0 -23 8q-78 40 -139.5 57t-136.5 17q-85 0 -152 -30.5t-109.5 -84.5t-68.5 -119.5t-37 -144.5h424q27 0 37 -7.5t6 -27.5l-12 -53q-6 -25 -12 -30t-31 -5h-420v-8q0 -57 2 -84h379q28 0 37.5 -7.5t3.5 -29.5l-11 -45
q-6 -30 -11.5 -35.5t-31.5 -5.5h-348q33 -149 120.5 -229t227.5 -80q130 0 275 65q20 8 24 8q24 0 33 -30l37 -111q6 -15 6 -29q0 -28 -33 -41q-109 -44 -194.5 -64t-192.5 -20q-260 0 -408 141t-186 390h-124q-25 0 -32 8.5t-7 34.5v41q0 26 7 32.5t34 6.5h110q-2 25 -2 73
v19h-113q-24 0 -30 6.5t-6 30.5v49q0 25 6.5 31t32.5 6h120q17 131 67 240.5t129 190t191 125t246 44.5q188 0 365 -86q32 -15 32 -35z" />
    <glyph glyph-name="trademark" unicode="&#x2122;" horiz-adv-x="1497" 
d="M1292 854q0 -33 -30 -33h-76q-35 0 -35 39l-6 285l-119 -301q-10 -23 -35 -23h-37q-23 0 -34 25l-136 303l-4 -295q0 -33 -35 -33h-67q-31 0 -31 31v4l23 528q0 33 32 33h58q27 0 39 -24l176 -385l164 385q9 24 35 24h59q28 0 31 -28l28 -533v-2zM645 1386l-6 -55
q-2 -26 -35 -26h-131v-453q0 -31 -29 -31h-88q-16 0 -22 7.5t-6 23.5v453h-135q-29 0 -29 28v56q0 28 29 28h401q27 0 29 -2q22 -3 22 -22v-7z" />
    <glyph glyph-name="minus" unicode="&#x2212;" horiz-adv-x="1071" 
d="M950 487q0 -30 -11 -42.5t-40 -12.5h-229h-260h-234q-28 0 -39.5 12.5t-11.5 38.5v115q0 27 11 38t38 11h234h260h231q30 0 40.5 -11t10.5 -40v-109z" />
    <glyph glyph-name="apple" unicode="&#xf8ff;" horiz-adv-x="768" 
d="M770 664q0 -43 -18 -75.5t-48.5 -51.5t-66 -28t-74.5 -9q-82 0 -170 37q-16 8 -16 20q0 1 1 4.5t1 5.5l20 66q9 18 17 18q4 0 16 -4q84 -33 135 -33q25 0 40.5 10t15.5 27q0 27 -48 43l-92 35q-45 16 -74.5 53.5t-29.5 89.5q0 51 30.5 87.5t73 51.5t90.5 15q89 0 162 -33
q15 -6 15 -16q0 -8 -2 -12l-21 -72q-6 -12 -18 -12q-9 0 -11 2q-67 24 -114 24q-24 0 -36.5 -10.5t-12.5 -22.5q0 -23 38 -38l103 -41q42 -16 68 -49t26 -82zM408 1059q0 -3 -1 -12t-1 -13l-11 -51q0 -20 -14 -20q-8 0 -12 2q-44 14 -72 14q-38 0 -51 -21.5t-13 -58.5v-45
h103q26 0 26 -23v-59q0 -22 -24 -22h-105v-363q0 -18 -5.5 -25.5t-22.5 -7.5h-96q-29 0 -29 31v363h-51q-18 0 -23.5 6.5t-5.5 27.5v43q0 27 23 27h57v35q0 219 190 219q69 0 121 -25q17 -6 17 -22z" />
    <glyph glyph-name="fi" unicode="&#xfb01;" horiz-adv-x="1222" 
d="M1087 51q0 -28 -11.5 -39.5t-37.5 -11.5h-145q-28 0 -39.5 11.5t-11.5 39.5v772h-402v-766q0 -29 -11.5 -43t-39.5 -14h-147q-49 0 -49 53v770h-111q-28 0 -36.5 9.5t-8.5 41.5v78q0 41 39 41h117v56q0 191 83 301q106 141 328 141q74 0 155 -12.5t132 -30.5
q29 -9 29 -37q0 -4 -1 -10t-3 -14t-3 -11l-12 -88q-4 -31 -24 -31q-5 0 -25 5q-102 26 -215 26q-87 0 -135 -45q-62 -57 -62 -178v-72h598q26 0 37.5 -10t11.5 -37v-895z" />
    <glyph glyph-name="fl" unicode="&#xfb02;" horiz-adv-x="1212" 
d="M1081 51q0 -51 -47 -51h-153q-47 0 -47 49v1211q-33 10 -98.5 19t-106.5 9q-83 0 -129 -43q-60 -55 -60 -180v-72h219q41 0 41 -35v-96q0 -39 -38 -39h-222v-766q0 -29 -11.5 -43t-39.5 -14h-147q-49 0 -49 53v770h-111q-28 0 -36.5 9.5t-8.5 41.5v78q0 41 39 41h117v56
q0 119 28.5 203t91.5 143q104 96 285 96q68 0 153 -14.5t134 -34.5l143 20h8h11q34 -3 34 -45v-1366z" />
    </font>
</defs>
</svg>
